{
.appVersion = "1352";
DisplayStrings = (
ABCDEFGHIJKLMNOPQRSTUVWXYZ,
abcdefghijklmnopqrstuvwxyz
);
copyright = "Copyright 2008 The Sassy Frass Project Authors (https://github.com/googlefonts/sassy-frass)";
customParameters = (
{
name = Axes;
value = (
{
Name = Weight;
Tag = wght;
}
);
},
{
name = license;
value = "This Font Software is licensed under the SIL Open Font License, Version 1.1. This license is available with a FAQ at: https://scripts.sil.org/OFL";
},
{
name = licenseURL;
value = "https://scripts.sil.org/OFL";
},
{
name = vendorID;
value = GOOG;
},
{
name = glyphOrder;
value = (
.notdef,
CR,
NULL,
space,
nbspace
);
},
{
name = fsType;
value = (
);
},
{
name = "Use Typo Metrics";
value = 1;
}
);
date = "2021-09-15 00:46:13 +0000";
designer = "Robert E. Leuschke";
designerURL = www.typesetit.com;
disablesNiceNames = 1;
familyName = "Sassy Frass";
featurePrefixes = (
{
automatic = 1;
code = "languagesystem DFLT dflt;\012\012languagesystem latn dflt;\012languagesystem latn AZE;\012languagesystem latn CRT;\012languagesystem latn KAZ;\012languagesystem latn TAT;\012languagesystem latn TRK;\012languagesystem latn ROM;\012languagesystem latn MOL;\012languagesystem latn CAT;\012";
name = Languagesystems;
}
);
features = (
{
automatic = 1;
code = "feature locl;\012feature sups;\012feature frac;\012feature ordn;\012";
name = aalt;
},
{
automatic = 1;

glyphs = (
{
glyphname = .notdef;
lastChange = "2021-09-15 03:21:52 +0000";
layers = (
{
background = {
paths = (
{
closed = 1;
nodes = (
"565 -6 LINE",
"579 9 LINE",
"579 742 LINE",
"565 757 LINE",
"61 757 LINE",
"45 742 LINE",
"45 9 LINE",
"61 -6 LINE"
);
},
{
closed = 1;
nodes = (
"183 179 LINE",
"290 377 LINE",
"183 572 LINE",
"197 600 LINE",
"305 405 LINE",
"414 601 LINE",
"431 572 LINE",
"320 374 LINE",
"431 179 LINE",
"414 151 LINE",
"305 345 LINE",
"197 151 LINE"
);
},
{
closed = 1;
nodes = (
"79 724 LINE",
"548 724 LINE",
"548 27 LINE",
"79 27 LINE"
);
},
{
closed = 1;
nodes = (
"519 52 LINE",
"519 694 LINE",
"106 694 LINE",
"106 52 LINE"
);
}
);
};
layerId = "95C423A7-595F-441F-915A-E5EF8B5EF971";
paths = (
{
closed = 1;
nodes = (
"565 -6 LINE",
"579 9 LINE",
"579 742 LINE",
"565 757 LINE",
"61 757 LINE",
"45 742 LINE",
"45 9 LINE",
"61 -6 LINE"
);
},
{
closed = 1;
nodes = (
"183 179 LINE",
"290 377 LINE",
"183 572 LINE",
"197 600 LINE",
"305 405 LINE",
"414 601 LINE",
"431 572 LINE",
"320 374 LINE",
"431 179 LINE",
"414 151 LINE",
"305 345 LINE",
"197 151 LINE"
);
},
{
closed = 1;
nodes = (
"79 27 LINE",
"79 724 LINE",
"548 724 LINE",
"548 27 LINE"
);
},
{
closed = 1;
nodes = (
"106 52 LINE",
"519 52 LINE",
"519 694 LINE",
"106 694 LINE"
);
}
);
width = 625;
}
);
note = .notdef;
},
{
glyphname = A;
lastChange = "2021-09-15 03:21:52 +0000";
layers = (
{
background = {
paths = (
{
closed = 1;
nodes = (
"1939 844 OFFCURVE",
"2166 1092 OFFCURVE",
"2166 1111 CURVE SMOOTH",
"2166 1129 OFFCURVE",
"2135 1138 OFFCURVE",
"2121 1138 CURVE SMOOTH",
"2119 1138 OFFCURVE",
"2116 1138 OFFCURVE",
"2112 1138 CURVE",
"2070 1121 OFFCURVE",
"1791 879 OFFCURVE",
"1759 835 CURVE SMOOTH",
"1755 828 OFFCURVE",
"1750 822 OFFCURVE",
"1750 814 CURVE SMOOTH",
"1750 788 OFFCURVE",
"1799 781 OFFCURVE",
"1817 777 CURVE",
"1747 686 OFFCURVE",
"1683 592 OFFCURVE",
"1626 494 CURVE",
"1572 484 OFFCURVE",
"1519 477 OFFCURVE",
"1465 472 CURVE",
"1572 597 OFFCURVE",
"1671 733 OFFCURVE",
"1757 874 CURVE",
"1759 875 OFFCURVE",
"1760 879 OFFCURVE",
"1760 881 CURVE SMOOTH",
"1760 888 OFFCURVE",
"1754 890 OFFCURVE",
"1748 890 CURVE SMOOTH",
"1739 890 OFFCURVE",
"1733 886 OFFCURVE",
"1728 880 CURVE SMOOTH",
"1719 866 OFFCURVE",
"1710 852 OFFCURVE",
"1701 837 CURVE SMOOTH",
"1677 805 OFFCURVE",
"1654 773 OFFCURVE",
"1630 742 CURVE SMOOTH",
"1556 645 OFFCURVE",
"1475 552 OFFCURVE",
"1390 465 CURVE",
"1310 458 OFFCURVE",
"991 437 OFFCURVE",
"939 415 CURVE SMOOTH",
"930 412 OFFCURVE",
"914 405 OFFCURVE",
"914 391 CURVE SMOOTH",
"914 387 OFFCURVE",
"915 382 OFFCURVE",
"917 379 CURVE SMOOTH",
"941 351 OFFCURVE",
"1036 323 OFFCURVE",
"1072 315 CURVE SMOOTH",
"1119 305 OFFCURVE",
"1168 299 OFFCURVE",
"1214 295 CURVE",
"1008 106 OFFCURVE",
"569 -249 OFFCURVE",
"268 -249 CURVE SMOOTH",
"142 -249 OFFCURVE",
"59 -182 OFFCURVE",
"59 -53 CURVE SMOOTH",
"59 165 OFFCURVE",
"267 375 OFFCURVE",
"443 479 CURVE SMOOTH",
"520 525 OFFCURVE",
"603 559 OFFCURVE",
"689 585 CURVE SMOOTH",
"723 594 OFFCURVE",
"757 600 OFFCURVE",
"791 600 CURVE SMOOTH",
"822 600 OFFCURVE",
"867 594 OFFCURVE",
"885 566 CURVE SMOOTH",
"889 560 OFFCURVE",
"892 556 OFFCURVE",
"899 556 CURVE SMOOTH",
"908 556 OFFCURVE",
"917 563 OFFCURVE",
"917 572 CURVE SMOOTH",
"917 574 OFFCURVE",
"916 577 OFFCURVE",
"915 578 CURVE",
"895 622 OFFCURVE",
"835 632 OFFCURVE",
"791 632 CURVE SMOOTH",
"754 632 OFFCURVE",
"716 626 OFFCURVE",
"680 615 CURVE SMOOTH",
"587 587 OFFCURVE",
"495 552 OFFCURVE",
"410 505 CURVE SMOOTH",
"223 400 OFFCURVE",
"17 197 OFFCURVE",
"17 -32 CURVE SMOOTH",
"17 -195 OFFCURVE",
"126 -285 OFFCURVE",
"284 -285 CURVE SMOOTH",
"374 -285 OFFCURVE",
"467 -258 OFFCURVE",
"550 -222 CURVE SMOOTH",
"834 -101 OFFCURVE",
"1079 72 OFFCURVE",
"1297 289 CURVE",
"1348 286 OFFCURVE",
"1400 285 OFFCURVE",
"1450 285 CURVE SMOOTH",
"1476 285 OFFCURVE",
"1501 285 OFFCURVE",
"1526 286 CURVE",
"1508 235 OFFCURVE",
"1494 179 OFFCURVE",
"1494 125 CURVE SMOOTH",
"1494 66 OFFCURVE",
"1512 13 OFFCURVE",
"1560 -25 CURVE",
"1564 -26 OFFCURVE",
"1566 -27 OFFCURVE",
"1570 -27 CURVE SMOOTH",
"1579 -27 OFFCURVE",
"1587 -19 OFFCURVE",
"1587 -10 CURVE SMOOTH",
"1587 5 OFFCURVE",
"1547 14 OFFCURVE",
"1547 88 CURVE SMOOTH",
"1547 152 OFFCURVE",
"1574 231 OFFCURVE",
"1600 290 CURVE",
"1621 293 OFFCURVE",
"1735 302 OFFCURVE",
"1735 332 CURVE SMOOTH",
"1735 337 OFFCURVE",
"1732 341 OFFCURVE",
"1726 341 CURVE SMOOTH",
"1724 341 OFFCURVE",
"1721 339 OFFCURVE",
"1720 339 CURVE",
"1685 326 OFFCURVE",
"1649 321 OFFCURVE",
"1612 319 CURVE",
"1636 374 OFFCURVE",
"1665 430 OFFCURVE",
"1695 483 CURVE",
"1770 499 OFFCURVE",
"2147 594 OFFCURVE",
"2147 692 CURVE SMOOTH",
"2147 756 OFFCURVE",
"1954 787 OFFCURVE",
"1903 797 CURVE"
);
},
{
closed = 1;
nodes = (
"2040 1039 OFFCURVE",
"2027 1025 OFFCURVE",
"2015 1010 CURVE SMOOTH",
"1959 945 OFFCURVE",
"1899 880 OFFCURVE",
"1845 812 CURVE",
"1835 814 OFFCURVE",
"1809 822 OFFCURVE",
"1809 836 CURVE SMOOTH",
"1809 846 OFFCURVE",
"1819 855 OFFCURVE",
"1826 862 CURVE SMOOTH",
"1874 906 OFFCURVE",
"1923 948 OFFCURVE",
"1972 990 CURVE SMOOTH",
"1997 1012 OFFCURVE",
"2023 1035 OFFCURVE",
"2052 1054 CURVE"
);
},
{
closed = 1;
nodes = (
"1911 752 OFFCURVE",
"1946 745 OFFCURVE",
"1982 737 CURVE SMOOTH",
"2006 730 OFFCURVE",
"2035 725 OFFCURVE",
"2058 716 CURVE SMOOTH",
"2068 711 OFFCURVE",
"2089 706 OFFCURVE",
"2089 690 CURVE SMOOTH",
"2089 684 OFFCURVE",
"2086 677 OFFCURVE",
"2083 672 CURVE",
"2040 591 OFFCURVE",
"1795 530 OFFCURVE",
"1712 512 CURVE",
"1763 597 OFFCURVE",
"1817 681 OFFCURVE",
"1876 761 CURVE"
);
},
{
closed = 1;
nodes = (
"1492 443 OFFCURVE",
"1550 453 OFFCURVE",
"1609 465 CURVE",
"1582 417 OFFCURVE",
"1557 366 OFFCURVE",
"1538 316 CURVE",
"1470 315 OFFCURVE",
"1401 320 OFFCURVE",
"1334 326 CURVE",
"1368 361 OFFCURVE",
"1400 397 OFFCURVE",
"1432 434 CURVE"
);
},
{
closed = 1;
nodes = (
"1097 370 OFFCURVE",
"1098 370 OFFCURVE",
"1098 370 CURVE",
"1116 378 OFFCURVE",
"1135 382 OFFCURVE",
"1154 386 CURVE SMOOTH",
"1217 400 OFFCURVE",
"1281 409 OFFCURVE",
"1346 419 CURVE",
"1317 391 OFFCURVE",
"1288 364 OFFCURVE",
"1259 335 CURVE",
"1210 343 OFFCURVE",
"1143 351 OFFCURVE",
"1098 369 CURVE",
"1098 369 OFFCURVE",
"1097 369 OFFCURVE",
"1097 369 CURVE"
);
}
);
};
layerId = "95C423A7-595F-441F-915A-E5EF8B5EF971";
paths = (
{
closed = 1;
nodes = (
"374 -285 OFFCURVE",
"467 -258 OFFCURVE",
"550 -222 CURVE SMOOTH",
"834 -101 OFFCURVE",
"1079 72 OFFCURVE",
"1297 289 CURVE",
"1351 286 OFFCURVE",
"1481 284 OFFCURVE",
"1526 286 CURVE",
"1508 235 OFFCURVE",
"1494 179 OFFCURVE",
"1494 125 CURVE SMOOTH",
"1494 66 OFFCURVE",
"1512 13 OFFCURVE",
"1560 -25 CURVE",
"1564 -26 OFFCURVE",
"1566 -27 OFFCURVE",
"1570 -27 CURVE SMOOTH",
"1579 -27 OFFCURVE",
"1587 -19 OFFCURVE",
"1587 -10 CURVE SMOOTH",
"1587 5 OFFCURVE",
"1547 14 OFFCURVE",
"1547 88 CURVE SMOOTH",
"1547 152 OFFCURVE",
"1574 231 OFFCURVE",
"1600 290 CURVE",
"1621 293 OFFCURVE",
"1735 302 OFFCURVE",
"1735 332 CURVE SMOOTH",
"1735 337 OFFCURVE",
"1732 341 OFFCURVE",
"1726 341 CURVE SMOOTH",
"1724 341 OFFCURVE",
"1721 339 OFFCURVE",
"1720 339 CURVE",
"1685 326 OFFCURVE",
"1649 321 OFFCURVE",
"1612 319 CURVE",
"1636 374 OFFCURVE",
"1665 430 OFFCURVE",
"1695 483 CURVE",
"1770 499 OFFCURVE",
"2147 594 OFFCURVE",
"2147 692 CURVE SMOOTH",
"2147 756 OFFCURVE",
"1954 787 OFFCURVE",
"1903 797 CURVE",
"1939 844 OFFCURVE",
"2166 1092 OFFCURVE",
"2166 1111 CURVE SMOOTH",
"2166 1129 OFFCURVE",
"2135 1138 OFFCURVE",
"2121 1138 CURVE SMOOTH",
"2105 1135 OFFCURVE",
"2108 1138 OFFCURVE",
"2075 1114 CURVE SMOOTH",
"1979 1043 OFFCURVE",
"1750 846 OFFCURVE",
"1750 814 CURVE SMOOTH",
"1750 788 OFFCURVE",
"1799 781 OFFCURVE",
"1817 777 CURVE",
"1747 686 OFFCURVE",
"1683 592 OFFCURVE",
"1626 494 CURVE",
"1572 484 OFFCURVE",
"1519 477 OFFCURVE",
"1465 472 CURVE",
"1568 594 OFFCURVE",
"1665 724 OFFCURVE",
"1748 859 CURVE SMOOTH",
"1754 866 OFFCURVE",
"1760 875 OFFCURVE",
"1760 881 CURVE SMOOTH",
"1760 888 OFFCURVE",
"1754 890 OFFCURVE",
"1748 890 CURVE SMOOTH",
"1739 890 OFFCURVE",
"1732 886 OFFCURVE",
"1728 880 CURVE SMOOTH",
"1701 837 LINE SMOOTH",
"1679 804 OFFCURVE",
"1654 773 OFFCURVE",
"1630 742 CURVE SMOOTH",
"1556 645 OFFCURVE",
"1475 552 OFFCURVE",
"1390 465 CURVE",
"1310 458 OFFCURVE",
"991 437 OFFCURVE",
"939 415 CURVE SMOOTH",
"930 412 OFFCURVE",
"914 405 OFFCURVE",
"914 391 CURVE SMOOTH",
"914 357 OFFCURVE",
"1034 324 OFFCURVE",
"1072 315 CURVE SMOOTH",
"1119 305 OFFCURVE",
"1168 299 OFFCURVE",
"1214 295 CURVE",
"1008 106 OFFCURVE",
"569 -249 OFFCURVE",
"268 -249 CURVE SMOOTH",
"142 -249 OFFCURVE",
"59 -182 OFFCURVE",
"59 -53 CURVE SMOOTH",
"59 165 OFFCURVE",
"267 375 OFFCURVE",
"443 479 CURVE SMOOTH",
"537 535 OFFCURVE",
"693 600 OFFCURVE",
"791 600 CURVE SMOOTH",
"822 600 OFFCURVE",
"867 594 OFFCURVE",
"885 566 CURVE SMOOTH",
"889 560 OFFCURVE",
"892 556 OFFCURVE",
"899 556 CURVE SMOOTH",
"908 556 OFFCURVE",
"920 563 OFFCURVE",
"916 574 CURVE SMOOTH",
"905 615 OFFCURVE",
"844 632 OFFCURVE",
"791 632 CURVE SMOOTH",
"689 632 OFFCURVE",
"517 565 OFFCURVE",
"410 505 CURVE SMOOTH",
"223 400 OFFCURVE",
"17 197 OFFCURVE",
"17 -32 CURVE SMOOTH",
"17 -195 OFFCURVE",
"126 -285 OFFCURVE",
"284 -285 CURVE SMOOTH"
);
},
{
closed = 1;
nodes = (
"1210 343 OFFCURVE",
"1114 359 OFFCURVE",
"1098 370 CURVE",
"1134 386 OFFCURVE",
"1241 403 OFFCURVE",
"1346 419 CURVE",
"1317 391 OFFCURVE",
"1288 364 OFFCURVE",
"1259 335 CURVE"
);
},
{
closed = 1;
nodes = (
"1470 315 OFFCURVE",
"1401 320 OFFCURVE",
"1334 326 CURVE",
"1368 361 OFFCURVE",
"1400 397 OFFCURVE",
"1432 434 CURVE",
"1492 443 OFFCURVE",
"1550 453 OFFCURVE",
"1609 465 CURVE",
"1582 417 OFFCURVE",
"1557 366 OFFCURVE",
"1538 316 CURVE"
);
},
{
closed = 1;
nodes = (
"1763 597 OFFCURVE",
"1817 681 OFFCURVE",
"1876 761 CURVE",
"1907 754 OFFCURVE",
"2030 726 OFFCURVE",
"2058 716 CURVE SMOOTH",
"2068 711 OFFCURVE",
"2089 706 OFFCURVE",
"2089 690 CURVE SMOOTH",
"2089 608 OFFCURVE",
"1805 533 OFFCURVE",
"1712 512 CURVE"
);
},
{
closed = 1;
nodes = (
"1835 814 OFFCURVE",
"1809 822 OFFCURVE",
"1809 836 CURVE SMOOTH",
"1809 854 OFFCURVE",
"1876 907 OFFCURVE",
"1923 948 CURVE SMOOTH",
"1960 982 OFFCURVE",
"2023 1035 OFFCURVE",
"2052 1054 CURVE",
"2040 1039 OFFCURVE",
"2027 1025 OFFCURVE",
"2015 1010 CURVE SMOOTH",
"1959 945 OFFCURVE",
"1899 880 OFFCURVE",
"1845 812 CURVE"
);
}
);
width = 1815;
}
);
note = A;
unicode = 0041;
},
{
color = 11;
glyphname = Aacute;
lastChange = "2021-09-15 03:21:52 +0000";
layers = (
{
background = {
paths = (
{
closed = 1;
nodes = (
"2160 1206 OFFCURVE",
"2164 1208 OFFCURVE",
"2168 1210 CURVE SMOOTH",
"2227 1245 OFFCURVE",
"2288 1276 OFFCURVE",
"2348 1308 CURVE SMOOTH",
"2364 1316 OFFCURVE",
"2392 1333 OFFCURVE",
"2392 1354 CURVE SMOOTH",
"2392 1368 OFFCURVE",
"2374 1374 OFFCURVE",
"2363 1374 CURVE SMOOTH",
"2339 1374 OFFCURVE",
"2319 1361 OFFCURVE",
"2303 1347 CURVE SMOOTH",
"2281 1328 OFFCURVE",
"2148 1236 OFFCURVE",
"2148 1215 CURVE SMOOTH",
"2148 1210 OFFCURVE",
"2151 1206 OFFCURVE",
"2156 1206 CURVE SMOOTH"
);
},
{
closed = 1;
nodes = (
"1939 844 OFFCURVE",
"2166 1092 OFFCURVE",
"2166 1111 CURVE SMOOTH",
"2166 1129 OFFCURVE",
"2135 1138 OFFCURVE",
"2121 1138 CURVE SMOOTH",
"2119 1138 OFFCURVE",
"2116 1138 OFFCURVE",
"2112 1138 CURVE",
"2070 1121 OFFCURVE",
"1791 879 OFFCURVE",
"1759 835 CURVE SMOOTH",
"1755 828 OFFCURVE",
"1750 822 OFFCURVE",
"1750 814 CURVE SMOOTH",
"1750 788 OFFCURVE",
"1799 781 OFFCURVE",
"1817 777 CURVE",
"1747 686 OFFCURVE",
"1683 592 OFFCURVE",
"1626 494 CURVE",
"1572 484 OFFCURVE",
"1519 477 OFFCURVE",
"1465 472 CURVE",
"1572 597 OFFCURVE",
"1671 733 OFFCURVE",
"1757 874 CURVE",
"1759 875 OFFCURVE",
"1760 879 OFFCURVE",
"1760 881 CURVE SMOOTH",
"1760 888 OFFCURVE",
"1754 890 OFFCURVE",
"1748 890 CURVE SMOOTH",
"1739 890 OFFCURVE",
"1733 886 OFFCURVE",
"1728 880 CURVE SMOOTH",
"1719 866 OFFCURVE",
"1710 852 OFFCURVE",
"1701 837 CURVE SMOOTH",
"1677 805 OFFCURVE",
"1654 773 OFFCURVE",
"1630 742 CURVE SMOOTH",
"1556 645 OFFCURVE",
"1475 552 OFFCURVE",
"1390 465 CURVE",
"1310 458 OFFCURVE",
"991 437 OFFCURVE",
"939 415 CURVE SMOOTH",
"930 412 OFFCURVE",
"914 405 OFFCURVE",
"914 391 CURVE SMOOTH",
"914 387 OFFCURVE",
"915 382 OFFCURVE",
"917 379 CURVE SMOOTH",
"941 351 OFFCURVE",
"1036 323 OFFCURVE",
"1072 315 CURVE SMOOTH",
"1119 305 OFFCURVE",
"1168 299 OFFCURVE",
"1214 295 CURVE",
"1008 106 OFFCURVE",
"569 -249 OFFCURVE",
"268 -249 CURVE SMOOTH",
"142 -249 OFFCURVE",
"59 -182 OFFCURVE",
"59 -53 CURVE SMOOTH",
"59 165 OFFCURVE",
"267 375 OFFCURVE",
"443 479 CURVE SMOOTH",
"520 525 OFFCURVE",
"603 559 OFFCURVE",
"689 585 CURVE SMOOTH",
"723 594 OFFCURVE",
"757 600 OFFCURVE",
"791 600 CURVE SMOOTH",
"822 600 OFFCURVE",
"867 594 OFFCURVE",
"885 566 CURVE SMOOTH",
"889 560 OFFCURVE",
"892 556 OFFCURVE",
"899 556 CURVE SMOOTH",
"908 556 OFFCURVE",
"917 563 OFFCURVE",
"917 572 CURVE SMOOTH",
"917 574 OFFCURVE",
"916 577 OFFCURVE",
"915 578 CURVE",
"895 622 OFFCURVE",
"835 632 OFFCURVE",
"791 632 CURVE SMOOTH",
"754 632 OFFCURVE",
"716 626 OFFCURVE",
"680 615 CURVE SMOOTH",
"587 587 OFFCURVE",
"495 552 OFFCURVE",
"410 505 CURVE SMOOTH",
"223 400 OFFCURVE",
"17 197 OFFCURVE",
"17 -32 CURVE SMOOTH",
"17 -195 OFFCURVE",
"126 -285 OFFCURVE",
"284 -285 CURVE SMOOTH",
"374 -285 OFFCURVE",
"467 -258 OFFCURVE",
"550 -222 CURVE SMOOTH",
"834 -101 OFFCURVE",
"1079 72 OFFCURVE",
"1297 289 CURVE",
"1348 286 OFFCURVE",
"1400 285 OFFCURVE",
"1450 285 CURVE SMOOTH",
"1476 285 OFFCURVE",
"1501 285 OFFCURVE",
"1526 286 CURVE",
"1508 235 OFFCURVE",
"1494 179 OFFCURVE",
"1494 125 CURVE SMOOTH",
"1494 66 OFFCURVE",
"1512 13 OFFCURVE",
"1560 -25 CURVE",
"1564 -26 OFFCURVE",
"1566 -27 OFFCURVE",
"1570 -27 CURVE SMOOTH",
"1579 -27 OFFCURVE",
"1587 -19 OFFCURVE",
"1587 -10 CURVE SMOOTH",
"1587 5 OFFCURVE",
"1547 14 OFFCURVE",
"1547 88 CURVE SMOOTH",
"1547 152 OFFCURVE",
"1574 231 OFFCURVE",
"1600 290 CURVE",
"1621 293 OFFCURVE",
"1735 302 OFFCURVE",
"1735 332 CURVE SMOOTH",
"1735 337 OFFCURVE",
"1732 341 OFFCURVE",
"1726 341 CURVE SMOOTH",
"1724 341 OFFCURVE",
"1721 339 OFFCURVE",
"1720 339 CURVE",
"1685 326 OFFCURVE",
"1649 321 OFFCURVE",
"1612 319 CURVE",
"1636 374 OFFCURVE",
"1665 430 OFFCURVE",
"1695 483 CURVE",
"1770 499 OFFCURVE",
"2147 594 OFFCURVE",
"2147 692 CURVE SMOOTH",
"2147 756 OFFCURVE",
"1954 787 OFFCURVE",
"1903 797 CURVE"
);
},
{
closed = 1;
nodes = (
"2040 1039 OFFCURVE",
"2027 1025 OFFCURVE",
"2015 1010 CURVE SMOOTH",
"1959 945 OFFCURVE",
"1899 880 OFFCURVE",
"1845 812 CURVE",
"1835 814 OFFCURVE",
"1809 822 OFFCURVE",
"1809 836 CURVE SMOOTH",
"1809 846 OFFCURVE",
"1819 855 OFFCURVE",
"1826 862 CURVE SMOOTH",
"1874 906 OFFCURVE",
"1923 948 OFFCURVE",
"1972 990 CURVE SMOOTH",
"1997 1012 OFFCURVE",
"2023 1035 OFFCURVE",
"2052 1054 CURVE"
);
},
{
closed = 1;
nodes = (
"1911 752 OFFCURVE",
"1946 745 OFFCURVE",
"1982 737 CURVE SMOOTH",
"2006 730 OFFCURVE",
"2035 725 OFFCURVE",
"2058 716 CURVE SMOOTH",
"2068 711 OFFCURVE",
"2089 706 OFFCURVE",
"2089 690 CURVE SMOOTH",
"2089 684 OFFCURVE",
"2086 677 OFFCURVE",
"2083 672 CURVE",
"2040 591 OFFCURVE",
"1795 530 OFFCURVE",
"1712 512 CURVE",
"1763 597 OFFCURVE",
"1817 681 OFFCURVE",
"1876 761 CURVE"
);
},
{
closed = 1;
nodes = (
"1492 443 OFFCURVE",
"1550 453 OFFCURVE",
"1609 465 CURVE",
"1582 417 OFFCURVE",
"1557 366 OFFCURVE",
"1538 316 CURVE",
"1470 315 OFFCURVE",
"1401 320 OFFCURVE",
"1334 326 CURVE",
"1368 361 OFFCURVE",
"1400 397 OFFCURVE",
"1432 434 CURVE"
);
},
{
closed = 1;
nodes = (
"1097 370 OFFCURVE",
"1098 370 OFFCURVE",
"1098 370 CURVE",
"1116 378 OFFCURVE",
"1135 382 OFFCURVE",
"1154 386 CURVE SMOOTH",
"1217 400 OFFCURVE",
"1281 409 OFFCURVE",
"1346 419 CURVE",
"1317 391 OFFCURVE",
"1288 364 OFFCURVE",
"1259 335 CURVE",
"1210 343 OFFCURVE",
"1143 351 OFFCURVE",
"1098 369 CURVE",
"1098 369 OFFCURVE",
"1097 369 OFFCURVE",
"1097 369 CURVE"
);
}
);
};
layerId = "95C423A7-595F-441F-915A-E5EF8B5EF971";
paths = (
{
closed = 1;
nodes = (
"374 -285 OFFCURVE",
"467 -258 OFFCURVE",
"550 -222 CURVE SMOOTH",
"834 -101 OFFCURVE",
"1079 72 OFFCURVE",
"1297 289 CURVE",
"1348 286 OFFCURVE",
"1400 285 OFFCURVE",
"1450 285 CURVE SMOOTH",
"1476 285 OFFCURVE",
"1501 285 OFFCURVE",
"1526 286 CURVE",
"1508 235 OFFCURVE",
"1494 179 OFFCURVE",
"1494 125 CURVE SMOOTH",
"1494 66 OFFCURVE",
"1512 13 OFFCURVE",
"1560 -25 CURVE",
"1564 -26 OFFCURVE",
"1566 -27 OFFCURVE",
"1570 -27 CURVE SMOOTH",
"1579 -27 OFFCURVE",
"1587 -19 OFFCURVE",
"1587 -10 CURVE SMOOTH",
"1587 5 OFFCURVE",
"1547 14 OFFCURVE",
"1547 88 CURVE SMOOTH",
"1547 152 OFFCURVE",
"1574 231 OFFCURVE",
"1600 290 CURVE",
"1621 293 OFFCURVE",
"1735 302 OFFCURVE",
"1735 332 CURVE SMOOTH",
"1735 337 OFFCURVE",
"1732 341 OFFCURVE",
"1726 341 CURVE SMOOTH",
"1724 341 OFFCURVE",
"1721 339 OFFCURVE",
"1720 339 CURVE",
"1685 326 OFFCURVE",
"1649 321 OFFCURVE",
"1612 319 CURVE",
"1636 374 OFFCURVE",
"1665 430 OFFCURVE",
"1695 483 CURVE",
"1770 499 OFFCURVE",
"2147 594 OFFCURVE",
"2147 692 CURVE SMOOTH",
"2147 756 OFFCURVE",
"1954 787 OFFCURVE",
"1903 797 CURVE",
"1939 844 OFFCURVE",
"2166 1092 OFFCURVE",
"2166 1111 CURVE SMOOTH",
"2166 1129 OFFCURVE",
"2135 1138 OFFCURVE",
"2121 1138 CURVE SMOOTH",
"2112 1138 LINE",
"2070 1121 OFFCURVE",
"1791 879 OFFCURVE",
"1759 835 CURVE SMOOTH",
"1755 828 OFFCURVE",
"1750 822 OFFCURVE",
"1750 814 CURVE SMOOTH",
"1750 788 OFFCURVE",
"1799 781 OFFCURVE",
"1817 777 CURVE",
"1747 686 OFFCURVE",
"1683 592 OFFCURVE",
"1626 494 CURVE",
"1572 484 OFFCURVE",
"1519 477 OFFCURVE",
"1465 472 CURVE",
"1572 597 OFFCURVE",
"1671 733 OFFCURVE",
"1757 874 CURVE",
"1759 875 OFFCURVE",
"1760 879 OFFCURVE",
"1760 881 CURVE SMOOTH",
"1760 888 OFFCURVE",
"1754 890 OFFCURVE",
"1748 890 CURVE SMOOTH",
"1739 890 OFFCURVE",
"1733 886 OFFCURVE",
"1728 880 CURVE SMOOTH",
"1701 837 LINE SMOOTH",
"1677 805 OFFCURVE",
"1654 773 OFFCURVE",
"1630 742 CURVE SMOOTH",
"1556 645 OFFCURVE",
"1475 552 OFFCURVE",
"1390 465 CURVE",
"1310 458 OFFCURVE",
"991 437 OFFCURVE",
"939 415 CURVE SMOOTH",
"930 412 OFFCURVE",
"914 405 OFFCURVE",
"914 391 CURVE SMOOTH",
"914 387 OFFCURVE",
"915 382 OFFCURVE",
"917 379 CURVE SMOOTH",
"941 351 OFFCURVE",
"1036 323 OFFCURVE",
"1072 315 CURVE SMOOTH",
"1119 305 OFFCURVE",
"1168 299 OFFCURVE",
"1214 295 CURVE",
"1008 106 OFFCURVE",
"569 -249 OFFCURVE",
"268 -249 CURVE SMOOTH",
"142 -249 OFFCURVE",
"59 -182 OFFCURVE",
"59 -53 CURVE SMOOTH",
"59 165 OFFCURVE",
"267 375 OFFCURVE",
"443 479 CURVE SMOOTH",
"520 525 OFFCURVE",
"603 559 OFFCURVE",
"689 585 CURVE SMOOTH",
"723 594 OFFCURVE",
"757 600 OFFCURVE",
"791 600 CURVE SMOOTH",
"822 600 OFFCURVE",
"867 594 OFFCURVE",
"885 566 CURVE SMOOTH",
"889 560 OFFCURVE",
"892 556 OFFCURVE",
"899 556 CURVE SMOOTH",
"908 556 OFFCURVE",
"917 563 OFFCURVE",
"917 572 CURVE SMOOTH",
"917 574 OFFCURVE",
"916 577 OFFCURVE",
"915 578 CURVE",
"895 622 OFFCURVE",
"835 632 OFFCURVE",
"791 632 CURVE SMOOTH",
"754 632 OFFCURVE",
"716 626 OFFCURVE",
"680 615 CURVE SMOOTH",
"587 587 OFFCURVE",
"495 552 OFFCURVE",
"410 505 CURVE SMOOTH",
"223 400 OFFCURVE",
"17 197 OFFCURVE",
"17 -32 CURVE SMOOTH",
"17 -195 OFFCURVE",
"126 -285 OFFCURVE",
"284 -285 CURVE SMOOTH"
);
},
{
closed = 1;
nodes = (
"1210 343 OFFCURVE",
"1143 351 OFFCURVE",
"1098 369 CURVE",
"1097 369 LINE",
"1097 370 OFFCURVE",
"1098 370 OFFCURVE",
"1098 370 CURVE",
"1116 378 OFFCURVE",
"1135 382 OFFCURVE",
"1154 386 CURVE SMOOTH",
"1217 400 OFFCURVE",
"1281 409 OFFCURVE",
"1346 419 CURVE",
"1317 391 OFFCURVE",
"1288 364 OFFCURVE",
"1259 335 CURVE"
);
},
{
closed = 1;
nodes = (
"1470 315 OFFCURVE",
"1401 320 OFFCURVE",
"1334 326 CURVE",
"1368 361 OFFCURVE",
"1400 397 OFFCURVE",
"1432 434 CURVE",
"1492 443 OFFCURVE",
"1550 453 OFFCURVE",
"1609 465 CURVE",
"1582 417 OFFCURVE",
"1557 366 OFFCURVE",
"1538 316 CURVE"
);
},
{
closed = 1;
nodes = (
"1763 597 OFFCURVE",
"1817 681 OFFCURVE",
"1876 761 CURVE",
"1911 752 OFFCURVE",
"1946 745 OFFCURVE",
"1982 737 CURVE SMOOTH",
"2006 730 OFFCURVE",
"2035 725 OFFCURVE",
"2058 716 CURVE SMOOTH",
"2068 711 OFFCURVE",
"2089 706 OFFCURVE",
"2089 690 CURVE SMOOTH",
"2089 684 OFFCURVE",
"2086 677 OFFCURVE",
"2083 672 CURVE",
"2040 591 OFFCURVE",
"1795 530 OFFCURVE",
"1712 512 CURVE"
);
},
{
closed = 1;
nodes = (
"1835 814 OFFCURVE",
"1809 822 OFFCURVE",
"1809 836 CURVE SMOOTH",
"1809 846 OFFCURVE",
"1819 855 OFFCURVE",
"1826 862 CURVE SMOOTH",
"1874 906 OFFCURVE",
"1923 948 OFFCURVE",
"1972 990 CURVE SMOOTH",
"1997 1012 OFFCURVE",
"2023 1035 OFFCURVE",
"2052 1054 CURVE",
"2040 1039 OFFCURVE",
"2027 1025 OFFCURVE",
"2015 1010 CURVE SMOOTH",
"1959 945 OFFCURVE",
"1899 880 OFFCURVE",
"1845 812 CURVE"
);
},
{
closed = 1;
nodes = (
"2160 1206 OFFCURVE",
"2164 1208 OFFCURVE",
"2168 1210 CURVE SMOOTH",
"2227 1245 OFFCURVE",
"2288 1276 OFFCURVE",
"2348 1308 CURVE SMOOTH",
"2364 1316 OFFCURVE",
"2392 1333 OFFCURVE",
"2392 1354 CURVE SMOOTH",
"2392 1368 OFFCURVE",
"2374 1374 OFFCURVE",
"2363 1374 CURVE SMOOTH",
"2339 1374 OFFCURVE",
"2319 1361 OFFCURVE",
"2303 1347 CURVE SMOOTH",
"2281 1328 OFFCURVE",
"2148 1236 OFFCURVE",
"2148 1215 CURVE SMOOTH",
"2148 1210 OFFCURVE",
"2151 1206 OFFCURVE",
"2156 1206 CURVE SMOOTH"
);
}
);
width = 1815;
}
);
note = Aacute;
unicode = 00C1;
},
{
color = 11;
glyphname = Adieresis;
lastChange = "2021-09-15 03:21:52 +0000";
layers = (
{
background = {
paths = (
{
closed = 1;
nodes = (
"2135 1372 LINE",
"2134 1374 OFFCURVE",
"2133 1374 OFFCURVE",
"2132 1374 CURVE SMOOTH",
"2107 1374 OFFCURVE",
"2034 1328 OFFCURVE",
"2034 1299 CURVE SMOOTH",
"2034 1288 OFFCURVE",
"2048 1262 OFFCURVE",
"2061 1262 CURVE SMOOTH",
"2080 1262 OFFCURVE",
"2094 1289 OFFCURVE",
"2098 1305 CURVE SMOOTH",
"2103 1320 OFFCURVE",
"2108 1335 OFFCURVE",
"2117 1348 CURVE",
"2119 1352 OFFCURVE",
"2135 1369 OFFCURVE",
"2135 1370 CURVE SMOOTH",
"2135 1373 LINE"
);
},
{
closed = 1;
nodes = (
"2292 1372 LINE",
"2290 1374 OFFCURVE",
"2289 1374 OFFCURVE",
"2288 1374 CURVE SMOOTH",
"2263 1374 OFFCURVE",
"2190 1328 OFFCURVE",
"2190 1299 CURVE SMOOTH",
"2190 1288 OFFCURVE",
"2204 1262 OFFCURVE",
"2217 1262 CURVE SMOOTH",
"2236 1262 OFFCURVE",
"2250 1289 OFFCURVE",
"2254 1305 CURVE SMOOTH",
"2259 1320 OFFCURVE",
"2265 1335 OFFCURVE",
"2274 1348 CURVE",
"2275 1352 OFFCURVE",
"2292 1369 OFFCURVE",
"2292 1370 CURVE SMOOTH",
"2292 1373 LINE"
);
},
{
closed = 1;
nodes = (
"1939 844 OFFCURVE",
"2166 1092 OFFCURVE",
"2166 1111 CURVE SMOOTH",
"2166 1129 OFFCURVE",
"2135 1138 OFFCURVE",
"2121 1138 CURVE SMOOTH",
"2119 1138 OFFCURVE",
"2116 1138 OFFCURVE",
"2112 1138 CURVE",
"2070 1121 OFFCURVE",
"1791 879 OFFCURVE",
"1759 835 CURVE SMOOTH",
"1755 828 OFFCURVE",
"1750 822 OFFCURVE",
"1750 814 CURVE SMOOTH",
"1750 788 OFFCURVE",
"1799 781 OFFCURVE",
"1817 777 CURVE",
"1747 686 OFFCURVE",
"1683 592 OFFCURVE",
"1626 494 CURVE",
"1572 484 OFFCURVE",
"1519 477 OFFCURVE",
"1465 472 CURVE",
"1572 597 OFFCURVE",
"1671 733 OFFCURVE",
"1757 874 CURVE",
"1759 875 OFFCURVE",
"1760 879 OFFCURVE",
"1760 881 CURVE SMOOTH",
"1760 888 OFFCURVE",
"1754 890 OFFCURVE",
"1748 890 CURVE SMOOTH",
"1739 890 OFFCURVE",
"1733 886 OFFCURVE",
"1728 880 CURVE SMOOTH",
"1719 866 OFFCURVE",
"1710 852 OFFCURVE",
"1701 837 CURVE SMOOTH",
"1677 805 OFFCURVE",
"1654 773 OFFCURVE",
"1630 742 CURVE SMOOTH",
"1556 645 OFFCURVE",
"1475 552 OFFCURVE",
"1390 465 CURVE",
"1310 458 OFFCURVE",
"991 437 OFFCURVE",
"939 415 CURVE SMOOTH",
"930 412 OFFCURVE",
"914 405 OFFCURVE",
"914 391 CURVE SMOOTH",
"914 387 OFFCURVE",
"915 382 OFFCURVE",
"917 379 CURVE SMOOTH",
"941 351 OFFCURVE",
"1036 323 OFFCURVE",
"1072 315 CURVE SMOOTH",
"1119 305 OFFCURVE",
"1168 299 OFFCURVE",
"1214 295 CURVE",
"1008 106 OFFCURVE",
"569 -249 OFFCURVE",
"268 -249 CURVE SMOOTH",
"142 -249 OFFCURVE",
"59 -182 OFFCURVE",
"59 -53 CURVE SMOOTH",
"59 165 OFFCURVE",
"267 375 OFFCURVE",
"443 479 CURVE SMOOTH",
"520 525 OFFCURVE",
"603 559 OFFCURVE",
"689 585 CURVE SMOOTH",
"723 594 OFFCURVE",
"757 600 OFFCURVE",
"791 600 CURVE SMOOTH",
"822 600 OFFCURVE",
"867 594 OFFCURVE",
"885 566 CURVE SMOOTH",
"889 560 OFFCURVE",
"892 556 OFFCURVE",
"899 556 CURVE SMOOTH",
"908 556 OFFCURVE",
"917 563 OFFCURVE",
"917 572 CURVE SMOOTH",
"917 574 OFFCURVE",
"916 577 OFFCURVE",
"915 578 CURVE",
"895 622 OFFCURVE",
"835 632 OFFCURVE",
"791 632 CURVE SMOOTH",
"754 632 OFFCURVE",
"716 626 OFFCURVE",
"680 615 CURVE SMOOTH",
"587 587 OFFCURVE",
"495 552 OFFCURVE",
"410 505 CURVE SMOOTH",
"223 400 OFFCURVE",
"17 197 OFFCURVE",
"17 -32 CURVE SMOOTH",
"17 -195 OFFCURVE",
"126 -285 OFFCURVE",
"284 -285 CURVE SMOOTH",
"374 -285 OFFCURVE",
"467 -258 OFFCURVE",
"550 -222 CURVE SMOOTH",
"834 -101 OFFCURVE",
"1079 72 OFFCURVE",
"1297 289 CURVE",
"1348 286 OFFCURVE",
"1400 285 OFFCURVE",
"1450 285 CURVE SMOOTH",
"1476 285 OFFCURVE",
"1501 285 OFFCURVE",
"1526 286 CURVE",
"1508 235 OFFCURVE",
"1494 179 OFFCURVE",
"1494 125 CURVE SMOOTH",
"1494 66 OFFCURVE",
"1512 13 OFFCURVE",
"1560 -25 CURVE",
"1564 -26 OFFCURVE",
"1566 -27 OFFCURVE",
"1570 -27 CURVE SMOOTH",
"1579 -27 OFFCURVE",
"1587 -19 OFFCURVE",
"1587 -10 CURVE SMOOTH",
"1587 5 OFFCURVE",
"1547 14 OFFCURVE",
"1547 88 CURVE SMOOTH",
"1547 152 OFFCURVE",
"1574 231 OFFCURVE",
"1600 290 CURVE",
"1621 293 OFFCURVE",
"1735 302 OFFCURVE",
"1735 332 CURVE SMOOTH",
"1735 337 OFFCURVE",
"1732 341 OFFCURVE",
"1726 341 CURVE SMOOTH",
"1724 341 OFFCURVE",
"1721 339 OFFCURVE",
"1720 339 CURVE",
"1685 326 OFFCURVE",
"1649 321 OFFCURVE",
"1612 319 CURVE",
"1636 374 OFFCURVE",
"1665 430 OFFCURVE",
"1695 483 CURVE",
"1770 499 OFFCURVE",
"2147 594 OFFCURVE",
"2147 692 CURVE SMOOTH",
"2147 756 OFFCURVE",
"1954 787 OFFCURVE",
"1903 797 CURVE"
);
},
{
closed = 1;
nodes = (
"2040 1039 OFFCURVE",
"2027 1025 OFFCURVE",
"2015 1010 CURVE SMOOTH",
"1959 945 OFFCURVE",
"1899 880 OFFCURVE",
"1845 812 CURVE",
"1835 814 OFFCURVE",
"1809 822 OFFCURVE",
"1809 836 CURVE SMOOTH",
"1809 846 OFFCURVE",
"1819 855 OFFCURVE",
"1826 862 CURVE SMOOTH",
"1874 906 OFFCURVE",
"1923 948 OFFCURVE",
"1972 990 CURVE SMOOTH",
"1997 1012 OFFCURVE",
"2023 1035 OFFCURVE",
"2052 1054 CURVE"
);
},
{
closed = 1;
nodes = (
"1911 752 OFFCURVE",
"1946 745 OFFCURVE",
"1982 737 CURVE SMOOTH",
"2006 730 OFFCURVE",
"2035 725 OFFCURVE",
"2058 716 CURVE SMOOTH",
"2068 711 OFFCURVE",
"2089 706 OFFCURVE",
"2089 690 CURVE SMOOTH",
"2089 684 OFFCURVE",
"2086 677 OFFCURVE",
"2083 672 CURVE",
"2040 591 OFFCURVE",
"1795 530 OFFCURVE",
"1712 512 CURVE",
"1763 597 OFFCURVE",
"1817 681 OFFCURVE",
"1876 761 CURVE"
);
},
{
closed = 1;
nodes = (
"1492 443 OFFCURVE",
"1550 453 OFFCURVE",
"1609 465 CURVE",
"1582 417 OFFCURVE",
"1557 366 OFFCURVE",
"1538 316 CURVE",
"1470 315 OFFCURVE",
"1401 320 OFFCURVE",
"1334 326 CURVE",
"1368 361 OFFCURVE",
"1400 397 OFFCURVE",
"1432 434 CURVE"
);
},
{
closed = 1;
nodes = (
"1097 370 OFFCURVE",
"1098 370 OFFCURVE",
"1098 370 CURVE",
"1116 378 OFFCURVE",
"1135 382 OFFCURVE",
"1154 386 CURVE SMOOTH",
"1217 400 OFFCURVE",
"1281 409 OFFCURVE",
"1346 419 CURVE",
"1317 391 OFFCURVE",
"1288 364 OFFCURVE",
"1259 335 CURVE",
"1210 343 OFFCURVE",
"1143 351 OFFCURVE",
"1098 369 CURVE",
"1098 369 OFFCURVE",
"1097 369 OFFCURVE",
"1097 369 CURVE"
);
}
);
};
layerId = "95C423A7-595F-441F-915A-E5EF8B5EF971";
paths = (
{
closed = 1;
nodes = (
"374 -285 OFFCURVE",
"467 -258 OFFCURVE",
"550 -222 CURVE SMOOTH",
"834 -101 OFFCURVE",
"1079 72 OFFCURVE",
"1297 289 CURVE",
"1348 286 OFFCURVE",
"1400 285 OFFCURVE",
"1450 285 CURVE SMOOTH",
"1476 285 OFFCURVE",
"1501 285 OFFCURVE",
"1526 286 CURVE",
"1508 235 OFFCURVE",
"1494 179 OFFCURVE",
"1494 125 CURVE SMOOTH",
"1494 66 OFFCURVE",
"1512 13 OFFCURVE",
"1560 -25 CURVE",
"1564 -26 OFFCURVE",
"1566 -27 OFFCURVE",
"1570 -27 CURVE SMOOTH",
"1579 -27 OFFCURVE",
"1587 -19 OFFCURVE",
"1587 -10 CURVE SMOOTH",
"1587 5 OFFCURVE",
"1547 14 OFFCURVE",
"1547 88 CURVE SMOOTH",
"1547 152 OFFCURVE",
"1574 231 OFFCURVE",
"1600 290 CURVE",
"1621 293 OFFCURVE",
"1735 302 OFFCURVE",
"1735 332 CURVE SMOOTH",
"1735 337 OFFCURVE",
"1732 341 OFFCURVE",
"1726 341 CURVE SMOOTH",
"1724 341 OFFCURVE",
"1721 339 OFFCURVE",
"1720 339 CURVE",
"1685 326 OFFCURVE",
"1649 321 OFFCURVE",
"1612 319 CURVE",
"1636 374 OFFCURVE",
"1665 430 OFFCURVE",
"1695 483 CURVE",
"1770 499 OFFCURVE",
"2147 594 OFFCURVE",
"2147 692 CURVE SMOOTH",
"2147 756 OFFCURVE",
"1954 787 OFFCURVE",
"1903 797 CURVE",
"1939 844 OFFCURVE",
"2166 1092 OFFCURVE",
"2166 1111 CURVE SMOOTH",
"2166 1129 OFFCURVE",
"2135 1138 OFFCURVE",
"2121 1138 CURVE SMOOTH",
"2112 1138 LINE",
"2070 1121 OFFCURVE",
"1791 879 OFFCURVE",
"1759 835 CURVE SMOOTH",
"1755 828 OFFCURVE",
"1750 822 OFFCURVE",
"1750 814 CURVE SMOOTH",
"1750 788 OFFCURVE",
"1799 781 OFFCURVE",
"1817 777 CURVE",
"1747 686 OFFCURVE",
"1683 592 OFFCURVE",
"1626 494 CURVE",
"1572 484 OFFCURVE",
"1519 477 OFFCURVE",
"1465 472 CURVE",
"1572 597 OFFCURVE",
"1671 733 OFFCURVE",
"1757 874 CURVE",
"1759 875 OFFCURVE",
"1760 879 OFFCURVE",
"1760 881 CURVE SMOOTH",
"1760 888 OFFCURVE",
"1754 890 OFFCURVE",
"1748 890 CURVE SMOOTH",
"1739 890 OFFCURVE",
"1733 886 OFFCURVE",
"1728 880 CURVE SMOOTH",
"1701 837 LINE SMOOTH",
"1677 805 OFFCURVE",
"1654 773 OFFCURVE",
"1630 742 CURVE SMOOTH",
"1556 645 OFFCURVE",
"1475 552 OFFCURVE",
"1390 465 CURVE",
"1310 458 OFFCURVE",
"991 437 OFFCURVE",
"939 415 CURVE SMOOTH",
"930 412 OFFCURVE",
"914 405 OFFCURVE",
"914 391 CURVE SMOOTH",
"914 387 OFFCURVE",
"915 382 OFFCURVE",
"917 379 CURVE SMOOTH",
"941 351 OFFCURVE",
"1036 323 OFFCURVE",
"1072 315 CURVE SMOOTH",
"1119 305 OFFCURVE",
"1168 299 OFFCURVE",
"1214 295 CURVE",
"1008 106 OFFCURVE",
"569 -249 OFFCURVE",
"268 -249 CURVE SMOOTH",
"142 -249 OFFCURVE",
"59 -182 OFFCURVE",
"59 -53 CURVE SMOOTH",
"59 165 OFFCURVE",
"267 375 OFFCURVE",
"443 479 CURVE SMOOTH",
"520 525 OFFCURVE",
"603 559 OFFCURVE",
"689 585 CURVE SMOOTH",
"723 594 OFFCURVE",
"757 600 OFFCURVE",
"791 600 CURVE SMOOTH",
"822 600 OFFCURVE",
"867 594 OFFCURVE",
"885 566 CURVE SMOOTH",
"889 560 OFFCURVE",
"892 556 OFFCURVE",
"899 556 CURVE SMOOTH",
"908 556 OFFCURVE",
"917 563 OFFCURVE",
"917 572 CURVE SMOOTH",
"917 574 OFFCURVE",
"916 577 OFFCURVE",
"915 578 CURVE",
"895 622 OFFCURVE",
"835 632 OFFCURVE",
"791 632 CURVE SMOOTH",
"754 632 OFFCURVE",
"716 626 OFFCURVE",
"680 615 CURVE SMOOTH",
"587 587 OFFCURVE",
"495 552 OFFCURVE",
"410 505 CURVE SMOOTH",
"223 400 OFFCURVE",
"17 197 OFFCURVE",
"17 -32 CURVE SMOOTH",
"17 -195 OFFCURVE",
"126 -285 OFFCURVE",
"284 -285 CURVE SMOOTH"
);
},
{
closed = 1;
nodes = (
"1210 343 OFFCURVE",
"1143 351 OFFCURVE",
"1098 369 CURVE",
"1097 369 LINE",
"1097 370 OFFCURVE",
"1098 370 OFFCURVE",
"1098 370 CURVE",
"1116 378 OFFCURVE",
"1135 382 OFFCURVE",
"1154 386 CURVE SMOOTH",
"1217 400 OFFCURVE",
"1281 409 OFFCURVE",
"1346 419 CURVE",
"1317 391 OFFCURVE",
"1288 364 OFFCURVE",
"1259 335 CURVE"
);
},
{
closed = 1;
nodes = (
"1470 315 OFFCURVE",
"1401 320 OFFCURVE",
"1334 326 CURVE",
"1368 361 OFFCURVE",
"1400 397 OFFCURVE",
"1432 434 CURVE",
"1492 443 OFFCURVE",
"1550 453 OFFCURVE",
"1609 465 CURVE",
"1582 417 OFFCURVE",
"1557 366 OFFCURVE",
"1538 316 CURVE"
);
},
{
closed = 1;
nodes = (
"1763 597 OFFCURVE",
"1817 681 OFFCURVE",
"1876 761 CURVE",
"1911 752 OFFCURVE",
"1946 745 OFFCURVE",
"1982 737 CURVE SMOOTH",
"2006 730 OFFCURVE",
"2035 725 OFFCURVE",
"2058 716 CURVE SMOOTH",
"2068 711 OFFCURVE",
"2089 706 OFFCURVE",
"2089 690 CURVE SMOOTH",
"2089 684 OFFCURVE",
"2086 677 OFFCURVE",
"2083 672 CURVE",
"2040 591 OFFCURVE",
"1795 530 OFFCURVE",
"1712 512 CURVE"
);
},
{
closed = 1;
nodes = (
"1835 814 OFFCURVE",
"1809 822 OFFCURVE",
"1809 836 CURVE SMOOTH",
"1809 846 OFFCURVE",
"1819 855 OFFCURVE",
"1826 862 CURVE SMOOTH",
"1874 906 OFFCURVE",
"1923 948 OFFCURVE",
"1972 990 CURVE SMOOTH",
"1997 1012 OFFCURVE",
"2023 1035 OFFCURVE",
"2052 1054 CURVE",
"2040 1039 OFFCURVE",
"2027 1025 OFFCURVE",
"2015 1010 CURVE SMOOTH",
"1959 945 OFFCURVE",
"1899 880 OFFCURVE",
"1845 812 CURVE"
);
},
{
closed = 1;
nodes = (
"2080 1262 OFFCURVE",
"2094 1289 OFFCURVE",
"2098 1305 CURVE SMOOTH",
"2103 1320 OFFCURVE",
"2108 1335 OFFCURVE",
"2117 1348 CURVE",
"2119 1352 OFFCURVE",
"2135 1369 OFFCURVE",
"2135 1370 CURVE SMOOTH",
"2135 1372 LINE",
"2134 1374 OFFCURVE",
"2133 1374 OFFCURVE",
"2132 1374 CURVE SMOOTH",
"2107 1374 OFFCURVE",
"2034 1328 OFFCURVE",
"2034 1299 CURVE SMOOTH",
"2034 1288 OFFCURVE",
"2048 1262 OFFCURVE",
"2061 1262 CURVE SMOOTH"
);
},
{
closed = 1;
nodes = (
"2236 1262 OFFCURVE",
"2250 1289 OFFCURVE",
"2254 1305 CURVE SMOOTH",
"2259 1320 OFFCURVE",
"2265 1335 OFFCURVE",
"2274 1348 CURVE",
"2275 1352 OFFCURVE",
"2292 1369 OFFCURVE",
"2292 1370 CURVE SMOOTH",
"2292 1372 LINE",
"2290 1374 OFFCURVE",
"2289 1374 OFFCURVE",
"2288 1374 CURVE SMOOTH",
"2263 1374 OFFCURVE",
"2190 1328 OFFCURVE",
"2190 1299 CURVE SMOOTH",
"2190 1288 OFFCURVE",
"2204 1262 OFFCURVE",
"2217 1262 CURVE SMOOTH"
);
}
);
width = 1815;
}
);
note = Adieresis;
unicode = 00C4;
},
{
color = 11;
glyphname = Agrave;
lastChange = "2021-09-15 03:21:52 +0000";
layers = (
{
background = {
paths = (
{
closed = 1;
nodes = (
"2250 1178 OFFCURVE",
"2253 1182 OFFCURVE",
"2253 1187 CURVE SMOOTH",
"2253 1208 OFFCURVE",
"2120 1299 OFFCURVE",
"2098 1319 CURVE SMOOTH",
"2083 1333 OFFCURVE",
"2062 1346 OFFCURVE",
"2039 1346 CURVE SMOOTH",
"2027 1346 OFFCURVE",
"2009 1339 OFFCURVE",
"2009 1325 CURVE SMOOTH",
"2009 1305 OFFCURVE",
"2037 1288 OFFCURVE",
"2053 1280 CURVE SMOOTH",
"2114 1248 OFFCURVE",
"2174 1217 OFFCURVE",
"2234 1182 CURVE SMOOTH",
"2237 1179 OFFCURVE",
"2241 1178 OFFCURVE",
"2245 1178 CURVE SMOOTH"
);
},
{
closed = 1;
nodes = (
"1939 844 OFFCURVE",
"2166 1092 OFFCURVE",
"2166 1111 CURVE SMOOTH",
"2166 1129 OFFCURVE",
"2135 1138 OFFCURVE",
"2121 1138 CURVE SMOOTH",
"2119 1138 OFFCURVE",
"2116 1138 OFFCURVE",
"2112 1138 CURVE",
"2070 1121 OFFCURVE",
"1791 879 OFFCURVE",
"1759 835 CURVE SMOOTH",
"1755 828 OFFCURVE",
"1750 822 OFFCURVE",
"1750 814 CURVE SMOOTH",
"1750 788 OFFCURVE",
"1799 781 OFFCURVE",
"1817 777 CURVE",
"1747 686 OFFCURVE",
"1683 592 OFFCURVE",
"1626 494 CURVE",
"1572 484 OFFCURVE",
"1519 477 OFFCURVE",
"1465 472 CURVE",
"1572 597 OFFCURVE",
"1671 733 OFFCURVE",
"1757 874 CURVE",
"1759 875 OFFCURVE",
"1760 879 OFFCURVE",
"1760 881 CURVE SMOOTH",
"1760 888 OFFCURVE",
"1754 890 OFFCURVE",
"1748 890 CURVE SMOOTH",
"1739 890 OFFCURVE",
"1733 886 OFFCURVE",
"1728 880 CURVE SMOOTH",
"1719 866 OFFCURVE",
"1710 852 OFFCURVE",
"1701 837 CURVE SMOOTH",
"1677 805 OFFCURVE",
"1654 773 OFFCURVE",
"1630 742 CURVE SMOOTH",
"1556 645 OFFCURVE",
"1475 552 OFFCURVE",
"1390 465 CURVE",
"1310 458 OFFCURVE",
"991 437 OFFCURVE",
"939 415 CURVE SMOOTH",
"930 412 OFFCURVE",
"914 405 OFFCURVE",
"914 391 CURVE SMOOTH",
"914 387 OFFCURVE",
"915 382 OFFCURVE",
"917 379 CURVE SMOOTH",
"941 351 OFFCURVE",
"1036 323 OFFCURVE",
"1072 315 CURVE SMOOTH",
"1119 305 OFFCURVE",
"1168 299 OFFCURVE",
"1214 295 CURVE",
"1008 106 OFFCURVE",
"569 -249 OFFCURVE",
"268 -249 CURVE SMOOTH",
"142 -249 OFFCURVE",
"59 -182 OFFCURVE",
"59 -53 CURVE SMOOTH",
"59 165 OFFCURVE",
"267 375 OFFCURVE",
"443 479 CURVE SMOOTH",
"520 525 OFFCURVE",
"603 559 OFFCURVE",
"689 585 CURVE SMOOTH",
"723 594 OFFCURVE",
"757 600 OFFCURVE",
"791 600 CURVE SMOOTH",
"822 600 OFFCURVE",
"867 594 OFFCURVE",
"885 566 CURVE SMOOTH",
"889 560 OFFCURVE",
"892 556 OFFCURVE",
"899 556 CURVE SMOOTH",
"908 556 OFFCURVE",
"917 563 OFFCURVE",
"917 572 CURVE SMOOTH",
"917 574 OFFCURVE",
"916 577 OFFCURVE",
"915 578 CURVE",
"895 622 OFFCURVE",
"835 632 OFFCURVE",
"791 632 CURVE SMOOTH",
"754 632 OFFCURVE",
"716 626 OFFCURVE",
"680 615 CURVE SMOOTH",
"587 587 OFFCURVE",
"495 552 OFFCURVE",
"410 505 CURVE SMOOTH",
"223 400 OFFCURVE",
"17 197 OFFCURVE",
"17 -32 CURVE SMOOTH",
"17 -195 OFFCURVE",
"126 -285 OFFCURVE",
"284 -285 CURVE SMOOTH",
"374 -285 OFFCURVE",
"467 -258 OFFCURVE",
"550 -222 CURVE SMOOTH",
"834 -101 OFFCURVE",
"1079 72 OFFCURVE",
"1297 289 CURVE",
"1348 286 OFFCURVE",
"1400 285 OFFCURVE",
"1450 285 CURVE SMOOTH",
"1476 285 OFFCURVE",
"1501 285 OFFCURVE",
"1526 286 CURVE",
"1508 235 OFFCURVE",
"1494 179 OFFCURVE",
"1494 125 CURVE SMOOTH",
"1494 66 OFFCURVE",
"1512 13 OFFCURVE",
"1560 -25 CURVE",
"1564 -26 OFFCURVE",
"1566 -27 OFFCURVE",
"1570 -27 CURVE SMOOTH",
"1579 -27 OFFCURVE",
"1587 -19 OFFCURVE",
"1587 -10 CURVE SMOOTH",
"1587 5 OFFCURVE",
"1547 14 OFFCURVE",
"1547 88 CURVE SMOOTH",
"1547 152 OFFCURVE",
"1574 231 OFFCURVE",
"1600 290 CURVE",
"1621 293 OFFCURVE",
"1735 302 OFFCURVE",
"1735 332 CURVE SMOOTH",
"1735 337 OFFCURVE",
"1732 341 OFFCURVE",
"1726 341 CURVE SMOOTH",
"1724 341 OFFCURVE",
"1721 339 OFFCURVE",
"1720 339 CURVE",
"1685 326 OFFCURVE",
"1649 321 OFFCURVE",
"1612 319 CURVE",
"1636 374 OFFCURVE",
"1665 430 OFFCURVE",
"1695 483 CURVE",
"1770 499 OFFCURVE",
"2147 594 OFFCURVE",
"2147 692 CURVE SMOOTH",
"2147 756 OFFCURVE",
"1954 787 OFFCURVE",
"1903 797 CURVE"
);
},
{
closed = 1;
nodes = (
"2040 1039 OFFCURVE",
"2027 1025 OFFCURVE",
"2015 1010 CURVE SMOOTH",
"1959 945 OFFCURVE",
"1899 880 OFFCURVE",
"1845 812 CURVE",
"1835 814 OFFCURVE",
"1809 822 OFFCURVE",
"1809 836 CURVE SMOOTH",
"1809 846 OFFCURVE",
"1819 855 OFFCURVE",
"1826 862 CURVE SMOOTH",
"1874 906 OFFCURVE",
"1923 948 OFFCURVE",
"1972 990 CURVE SMOOTH",
"1997 1012 OFFCURVE",
"2023 1035 OFFCURVE",
"2052 1054 CURVE"
);
},
{
closed = 1;
nodes = (
"1911 752 OFFCURVE",
"1946 745 OFFCURVE",
"1982 737 CURVE SMOOTH",
"2006 730 OFFCURVE",
"2035 725 OFFCURVE",
"2058 716 CURVE SMOOTH",
"2068 711 OFFCURVE",
"2089 706 OFFCURVE",
"2089 690 CURVE SMOOTH",
"2089 684 OFFCURVE",
"2086 677 OFFCURVE",
"2083 672 CURVE",
"2040 591 OFFCURVE",
"1795 530 OFFCURVE",
"1712 512 CURVE",
"1763 597 OFFCURVE",
"1817 681 OFFCURVE",
"1876 761 CURVE"
);
},
{
closed = 1;
nodes = (
"1492 443 OFFCURVE",
"1550 453 OFFCURVE",
"1609 465 CURVE",
"1582 417 OFFCURVE",
"1557 366 OFFCURVE",
"1538 316 CURVE",
"1470 315 OFFCURVE",
"1401 320 OFFCURVE",
"1334 326 CURVE",
"1368 361 OFFCURVE",
"1400 397 OFFCURVE",
"1432 434 CURVE"
);
},
{
closed = 1;
nodes = (
"1097 370 OFFCURVE",
"1098 370 OFFCURVE",
"1098 370 CURVE",
"1116 378 OFFCURVE",
"1135 382 OFFCURVE",
"1154 386 CURVE SMOOTH",
"1217 400 OFFCURVE",
"1281 409 OFFCURVE",
"1346 419 CURVE",
"1317 391 OFFCURVE",
"1288 364 OFFCURVE",
"1259 335 CURVE",
"1210 343 OFFCURVE",
"1143 351 OFFCURVE",
"1098 369 CURVE",
"1098 369 OFFCURVE",
"1097 369 OFFCURVE",
"1097 369 CURVE"
);
}
);
};
layerId = "95C423A7-595F-441F-915A-E5EF8B5EF971";
paths = (
{
closed = 1;
nodes = (
"374 -285 OFFCURVE",
"467 -258 OFFCURVE",
"550 -222 CURVE SMOOTH",
"834 -101 OFFCURVE",
"1079 72 OFFCURVE",
"1297 289 CURVE",
"1348 286 OFFCURVE",
"1400 285 OFFCURVE",
"1450 285 CURVE SMOOTH",
"1476 285 OFFCURVE",
"1501 285 OFFCURVE",
"1526 286 CURVE",
"1508 235 OFFCURVE",
"1494 179 OFFCURVE",
"1494 125 CURVE SMOOTH",
"1494 66 OFFCURVE",
"1512 13 OFFCURVE",
"1560 -25 CURVE",
"1564 -26 OFFCURVE",
"1566 -27 OFFCURVE",
"1570 -27 CURVE SMOOTH",
"1579 -27 OFFCURVE",
"1587 -19 OFFCURVE",
"1587 -10 CURVE SMOOTH",
"1587 5 OFFCURVE",
"1547 14 OFFCURVE",
"1547 88 CURVE SMOOTH",
"1547 152 OFFCURVE",
"1574 231 OFFCURVE",
"1600 290 CURVE",
"1621 293 OFFCURVE",
"1735 302 OFFCURVE",
"1735 332 CURVE SMOOTH",
"1735 337 OFFCURVE",
"1732 341 OFFCURVE",
"1726 341 CURVE SMOOTH",
"1724 341 OFFCURVE",
"1721 339 OFFCURVE",
"1720 339 CURVE",
"1685 326 OFFCURVE",
"1649 321 OFFCURVE",
"1612 319 CURVE",
"1636 374 OFFCURVE",
"1665 430 OFFCURVE",
"1695 483 CURVE",
"1770 499 OFFCURVE",
"2147 594 OFFCURVE",
"2147 692 CURVE SMOOTH",
"2147 756 OFFCURVE",
"1954 787 OFFCURVE",
"1903 797 CURVE",
"1939 844 OFFCURVE",
"2166 1092 OFFCURVE",
"2166 1111 CURVE SMOOTH",
"2166 1129 OFFCURVE",
"2135 1138 OFFCURVE",
"2121 1138 CURVE SMOOTH",
"2112 1138 LINE",
"2070 1121 OFFCURVE",
"1791 879 OFFCURVE",
"1759 835 CURVE SMOOTH",
"1755 828 OFFCURVE",
"1750 822 OFFCURVE",
"1750 814 CURVE SMOOTH",
"1750 788 OFFCURVE",
"1799 781 OFFCURVE",
"1817 777 CURVE",
"1747 686 OFFCURVE",
"1683 592 OFFCURVE",
"1626 494 CURVE",
"1572 484 OFFCURVE",
"1519 477 OFFCURVE",
"1465 472 CURVE",
"1572 597 OFFCURVE",
"1671 733 OFFCURVE",
"1757 874 CURVE",
"1759 875 OFFCURVE",
"1760 879 OFFCURVE",
"1760 881 CURVE SMOOTH",
"1760 888 OFFCURVE",
"1754 890 OFFCURVE",
"1748 890 CURVE SMOOTH",
"1739 890 OFFCURVE",
"1733 886 OFFCURVE",
"1728 880 CURVE SMOOTH",
"1701 837 LINE SMOOTH",
"1677 805 OFFCURVE",
"1654 773 OFFCURVE",
"1630 742 CURVE SMOOTH",
"1556 645 OFFCURVE",
"1475 552 OFFCURVE",
"1390 465 CURVE",
"1310 458 OFFCURVE",
"991 437 OFFCURVE",
"939 415 CURVE SMOOTH",
"930 412 OFFCURVE",
"914 405 OFFCURVE",
"914 391 CURVE SMOOTH",
"914 387 OFFCURVE",
"915 382 OFFCURVE",
"917 379 CURVE SMOOTH",
"941 351 OFFCURVE",
"1036 323 OFFCURVE",
"1072 315 CURVE SMOOTH",
"1119 305 OFFCURVE",
"1168 299 OFFCURVE",
"1214 295 CURVE",
"1008 106 OFFCURVE",
"569 -249 OFFCURVE",
"268 -249 CURVE SMOOTH",
"142 -249 OFFCURVE",
"59 -182 OFFCURVE",
"59 -53 CURVE SMOOTH",
"59 165 OFFCURVE",
"267 375 OFFCURVE",
"443 479 CURVE SMOOTH",
"520 525 OFFCURVE",
"603 559 OFFCURVE",
"689 585 CURVE SMOOTH",
"723 594 OFFCURVE",
"757 600 OFFCURVE",
"791 600 CURVE SMOOTH",
"822 600 OFFCURVE",
"867 594 OFFCURVE",
"885 566 CURVE SMOOTH",
"889 560 OFFCURVE",
"892 556 OFFCURVE",
"899 556 CURVE SMOOTH",
"908 556 OFFCURVE",
"917 563 OFFCURVE",
"917 572 CURVE SMOOTH",
"917 574 OFFCURVE",
"916 577 OFFCURVE",
"915 578 CURVE",
"895 622 OFFCURVE",
"835 632 OFFCURVE",
"791 632 CURVE SMOOTH",
"754 632 OFFCURVE",
"716 626 OFFCURVE",
"680 615 CURVE SMOOTH",
"587 587 OFFCURVE",
"495 552 OFFCURVE",
"410 505 CURVE SMOOTH",
"223 400 OFFCURVE",
"17 197 OFFCURVE",
"17 -32 CURVE SMOOTH",
"17 -195 OFFCURVE",
"126 -285 OFFCURVE",
"284 -285 CURVE SMOOTH"
);
},
{
closed = 1;
nodes = (
"1210 343 OFFCURVE",
"1143 351 OFFCURVE",
"1098 369 CURVE",
"1097 369 LINE",
"1097 370 OFFCURVE",
"1098 370 OFFCURVE",
"1098 370 CURVE",
"1116 378 OFFCURVE",
"1135 382 OFFCURVE",
"1154 386 CURVE SMOOTH",
"1217 400 OFFCURVE",
"1281 409 OFFCURVE",
"1346 419 CURVE",
"1317 391 OFFCURVE",
"1288 364 OFFCURVE",
"1259 335 CURVE"
);
},
{
closed = 1;
nodes = (
"1470 315 OFFCURVE",
"1401 320 OFFCURVE",
"1334 326 CURVE",
"1368 361 OFFCURVE",
"1400 397 OFFCURVE",
"1432 434 CURVE",
"1492 443 OFFCURVE",
"1550 453 OFFCURVE",
"1609 465 CURVE",
"1582 417 OFFCURVE",
"1557 366 OFFCURVE",
"1538 316 CURVE"
);
},
{
closed = 1;
nodes = (
"1763 597 OFFCURVE",
"1817 681 OFFCURVE",
"1876 761 CURVE",
"1911 752 OFFCURVE",
"1946 745 OFFCURVE",
"1982 737 CURVE SMOOTH",
"2006 730 OFFCURVE",
"2035 725 OFFCURVE",
"2058 716 CURVE SMOOTH",
"2068 711 OFFCURVE",
"2089 706 OFFCURVE",
"2089 690 CURVE SMOOTH",
"2089 684 OFFCURVE",
"2086 677 OFFCURVE",
"2083 672 CURVE",
"2040 591 OFFCURVE",
"1795 530 OFFCURVE",
"1712 512 CURVE"
);
},
{
closed = 1;
nodes = (
"1835 814 OFFCURVE",
"1809 822 OFFCURVE",
"1809 836 CURVE SMOOTH",
"1809 846 OFFCURVE",
"1819 855 OFFCURVE",
"1826 862 CURVE SMOOTH",
"1874 906 OFFCURVE",
"1923 948 OFFCURVE",
"1972 990 CURVE SMOOTH",
"1997 1012 OFFCURVE",
"2023 1035 OFFCURVE",
"2052 1054 CURVE",
"2040 1039 OFFCURVE",
"2027 1025 OFFCURVE",
"2015 1010 CURVE SMOOTH",
"1959 945 OFFCURVE",
"1899 880 OFFCURVE",
"1845 812 CURVE"
);
},
{
closed = 1;
nodes = (
"2250 1178 OFFCURVE",
"2253 1182 OFFCURVE",
"2253 1187 CURVE SMOOTH",
"2253 1208 OFFCURVE",
"2120 1299 OFFCURVE",
"2098 1319 CURVE SMOOTH",
"2083 1333 OFFCURVE",
"2062 1346 OFFCURVE",
"2039 1346 CURVE SMOOTH",
"2027 1346 OFFCURVE",
"2009 1339 OFFCURVE",
"2009 1325 CURVE SMOOTH",
"2009 1305 OFFCURVE",
"2037 1288 OFFCURVE",
"2053 1280 CURVE SMOOTH",
"2114 1248 OFFCURVE",
"2174 1217 OFFCURVE",
"2234 1182 CURVE SMOOTH",
"2237 1179 OFFCURVE",
"2241 1178 OFFCURVE",
"2245 1178 CURVE SMOOTH"
);
}
);
width = 1815;
}
);
note = Agrave;
unicode = 00C0;
},
{
color = 11;
glyphname = Aring;
lastChange = "2021-09-15 03:21:52 +0000";
layers = (
{
background = {
paths = (
{
closed = 1;
nodes = (
"2221 1121 OFFCURVE",
"2277 1182 OFFCURVE",
"2277 1244 CURVE SMOOTH",
"2277 1276 OFFCURVE",
"2258 1311 OFFCURVE",
"2222 1311 CURVE SMOOTH",
"2195 1311 OFFCURVE",
"2168 1292 OFFCURVE",
"2156 1268 CURVE",
"2125 1259 OFFCURVE",
"2106 1200 OFFCURVE",
"2106 1172 CURVE SMOOTH",
"2106 1139 OFFCURVE",
"2128 1121 OFFCURVE",
"2159 1121 CURVE SMOOTH"
);
},
{
closed = 1;
nodes = (
"2246 1203 OFFCURVE",
"2217 1146 OFFCURVE",
"2173 1146 CURVE SMOOTH",
"2159 1146 OFFCURVE",
"2154 1159 OFFCURVE",
"2154 1172 CURVE SMOOTH",
"2154 1215 OFFCURVE",
"2182 1228 OFFCURVE",
"2195 1263 CURVE",
"2182 1270 LINE",
"2192 1277 OFFCURVE",
"2205 1286 OFFCURVE",
"2218 1286 CURVE SMOOTH",
"2241 1286 OFFCURVE",
"2246 1258 OFFCURVE",
"2246 1241 CURVE SMOOTH"
);
},
{
closed = 1;
nodes = (
"1939 844 OFFCURVE",
"2166 1092 OFFCURVE",
"2166 1111 CURVE SMOOTH",
"2166 1129 OFFCURVE",
"2135 1138 OFFCURVE",
"2121 1138 CURVE SMOOTH",
"2119 1138 OFFCURVE",
"2116 1138 OFFCURVE",
"2112 1138 CURVE",
"2070 1121 OFFCURVE",
"1791 879 OFFCURVE",
"1759 835 CURVE SMOOTH",
"1755 828 OFFCURVE",
"1750 822 OFFCURVE",
"1750 814 CURVE SMOOTH",
"1750 788 OFFCURVE",
"1799 781 OFFCURVE",
"1817 777 CURVE",
"1747 686 OFFCURVE",
"1683 592 OFFCURVE",
"1626 494 CURVE",
"1572 484 OFFCURVE",
"1519 477 OFFCURVE",
"1465 472 CURVE",
"1572 597 OFFCURVE",
"1671 733 OFFCURVE",
"1757 874 CURVE",
"1759 875 OFFCURVE",
"1760 879 OFFCURVE",
"1760 881 CURVE SMOOTH",
"1760 888 OFFCURVE",
"1754 890 OFFCURVE",
"1748 890 CURVE SMOOTH",
"1739 890 OFFCURVE",
"1733 886 OFFCURVE",
"1728 880 CURVE SMOOTH",
"1719 866 OFFCURVE",
"1710 852 OFFCURVE",
"1701 837 CURVE SMOOTH",
"1677 805 OFFCURVE",
"1654 773 OFFCURVE",
"1630 742 CURVE SMOOTH",
"1556 645 OFFCURVE",
"1475 552 OFFCURVE",
"1390 465 CURVE",
"1310 458 OFFCURVE",
"991 437 OFFCURVE",
"939 415 CURVE SMOOTH",
"930 412 OFFCURVE",
"914 405 OFFCURVE",
"914 391 CURVE SMOOTH",
"914 387 OFFCURVE",
"915 382 OFFCURVE",
"917 379 CURVE SMOOTH",
"941 351 OFFCURVE",
"1036 323 OFFCURVE",
"1072 315 CURVE SMOOTH",
"1119 305 OFFCURVE",
"1168 299 OFFCURVE",
"1214 295 CURVE",
"1008 106 OFFCURVE",
"569 -249 OFFCURVE",
"268 -249 CURVE SMOOTH",
"142 -249 OFFCURVE",
"59 -182 OFFCURVE",
"59 -53 CURVE SMOOTH",
"59 165 OFFCURVE",
"267 375 OFFCURVE",
"443 479 CURVE SMOOTH",
"520 525 OFFCURVE",
"603 559 OFFCURVE",
"689 585 CURVE SMOOTH",
"723 594 OFFCURVE",
"757 600 OFFCURVE",
"791 600 CURVE SMOOTH",
"822 600 OFFCURVE",
"867 594 OFFCURVE",
"885 566 CURVE SMOOTH",
"889 560 OFFCURVE",
"892 556 OFFCURVE",
"899 556 CURVE SMOOTH",
"908 556 OFFCURVE",
"917 563 OFFCURVE",
"917 572 CURVE SMOOTH",
"917 574 OFFCURVE",
"916 577 OFFCURVE",
"915 578 CURVE",
"895 622 OFFCURVE",
"835 632 OFFCURVE",
"791 632 CURVE SMOOTH",
"754 632 OFFCURVE",
"716 626 OFFCURVE",
"680 615 CURVE SMOOTH",
"587 587 OFFCURVE",
"495 552 OFFCURVE",
"410 505 CURVE SMOOTH",
"223 400 OFFCURVE",
"17 197 OFFCURVE",
"17 -32 CURVE SMOOTH",
"17 -195 OFFCURVE",
"126 -285 OFFCURVE",
"284 -285 CURVE SMOOTH",
"374 -285 OFFCURVE",
"467 -258 OFFCURVE",
"550 -222 CURVE SMOOTH",
"834 -101 OFFCURVE",
"1079 72 OFFCURVE",
"1297 289 CURVE",
"1348 286 OFFCURVE",
"1400 285 OFFCURVE",
"1450 285 CURVE SMOOTH",
"1476 285 OFFCURVE",
"1501 285 OFFCURVE",
"1526 286 CURVE",
"1508 235 OFFCURVE",
"1494 179 OFFCURVE",
"1494 125 CURVE SMOOTH",
"1494 66 OFFCURVE",
"1512 13 OFFCURVE",
"1560 -25 CURVE",
"1564 -26 OFFCURVE",
"1566 -27 OFFCURVE",
"1570 -27 CURVE SMOOTH",
"1579 -27 OFFCURVE",
"1587 -19 OFFCURVE",
"1587 -10 CURVE SMOOTH",
"1587 5 OFFCURVE",
"1547 14 OFFCURVE",
"1547 88 CURVE SMOOTH",
"1547 152 OFFCURVE",
"1574 231 OFFCURVE",
"1600 290 CURVE",
"1621 293 OFFCURVE",
"1735 302 OFFCURVE",
"1735 332 CURVE SMOOTH",
"1735 337 OFFCURVE",
"1732 341 OFFCURVE",
"1726 341 CURVE SMOOTH",
"1724 341 OFFCURVE",
"1721 339 OFFCURVE",
"1720 339 CURVE",
"1685 326 OFFCURVE",
"1649 321 OFFCURVE",
"1612 319 CURVE",
"1636 374 OFFCURVE",
"1665 430 OFFCURVE",
"1695 483 CURVE",
"1770 499 OFFCURVE",
"2147 594 OFFCURVE",
"2147 692 CURVE SMOOTH",
"2147 756 OFFCURVE",
"1954 787 OFFCURVE",
"1903 797 CURVE"
);
},
{
closed = 1;
nodes = (
"2040 1039 OFFCURVE",
"2027 1025 OFFCURVE",
"2015 1010 CURVE SMOOTH",
"1959 945 OFFCURVE",
"1899 880 OFFCURVE",
"1845 812 CURVE",
"1835 814 OFFCURVE",
"1809 822 OFFCURVE",
"1809 836 CURVE SMOOTH",
"1809 846 OFFCURVE",
"1819 855 OFFCURVE",
"1826 862 CURVE SMOOTH",
"1874 906 OFFCURVE",
"1923 948 OFFCURVE",
"1972 990 CURVE SMOOTH",
"1997 1012 OFFCURVE",
"2023 1035 OFFCURVE",
"2052 1054 CURVE"
);
},
{
closed = 1;
nodes = (
"1911 752 OFFCURVE",
"1946 745 OFFCURVE",
"1982 737 CURVE SMOOTH",
"2006 730 OFFCURVE",
"2035 725 OFFCURVE",
"2058 716 CURVE SMOOTH",
"2068 711 OFFCURVE",
"2089 706 OFFCURVE",
"2089 690 CURVE SMOOTH",
"2089 684 OFFCURVE",
"2086 677 OFFCURVE",
"2083 672 CURVE",
"2040 591 OFFCURVE",
"1795 530 OFFCURVE",
"1712 512 CURVE",
"1763 597 OFFCURVE",
"1817 681 OFFCURVE",
"1876 761 CURVE"
);
},
{
closed = 1;
nodes = (
"1492 443 OFFCURVE",
"1550 453 OFFCURVE",
"1609 465 CURVE",
"1582 417 OFFCURVE",
"1557 366 OFFCURVE",
"1538 316 CURVE",
"1470 315 OFFCURVE",
"1401 320 OFFCURVE",
"1334 326 CURVE",
"1368 361 OFFCURVE",
"1400 397 OFFCURVE",
"1432 434 CURVE"
);
},
{
closed = 1;
nodes = (
"1097 370 OFFCURVE",
"1098 370 OFFCURVE",
"1098 370 CURVE",
"1116 378 OFFCURVE",
"1135 382 OFFCURVE",
"1154 386 CURVE SMOOTH",
"1217 400 OFFCURVE",
"1281 409 OFFCURVE",
"1346 419 CURVE",
"1317 391 OFFCURVE",
"1288 364 OFFCURVE",
"1259 335 CURVE",
"1210 343 OFFCURVE",
"1143 351 OFFCURVE",
"1098 369 CURVE",
"1098 369 OFFCURVE",
"1097 369 OFFCURVE",
"1097 369 CURVE"
);
}
);
};
layerId = "95C423A7-595F-441F-915A-E5EF8B5EF971";
paths = (
{
closed = 1;
nodes = (
"374 -285 OFFCURVE",
"467 -258 OFFCURVE",
"550 -222 CURVE SMOOTH",
"834 -101 OFFCURVE",
"1079 72 OFFCURVE",
"1297 289 CURVE",
"1348 286 OFFCURVE",
"1400 285 OFFCURVE",
"1450 285 CURVE SMOOTH",
"1476 285 OFFCURVE",
"1501 285 OFFCURVE",
"1526 286 CURVE",
"1508 235 OFFCURVE",
"1494 179 OFFCURVE",
"1494 125 CURVE SMOOTH",
"1494 66 OFFCURVE",
"1512 13 OFFCURVE",
"1560 -25 CURVE",
"1564 -26 OFFCURVE",
"1566 -27 OFFCURVE",
"1570 -27 CURVE SMOOTH",
"1579 -27 OFFCURVE",
"1587 -19 OFFCURVE",
"1587 -10 CURVE SMOOTH",
"1587 5 OFFCURVE",
"1547 14 OFFCURVE",
"1547 88 CURVE SMOOTH",
"1547 152 OFFCURVE",
"1574 231 OFFCURVE",
"1600 290 CURVE",
"1621 293 OFFCURVE",
"1735 302 OFFCURVE",
"1735 332 CURVE SMOOTH",
"1735 337 OFFCURVE",
"1732 341 OFFCURVE",
"1726 341 CURVE SMOOTH",
"1724 341 OFFCURVE",
"1721 339 OFFCURVE",
"1720 339 CURVE",
"1685 326 OFFCURVE",
"1649 321 OFFCURVE",
"1612 319 CURVE",
"1636 374 OFFCURVE",
"1665 430 OFFCURVE",
"1695 483 CURVE",
"1770 499 OFFCURVE",
"2147 594 OFFCURVE",
"2147 692 CURVE SMOOTH",
"2147 756 OFFCURVE",
"1954 787 OFFCURVE",
"1903 797 CURVE",
"1939 844 OFFCURVE",
"2166 1092 OFFCURVE",
"2166 1111 CURVE SMOOTH",
"2166 1129 OFFCURVE",
"2135 1138 OFFCURVE",
"2121 1138 CURVE SMOOTH",
"2112 1138 LINE",
"2070 1121 OFFCURVE",
"1791 879 OFFCURVE",
"1759 835 CURVE SMOOTH",
"1755 828 OFFCURVE",
"1750 822 OFFCURVE",
"1750 814 CURVE SMOOTH",
"1750 788 OFFCURVE",
"1799 781 OFFCURVE",
"1817 777 CURVE",
"1747 686 OFFCURVE",
"1683 592 OFFCURVE",
"1626 494 CURVE",
"1572 484 OFFCURVE",
"1519 477 OFFCURVE",
"1465 472 CURVE",
"1572 597 OFFCURVE",
"1671 733 OFFCURVE",
"1757 874 CURVE",
"1759 875 OFFCURVE",
"1760 879 OFFCURVE",
"1760 881 CURVE SMOOTH",
"1760 888 OFFCURVE",
"1754 890 OFFCURVE",
"1748 890 CURVE SMOOTH",
"1739 890 OFFCURVE",
"1733 886 OFFCURVE",
"1728 880 CURVE SMOOTH",
"1701 837 LINE SMOOTH",
"1677 805 OFFCURVE",
"1654 773 OFFCURVE",
"1630 742 CURVE SMOOTH",
"1556 645 OFFCURVE",
"1475 552 OFFCURVE",
"1390 465 CURVE",
"1310 458 OFFCURVE",
"991 437 OFFCURVE",
"939 415 CURVE SMOOTH",
"930 412 OFFCURVE",
"914 405 OFFCURVE",
"914 391 CURVE SMOOTH",
"914 387 OFFCURVE",
"915 382 OFFCURVE",
"917 379 CURVE SMOOTH",
"941 351 OFFCURVE",
"1036 323 OFFCURVE",
"1072 315 CURVE SMOOTH",
"1119 305 OFFCURVE",
"1168 299 OFFCURVE",
"1214 295 CURVE",
"1008 106 OFFCURVE",
"569 -249 OFFCURVE",
"268 -249 CURVE SMOOTH",
"142 -249 OFFCURVE",
"59 -182 OFFCURVE",
"59 -53 CURVE SMOOTH",
"59 165 OFFCURVE",
"267 375 OFFCURVE",
"443 479 CURVE SMOOTH",
"520 525 OFFCURVE",
"603 559 OFFCURVE",
"689 585 CURVE SMOOTH",
"723 594 OFFCURVE",
"757 600 OFFCURVE",
"791 600 CURVE SMOOTH",
"822 600 OFFCURVE",
"867 594 OFFCURVE",
"885 566 CURVE SMOOTH",
"889 560 OFFCURVE",
"892 556 OFFCURVE",
"899 556 CURVE SMOOTH",
"908 556 OFFCURVE",
"917 563 OFFCURVE",
"917 572 CURVE SMOOTH",
"917 574 OFFCURVE",
"916 577 OFFCURVE",
"915 578 CURVE",
"895 622 OFFCURVE",
"835 632 OFFCURVE",
"791 632 CURVE SMOOTH",
"754 632 OFFCURVE",
"716 626 OFFCURVE",
"680 615 CURVE SMOOTH",
"587 587 OFFCURVE",
"495 552 OFFCURVE",
"410 505 CURVE SMOOTH",
"223 400 OFFCURVE",
"17 197 OFFCURVE",
"17 -32 CURVE SMOOTH",
"17 -195 OFFCURVE",
"126 -285 OFFCURVE",
"284 -285 CURVE SMOOTH"
);
},
{
closed = 1;
nodes = (
"1210 343 OFFCURVE",
"1143 351 OFFCURVE",
"1098 369 CURVE",
"1097 369 LINE",
"1097 370 OFFCURVE",
"1098 370 OFFCURVE",
"1098 370 CURVE",
"1116 378 OFFCURVE",
"1135 382 OFFCURVE",
"1154 386 CURVE SMOOTH",
"1217 400 OFFCURVE",
"1281 409 OFFCURVE",
"1346 419 CURVE",
"1317 391 OFFCURVE",
"1288 364 OFFCURVE",
"1259 335 CURVE"
);
},
{
closed = 1;
nodes = (
"1470 315 OFFCURVE",
"1401 320 OFFCURVE",
"1334 326 CURVE",
"1368 361 OFFCURVE",
"1400 397 OFFCURVE",
"1432 434 CURVE",
"1492 443 OFFCURVE",
"1550 453 OFFCURVE",
"1609 465 CURVE",
"1582 417 OFFCURVE",
"1557 366 OFFCURVE",
"1538 316 CURVE"
);
},
{
closed = 1;
nodes = (
"1763 597 OFFCURVE",
"1817 681 OFFCURVE",
"1876 761 CURVE",
"1911 752 OFFCURVE",
"1946 745 OFFCURVE",
"1982 737 CURVE SMOOTH",
"2006 730 OFFCURVE",
"2035 725 OFFCURVE",
"2058 716 CURVE SMOOTH",
"2068 711 OFFCURVE",
"2089 706 OFFCURVE",
"2089 690 CURVE SMOOTH",
"2089 684 OFFCURVE",
"2086 677 OFFCURVE",
"2083 672 CURVE",
"2040 591 OFFCURVE",
"1795 530 OFFCURVE",
"1712 512 CURVE"
);
},
{
closed = 1;
nodes = (
"1835 814 OFFCURVE",
"1809 822 OFFCURVE",
"1809 836 CURVE SMOOTH",
"1809 846 OFFCURVE",
"1819 855 OFFCURVE",
"1826 862 CURVE SMOOTH",
"1874 906 OFFCURVE",
"1923 948 OFFCURVE",
"1972 990 CURVE SMOOTH",
"1997 1012 OFFCURVE",
"2023 1035 OFFCURVE",
"2052 1054 CURVE",
"2040 1039 OFFCURVE",
"2027 1025 OFFCURVE",
"2015 1010 CURVE SMOOTH",
"1959 945 OFFCURVE",
"1899 880 OFFCURVE",
"1845 812 CURVE"
);
},
{
closed = 1;
nodes = (
"2221 1121 OFFCURVE",
"2277 1182 OFFCURVE",
"2277 1244 CURVE SMOOTH",
"2277 1276 OFFCURVE",
"2258 1311 OFFCURVE",
"2222 1311 CURVE SMOOTH",
"2195 1311 OFFCURVE",
"2168 1292 OFFCURVE",
"2156 1268 CURVE",
"2125 1259 OFFCURVE",
"2106 1200 OFFCURVE",
"2106 1172 CURVE SMOOTH",
"2106 1139 OFFCURVE",
"2128 1121 OFFCURVE",
"2159 1121 CURVE SMOOTH"
);
},
{
closed = 1;
nodes = (
"2159 1146 OFFCURVE",
"2154 1159 OFFCURVE",
"2154 1172 CURVE SMOOTH",
"2154 1215 OFFCURVE",
"2182 1228 OFFCURVE",
"2195 1263 CURVE",
"2182 1270 LINE",
"2192 1277 OFFCURVE",
"2205 1286 OFFCURVE",
"2218 1286 CURVE SMOOTH",
"2241 1286 OFFCURVE",
"2246 1258 OFFCURVE",
"2246 1241 CURVE SMOOTH",
"2246 1203 OFFCURVE",
"2217 1146 OFFCURVE",
"2173 1146 CURVE SMOOTH"
);
}
);
width = 1815;
}
);
note = Aring;
unicode = 00C5;
},
{
color = 11;
glyphname = Atilde;
lastChange = "2021-09-15 03:21:52 +0000";
layers = (
{
background = {
paths = (
{
closed = 1;
nodes = (
"2275 1205 OFFCURVE",
"2325 1248 OFFCURVE",
"2325 1266 CURVE SMOOTH",
"2325 1268 OFFCURVE",
"2323 1268 OFFCURVE",
"2321 1268 CURVE SMOOTH",
"2310 1268 OFFCURVE",
"2288 1237 OFFCURVE",
"2253 1237 CURVE SMOOTH",
"2174 1237 OFFCURVE",
"2126 1288 OFFCURVE",
"2072 1288 CURVE SMOOTH",
"2050 1288 OFFCURVE",
"1997 1248 OFFCURVE",
"1992 1228 CURVE",
"1992 1225 OFFCURVE",
"1995 1222 OFFCURVE",
"1999 1222 CURVE SMOOTH",
"2010 1222 OFFCURVE",
"2035 1258 OFFCURVE",
"2070 1258 CURVE SMOOTH",
"2129 1258 OFFCURVE",
"2191 1205 OFFCURVE",
"2255 1205 CURVE SMOOTH"
);
},
{
closed = 1;
nodes = (
"1939 844 OFFCURVE",
"2166 1092 OFFCURVE",
"2166 1111 CURVE SMOOTH",
"2166 1129 OFFCURVE",
"2135 1138 OFFCURVE",
"2121 1138 CURVE SMOOTH",
"2119 1138 OFFCURVE",
"2116 1138 OFFCURVE",
"2112 1138 CURVE",
"2070 1121 OFFCURVE",
"1791 879 OFFCURVE",
"1759 835 CURVE SMOOTH",
"1755 828 OFFCURVE",
"1750 822 OFFCURVE",
"1750 814 CURVE SMOOTH",
"1750 788 OFFCURVE",
"1799 781 OFFCURVE",
"1817 777 CURVE",
"1747 686 OFFCURVE",
"1683 592 OFFCURVE",
"1626 494 CURVE",
"1572 484 OFFCURVE",
"1519 477 OFFCURVE",
"1465 472 CURVE",
"1572 597 OFFCURVE",
"1671 733 OFFCURVE",
"1757 874 CURVE",
"1759 875 OFFCURVE",
"1760 879 OFFCURVE",
"1760 881 CURVE SMOOTH",
"1760 888 OFFCURVE",
"1754 890 OFFCURVE",
"1748 890 CURVE SMOOTH",
"1739 890 OFFCURVE",
"1733 886 OFFCURVE",
"1728 880 CURVE SMOOTH",
"1719 866 OFFCURVE",
"1710 852 OFFCURVE",
"1701 837 CURVE SMOOTH",
"1677 805 OFFCURVE",
"1654 773 OFFCURVE",
"1630 742 CURVE SMOOTH",
"1556 645 OFFCURVE",
"1475 552 OFFCURVE",
"1390 465 CURVE",
"1310 458 OFFCURVE",
"991 437 OFFCURVE",
"939 415 CURVE SMOOTH",
"930 412 OFFCURVE",
"914 405 OFFCURVE",
"914 391 CURVE SMOOTH",
"914 387 OFFCURVE",
"915 382 OFFCURVE",
"917 379 CURVE SMOOTH",
"941 351 OFFCURVE",
"1036 323 OFFCURVE",
"1072 315 CURVE SMOOTH",
"1119 305 OFFCURVE",
"1168 299 OFFCURVE",
"1214 295 CURVE",
"1008 106 OFFCURVE",
"569 -249 OFFCURVE",
"268 -249 CURVE SMOOTH",
"142 -249 OFFCURVE",
"59 -182 OFFCURVE",
"59 -53 CURVE SMOOTH",
"59 165 OFFCURVE",
"267 375 OFFCURVE",
"443 479 CURVE SMOOTH",
"520 525 OFFCURVE",
"603 559 OFFCURVE",
"689 585 CURVE SMOOTH",
"723 594 OFFCURVE",
"757 600 OFFCURVE",
"791 600 CURVE SMOOTH",
"822 600 OFFCURVE",
"867 594 OFFCURVE",
"885 566 CURVE SMOOTH",
"889 560 OFFCURVE",
"892 556 OFFCURVE",
"899 556 CURVE SMOOTH",
"908 556 OFFCURVE",
"917 563 OFFCURVE",
"917 572 CURVE SMOOTH",
"917 574 OFFCURVE",
"916 577 OFFCURVE",
"915 578 CURVE",
"895 622 OFFCURVE",
"835 632 OFFCURVE",
"791 632 CURVE SMOOTH",
"754 632 OFFCURVE",
"716 626 OFFCURVE",
"680 615 CURVE SMOOTH",
"587 587 OFFCURVE",
"495 552 OFFCURVE",
"410 505 CURVE SMOOTH",
"223 400 OFFCURVE",
"17 197 OFFCURVE",
"17 -32 CURVE SMOOTH",
"17 -195 OFFCURVE",
"126 -285 OFFCURVE",
"284 -285 CURVE SMOOTH",
"374 -285 OFFCURVE",
"467 -258 OFFCURVE",
"550 -222 CURVE SMOOTH",
"834 -101 OFFCURVE",
"1079 72 OFFCURVE",
"1297 289 CURVE",
"1348 286 OFFCURVE",
"1400 285 OFFCURVE",
"1450 285 CURVE SMOOTH",
"1476 285 OFFCURVE",
"1501 285 OFFCURVE",
"1526 286 CURVE",
"1508 235 OFFCURVE",
"1494 179 OFFCURVE",
"1494 125 CURVE SMOOTH",
"1494 66 OFFCURVE",
"1512 13 OFFCURVE",
"1560 -25 CURVE",
"1564 -26 OFFCURVE",
"1566 -27 OFFCURVE",
"1570 -27 CURVE SMOOTH",
"1579 -27 OFFCURVE",
"1587 -19 OFFCURVE",
"1587 -10 CURVE SMOOTH",
"1587 5 OFFCURVE",
"1547 14 OFFCURVE",
"1547 88 CURVE SMOOTH",
"1547 152 OFFCURVE",
"1574 231 OFFCURVE",
"1600 290 CURVE",
"1621 293 OFFCURVE",
"1735 302 OFFCURVE",
"1735 332 CURVE SMOOTH",
"1735 337 OFFCURVE",
"1732 341 OFFCURVE",
"1726 341 CURVE SMOOTH",
"1724 341 OFFCURVE",
"1721 339 OFFCURVE",
"1720 339 CURVE",
"1685 326 OFFCURVE",
"1649 321 OFFCURVE",
"1612 319 CURVE",
"1636 374 OFFCURVE",
"1665 430 OFFCURVE",
"1695 483 CURVE",
"1770 499 OFFCURVE",
"2147 594 OFFCURVE",
"2147 692 CURVE SMOOTH",
"2147 756 OFFCURVE",
"1954 787 OFFCURVE",
"1903 797 CURVE"
);
},
{
closed = 1;
nodes = (
"2040 1039 OFFCURVE",
"2027 1025 OFFCURVE",
"2015 1010 CURVE SMOOTH",
"1959 945 OFFCURVE",
"1899 880 OFFCURVE",
"1845 812 CURVE",
"1835 814 OFFCURVE",
"1809 822 OFFCURVE",
"1809 836 CURVE SMOOTH",
"1809 846 OFFCURVE",
"1819 855 OFFCURVE",
"1826 862 CURVE SMOOTH",
"1874 906 OFFCURVE",
"1923 948 OFFCURVE",
"1972 990 CURVE SMOOTH",
"1997 1012 OFFCURVE",
"2023 1035 OFFCURVE",
"2052 1054 CURVE"
);
},
{
closed = 1;
nodes = (
"1911 752 OFFCURVE",
"1946 745 OFFCURVE",
"1982 737 CURVE SMOOTH",
"2006 730 OFFCURVE",
"2035 725 OFFCURVE",
"2058 716 CURVE SMOOTH",
"2068 711 OFFCURVE",
"2089 706 OFFCURVE",
"2089 690 CURVE SMOOTH",
"2089 684 OFFCURVE",
"2086 677 OFFCURVE",
"2083 672 CURVE",
"2040 591 OFFCURVE",
"1795 530 OFFCURVE",
"1712 512 CURVE",
"1763 597 OFFCURVE",
"1817 681 OFFCURVE",
"1876 761 CURVE"
);
},
{
closed = 1;
nodes = (
"1492 443 OFFCURVE",
"1550 453 OFFCURVE",
"1609 465 CURVE",
"1582 417 OFFCURVE",
"1557 366 OFFCURVE",
"1538 316 CURVE",
"1470 315 OFFCURVE",
"1401 320 OFFCURVE",
"1334 326 CURVE",
"1368 361 OFFCURVE",
"1400 397 OFFCURVE",
"1432 434 CURVE"
);
},
{
closed = 1;
nodes = (
"1097 370 OFFCURVE",
"1098 370 OFFCURVE",
"1098 370 CURVE",
"1116 378 OFFCURVE",
"1135 382 OFFCURVE",
"1154 386 CURVE SMOOTH",
"1217 400 OFFCURVE",
"1281 409 OFFCURVE",
"1346 419 CURVE",
"1317 391 OFFCURVE",
"1288 364 OFFCURVE",
"1259 335 CURVE",
"1210 343 OFFCURVE",
"1143 351 OFFCURVE",
"1098 369 CURVE",
"1098 369 OFFCURVE",
"1097 369 OFFCURVE",
"1097 369 CURVE"
);
}
);
};
layerId = "95C423A7-595F-441F-915A-E5EF8B5EF971";
paths = (
{
closed = 1;
nodes = (
"374 -285 OFFCURVE",
"467 -258 OFFCURVE",
"550 -222 CURVE SMOOTH",
"834 -101 OFFCURVE",
"1079 72 OFFCURVE",
"1297 289 CURVE",
"1348 286 OFFCURVE",
"1400 285 OFFCURVE",
"1450 285 CURVE SMOOTH",
"1476 285 OFFCURVE",
"1501 285 OFFCURVE",
"1526 286 CURVE",
"1508 235 OFFCURVE",
"1494 179 OFFCURVE",
"1494 125 CURVE SMOOTH",
"1494 66 OFFCURVE",
"1512 13 OFFCURVE",
"1560 -25 CURVE",
"1564 -26 OFFCURVE",
"1566 -27 OFFCURVE",
"1570 -27 CURVE SMOOTH",
"1579 -27 OFFCURVE",
"1587 -19 OFFCURVE",
"1587 -10 CURVE SMOOTH",
"1587 5 OFFCURVE",
"1547 14 OFFCURVE",
"1547 88 CURVE SMOOTH",
"1547 152 OFFCURVE",
"1574 231 OFFCURVE",
"1600 290 CURVE",
"1621 293 OFFCURVE",
"1735 302 OFFCURVE",
"1735 332 CURVE SMOOTH",
"1735 337 OFFCURVE",
"1732 341 OFFCURVE",
"1726 341 CURVE SMOOTH",
"1724 341 OFFCURVE",
"1721 339 OFFCURVE",
"1720 339 CURVE",
"1685 326 OFFCURVE",
"1649 321 OFFCURVE",
"1612 319 CURVE",
"1636 374 OFFCURVE",
"1665 430 OFFCURVE",
"1695 483 CURVE",
"1770 499 OFFCURVE",
"2147 594 OFFCURVE",
"2147 692 CURVE SMOOTH",
"2147 756 OFFCURVE",
"1954 787 OFFCURVE",
"1903 797 CURVE",
"1939 844 OFFCURVE",
"2166 1092 OFFCURVE",
"2166 1111 CURVE SMOOTH",
"2166 1129 OFFCURVE",
"2135 1138 OFFCURVE",
"2121 1138 CURVE SMOOTH",
"2112 1138 LINE",
"2070 1121 OFFCURVE",
"1791 879 OFFCURVE",
"1759 835 CURVE SMOOTH",
"1755 828 OFFCURVE",
"1750 822 OFFCURVE",
"1750 814 CURVE SMOOTH",
"1750 788 OFFCURVE",
"1799 781 OFFCURVE",
"1817 777 CURVE",
"1747 686 OFFCURVE",
"1683 592 OFFCURVE",
"1626 494 CURVE",
"1572 484 OFFCURVE",
"1519 477 OFFCURVE",
"1465 472 CURVE",
"1572 597 OFFCURVE",
"1671 733 OFFCURVE",
"1757 874 CURVE",
"1759 875 OFFCURVE",
"1760 879 OFFCURVE",
"1760 881 CURVE SMOOTH",
"1760 888 OFFCURVE",
"1754 890 OFFCURVE",
"1748 890 CURVE SMOOTH",
"1739 890 OFFCURVE",
"1733 886 OFFCURVE",
"1728 880 CURVE SMOOTH",
"1701 837 LINE SMOOTH",
"1677 805 OFFCURVE",
"1654 773 OFFCURVE",
"1630 742 CURVE SMOOTH",
"1556 645 OFFCURVE",
"1475 552 OFFCURVE",
"1390 465 CURVE",
"1310 458 OFFCURVE",
"991 437 OFFCURVE",
"939 415 CURVE SMOOTH",
"930 412 OFFCURVE",
"914 405 OFFCURVE",
"914 391 CURVE SMOOTH",
"914 387 OFFCURVE",
"915 382 OFFCURVE",
"917 379 CURVE SMOOTH",
"941 351 OFFCURVE",
"1036 323 OFFCURVE",
"1072 315 CURVE SMOOTH",
"1119 305 OFFCURVE",
"1168 299 OFFCURVE",
"1214 295 CURVE",
"1008 106 OFFCURVE",
"569 -249 OFFCURVE",
"268 -249 CURVE SMOOTH",
"142 -249 OFFCURVE",
"59 -182 OFFCURVE",
"59 -53 CURVE SMOOTH",
"59 165 OFFCURVE",
"267 375 OFFCURVE",
"443 479 CURVE SMOOTH",
"520 525 OFFCURVE",
"603 559 OFFCURVE",
"689 585 CURVE SMOOTH",
"723 594 OFFCURVE",
"757 600 OFFCURVE",
"791 600 CURVE SMOOTH",
"822 600 OFFCURVE",
"867 594 OFFCURVE",
"885 566 CURVE SMOOTH",
"889 560 OFFCURVE",
"892 556 OFFCURVE",
"899 556 CURVE SMOOTH",
"908 556 OFFCURVE",
"917 563 OFFCURVE",
"917 572 CURVE SMOOTH",
"917 574 OFFCURVE",
"916 577 OFFCURVE",
"915 578 CURVE",
"895 622 OFFCURVE",
"835 632 OFFCURVE",
"791 632 CURVE SMOOTH",
"754 632 OFFCURVE",
"716 626 OFFCURVE",
"680 615 CURVE SMOOTH",
"587 587 OFFCURVE",
"495 552 OFFCURVE",
"410 505 CURVE SMOOTH",
"223 400 OFFCURVE",
"17 197 OFFCURVE",
"17 -32 CURVE SMOOTH",
"17 -195 OFFCURVE",
"126 -285 OFFCURVE",
"284 -285 CURVE SMOOTH"
);
},
{
closed = 1;
nodes = (
"1210 343 OFFCURVE",
"1143 351 OFFCURVE",
"1098 369 CURVE",
"1097 369 LINE",
"1097 370 OFFCURVE",
"1098 370 OFFCURVE",
"1098 370 CURVE",
"1116 378 OFFCURVE",
"1135 382 OFFCURVE",
"1154 386 CURVE SMOOTH",
"1217 400 OFFCURVE",
"1281 409 OFFCURVE",
"1346 419 CURVE",
"1317 391 OFFCURVE",
"1288 364 OFFCURVE",
"1259 335 CURVE"
);
},
{
closed = 1;
nodes = (
"1470 315 OFFCURVE",
"1401 320 OFFCURVE",
"1334 326 CURVE",
"1368 361 OFFCURVE",
"1400 397 OFFCURVE",
"1432 434 CURVE",
"1492 443 OFFCURVE",
"1550 453 OFFCURVE",
"1609 465 CURVE",
"1582 417 OFFCURVE",
"1557 366 OFFCURVE",
"1538 316 CURVE"
);
},
{
closed = 1;
nodes = (
"1763 597 OFFCURVE",
"1817 681 OFFCURVE",
"1876 761 CURVE",
"1911 752 OFFCURVE",
"1946 745 OFFCURVE",
"1982 737 CURVE SMOOTH",
"2006 730 OFFCURVE",
"2035 725 OFFCURVE",
"2058 716 CURVE SMOOTH",
"2068 711 OFFCURVE",
"2089 706 OFFCURVE",
"2089 690 CURVE SMOOTH",
"2089 684 OFFCURVE",
"2086 677 OFFCURVE",
"2083 672 CURVE",
"2040 591 OFFCURVE",
"1795 530 OFFCURVE",
"1712 512 CURVE"
);
},
{
closed = 1;
nodes = (
"1835 814 OFFCURVE",
"1809 822 OFFCURVE",
"1809 836 CURVE SMOOTH",
"1809 846 OFFCURVE",
"1819 855 OFFCURVE",
"1826 862 CURVE SMOOTH",
"1874 906 OFFCURVE",
"1923 948 OFFCURVE",
"1972 990 CURVE SMOOTH",
"1997 1012 OFFCURVE",
"2023 1035 OFFCURVE",
"2052 1054 CURVE",
"2040 1039 OFFCURVE",
"2027 1025 OFFCURVE",
"2015 1010 CURVE SMOOTH",
"1959 945 OFFCURVE",
"1899 880 OFFCURVE",
"1845 812 CURVE"
);
},
{
closed = 1;
nodes = (
"2275 1205 OFFCURVE",
"2325 1248 OFFCURVE",
"2325 1266 CURVE SMOOTH",
"2325 1268 OFFCURVE",
"2323 1268 OFFCURVE",
"2321 1268 CURVE SMOOTH",
"2310 1268 OFFCURVE",
"2288 1237 OFFCURVE",
"2253 1237 CURVE SMOOTH",
"2174 1237 OFFCURVE",
"2126 1288 OFFCURVE",
"2072 1288 CURVE SMOOTH",
"2050 1288 OFFCURVE",
"1997 1248 OFFCURVE",
"1992 1228 CURVE",
"1992 1225 OFFCURVE",
"1995 1222 OFFCURVE",
"1999 1222 CURVE SMOOTH",
"2010 1222 OFFCURVE",
"2035 1258 OFFCURVE",
"2070 1258 CURVE SMOOTH",
"2129 1258 OFFCURVE",
"2191 1205 OFFCURVE",
"2255 1205 CURVE SMOOTH"
);
}
);
width = 1815;
}
);
note = Atilde;
unicode = 00C3;
},
{
glyphname = AE;
lastChange = "2021-09-15 03:21:52 +0000";
layers = (
{
background = {
paths = (
{
closed = 1;
nodes = (
"1929 954 OFFCURVE",
"1988 1012 OFFCURVE",
"2052 1054 CURVE",
"2040 1039 OFFCURVE",
"2027 1025 OFFCURVE",
"2015 1010 CURVE SMOOTH",
"1874 845 OFFCURVE",
"1735 684 OFFCURVE",
"1626 494 CURVE",
"1572 484 OFFCURVE",
"1519 477 OFFCURVE",
"1465 472 CURVE",
"1525 543 OFFCURVE",
"1745 763 OFFCURVE",
"1871 903 CURVE"
);
},
{
closed = 1;
nodes = (
"1492 443 OFFCURVE",
"1550 453 OFFCURVE",
"1609 465 CURVE",
"1582 417 OFFCURVE",
"1557 366 OFFCURVE",
"1538 316 CURVE",
"1470 315 OFFCURVE",
"1401 320 OFFCURVE",
"1334 326 CURVE",
"1368 361 OFFCURVE",
"1400 397 OFFCURVE",
"1432 434 CURVE"
);
},
{
closed = 1;
nodes = (
"1097 370 OFFCURVE",
"1098 370 OFFCURVE",
"1098 370 CURVE",
"1116 378 OFFCURVE",
"1135 382 OFFCURVE",
"1154 386 CURVE SMOOTH",
"1217 400 OFFCURVE",
"1281 409 OFFCURVE",
"1346 419 CURVE",
"1317 391 OFFCURVE",
"1288 364 OFFCURVE",
"1259 335 CURVE",
"1210 343 OFFCURVE",
"1143 351 OFFCURVE",
"1098 369 CURVE",
"1098 369 OFFCURVE",
"1097 369 OFFCURVE",
"1097 369 CURVE"
);
},
{
closed = 1;
nodes = (
"2680 975 OFFCURVE",
"2728 987 OFFCURVE",
"2728 1017 CURVE SMOOTH",
"2728 1027 OFFCURVE",
"2721 1035 OFFCURVE",
"2714 1041 CURVE SMOOTH",
"2677 1076 OFFCURVE",
"2577 1089 OFFCURVE",
"2530 1089 CURVE SMOOTH",
"2520 1089 OFFCURVE",
"2510 1089 OFFCURVE",
"2499 1088 CURVE SMOOTH",
"2454 1085 OFFCURVE",
"2410 1076 OFFCURVE",
"2369 1061 CURVE SMOOTH",
"2281 1027 OFFCURVE",
"2173 948 OFFCURVE",
"2173 845 CURVE SMOOTH",
"2173 777 OFFCURVE",
"2223 726 OFFCURVE",
"2279 694 CURVE",
"2125 676 OFFCURVE",
"1965 632 OFFCURVE",
"1828 559 CURVE SMOOTH",
"1783 534 OFFCURVE",
"1733 503 OFFCURVE",
"1686 466 CURVE",
"1695 483 LINE",
"1770 591 OFFCURVE",
"1846 746 OFFCURVE",
"1903 797 CURVE",
"1939 844 OFFCURVE",
"2166 1092 OFFCURVE",
"2166 1111 CURVE SMOOTH",
"2166 1129 OFFCURVE",
"2135 1138 OFFCURVE",
"2121 1138 CURVE SMOOTH",
"2119 1138 OFFCURVE",
"2116 1138 OFFCURVE",
"2112 1138 CURVE",
"1994 1094 OFFCURVE",
"1483 560 OFFCURVE",
"1390 465 CURVE",
"1310 458 OFFCURVE",
"991 437 OFFCURVE",
"939 415 CURVE SMOOTH",
"930 412 OFFCURVE",
"914 405 OFFCURVE",
"914 391 CURVE SMOOTH",
"914 387 OFFCURVE",
"915 382 OFFCURVE",
"917 379 CURVE SMOOTH",
"941 351 OFFCURVE",
"1036 323 OFFCURVE",
"1072 315 CURVE SMOOTH",
"1119 305 OFFCURVE",
"1168 299 OFFCURVE",
"1214 295 CURVE",
"1008 106 OFFCURVE",
"569 -249 OFFCURVE",
"268 -249 CURVE SMOOTH",
"142 -249 OFFCURVE",
"59 -182 OFFCURVE",
"59 -53 CURVE SMOOTH",
"59 165 OFFCURVE",
"267 375 OFFCURVE",
"443 479 CURVE SMOOTH",
"520 525 OFFCURVE",
"603 559 OFFCURVE",
"689 585 CURVE SMOOTH",
"723 594 OFFCURVE",
"757 600 OFFCURVE",
"791 600 CURVE SMOOTH",
"822 600 OFFCURVE",
"867 594 OFFCURVE",
"885 566 CURVE SMOOTH",
"889 560 OFFCURVE",
"892 556 OFFCURVE",
"899 556 CURVE SMOOTH",
"908 556 OFFCURVE",
"917 563 OFFCURVE",
"917 572 CURVE SMOOTH",
"917 574 OFFCURVE",
"916 577 OFFCURVE",
"915 578 CURVE",
"895 622 OFFCURVE",
"835 632 OFFCURVE",
"791 632 CURVE SMOOTH",
"754 632 OFFCURVE",
"716 626 OFFCURVE",
"680 615 CURVE SMOOTH",
"587 587 OFFCURVE",
"495 552 OFFCURVE",
"410 505 CURVE SMOOTH",
"223 400 OFFCURVE",
"17 199 OFFCURVE",
"17 -32 CURVE SMOOTH",
"17 -195 OFFCURVE",
"126 -285 OFFCURVE",
"284 -285 CURVE SMOOTH",
"374 -285 OFFCURVE",
"467 -258 OFFCURVE",
"550 -222 CURVE SMOOTH",
"834 -101 OFFCURVE",
"1079 72 OFFCURVE",
"1297 289 CURVE",
"1348 286 OFFCURVE",
"1400 285 OFFCURVE",
"1450 285 CURVE SMOOTH",
"1476 285 OFFCURVE",
"1501 285 OFFCURVE",
"1526 286 CURVE",
"1508 235 OFFCURVE",
"1494 179 OFFCURVE",
"1494 125 CURVE SMOOTH",
"1494 66 OFFCURVE",
"1512 13 OFFCURVE",
"1560 -25 CURVE",
"1564 -26 OFFCURVE",
"1566 -27 OFFCURVE",
"1570 -27 CURVE SMOOTH",
"1579 -27 OFFCURVE",
"1587 -19 OFFCURVE",
"1587 -10 CURVE SMOOTH",
"1587 4 OFFCURVE",
"1552 13 OFFCURVE",
"1547 74 CURVE",
"1592 0 OFFCURVE",
"1677 -49 OFFCURVE",
"1759 -76 CURVE",
"1759 -204 OFFCURVE",
"1823 -301 OFFCURVE",
"1942 -350 CURVE",
"1943 -350 OFFCURVE",
"1946 -351 OFFCURVE",
"1948 -351 CURVE SMOOTH",
"1959 -351 OFFCURVE",
"1966 -342 OFFCURVE",
"1966 -332 CURVE SMOOTH",
"1966 -324 OFFCURVE",
"1963 -319 OFFCURVE",
"1955 -316 CURVE",
"1938 -307 OFFCURVE",
"1921 -301 OFFCURVE",
"1905 -290 CURVE SMOOTH",
"1834 -244 OFFCURVE",
"1797 -172 OFFCURVE",
"1795 -88 CURVE",
"1879 -111 OFFCURVE",
"1966 -120 OFFCURVE",
"2054 -120 CURVE SMOOTH",
"2187 -120 OFFCURVE",
"2321 -101 OFFCURVE",
"2450 -67 CURVE SMOOTH",
"2523 -49 OFFCURVE",
"2594 -26 OFFCURVE",
"2663 6 CURVE SMOOTH",
"2805 72 OFFCURVE",
"2986 200 OFFCURVE",
"3005 370 CURVE SMOOTH",
"3005 377 OFFCURVE",
"3005 383 OFFCURVE",
"3005 390 CURVE SMOOTH",
"3005 542 OFFCURVE",
"2848 586 OFFCURVE",
"2723 586 CURVE SMOOTH",
"2654 586 OFFCURVE",
"2586 575 OFFCURVE",
"2520 560 CURVE SMOOTH",
"2249 494 OFFCURVE",
"1920 357 OFFCURVE",
"1796 88 CURVE SMOOTH",
"1775 45 OFFCURVE",
"1764 -1 OFFCURVE",
"1760 -49 CURVE",
"1668 -15 OFFCURVE",
"1592 49 OFFCURVE",
"1592 154 CURVE SMOOTH",
"1592 203 OFFCURVE",
"1609 250 OFFCURVE",
"1636 294 CURVE",
"1677 299 OFFCURVE",
"1735 311 OFFCURVE",
"1735 332 CURVE SMOOTH",
"1735 337 OFFCURVE",
"1732 341 OFFCURVE",
"1726 341 CURVE SMOOTH",
"1724 341 OFFCURVE",
"1721 339 OFFCURVE",
"1720 339 CURVE",
"1698 332 OFFCURVE",
"1677 326 OFFCURVE",
"1655 324 CURVE",
"1712 401 OFFCURVE",
"1797 465 OFFCURVE",
"1870 506 CURVE SMOOTH",
"2009 587 OFFCURVE",
"2190 641 OFFCURVE",
"2350 663 CURVE",
"2414 645 OFFCURVE",
"2485 636 OFFCURVE",
"2552 636 CURVE SMOOTH",
"2575 636 OFFCURVE",
"2661 639 OFFCURVE",
"2661 675 CURVE SMOOTH",
"2661 711 OFFCURVE",
"2506 707 OFFCURVE",
"2479 707 CURVE SMOOTH",
"2434 707 OFFCURVE",
"2388 705 OFFCURVE",
"2343 701 CURVE",
"2289 730 OFFCURVE",
"2243 778 OFFCURVE",
"2243 844 CURVE SMOOTH",
"2243 972 OFFCURVE",
"2391 1045 OFFCURVE",
"2501 1055 CURVE SMOOTH",
"2517 1057 OFFCURVE",
"2533 1058 OFFCURVE",
"2550 1058 CURVE SMOOTH",
"2594 1058 OFFCURVE",
"2648 1052 OFFCURVE",
"2681 1019 CURVE",
"2684 1018 OFFCURVE",
"2684 1015 OFFCURVE",
"2684 1013 CURVE SMOOTH",
"2684 985 OFFCURVE",
"2627 1006 OFFCURVE",
"2627 987 CURVE SMOOTH",
"2627 977 OFFCURVE",
"2649 975 OFFCURVE",
"2655 975 CURVE SMOOTH"
);
},
{
closed = 1;
nodes = (
"1797 -14 OFFCURVE",
"1810 31 OFFCURVE",
"1828 72 CURVE SMOOTH",
"1942 326 OFFCURVE",
"2276 465 OFFCURVE",
"2528 524 CURVE SMOOTH",
"2594 539 OFFCURVE",
"2662 551 OFFCURVE",
"2729 551 CURVE SMOOTH",
"2822 551 OFFCURVE",
"2952 524 OFFCURVE",
"2952 406 CURVE SMOOTH",
"2952 395 OFFCURVE",
"2951 383 OFFCURVE",
"2948 373 CURVE SMOOTH",
"2917 226 OFFCURVE",
"2733 106 OFFCURVE",
"2606 48 CURVE SMOOTH",
"2543 19 OFFCURVE",
"2476 -4 OFFCURVE",
"2409 -21 CURVE SMOOTH",
"2272 -57 OFFCURVE",
"2129 -83 OFFCURVE",
"1988 -83 CURVE SMOOTH",
"1924 -83 OFFCURVE",
"1858 -77 OFFCURVE",
"1795 -59 CURVE"
);
}
);
};
layerId = "95C423A7-595F-441F-915A-E5EF8B5EF971";
paths = (
{
closed = 1;
nodes = (
"1959 -351 OFFCURVE",
"1966 -342 OFFCURVE",
"1966 -332 CURVE SMOOTH",
"1966 -324 OFFCURVE",
"1963 -319 OFFCURVE",
"1955 -316 CURVE",
"1938 -307 OFFCURVE",
"1921 -301 OFFCURVE",
"1905 -290 CURVE SMOOTH",
"1834 -244 OFFCURVE",
"1797 -172 OFFCURVE",
"1795 -88 CURVE",
"1879 -111 OFFCURVE",
"1966 -120 OFFCURVE",
"2054 -120 CURVE SMOOTH",
"2187 -120 OFFCURVE",
"2321 -101 OFFCURVE",
"2450 -67 CURVE SMOOTH",
"2523 -49 OFFCURVE",
"2594 -26 OFFCURVE",
"2663 6 CURVE SMOOTH",
"2805 72 OFFCURVE",
"2986 200 OFFCURVE",
"3005 370 CURVE",
"3005 390 LINE SMOOTH",
"3005 542 OFFCURVE",
"2848 586 OFFCURVE",
"2723 586 CURVE SMOOTH",
"2654 586 OFFCURVE",
"2586 575 OFFCURVE",
"2520 560 CURVE SMOOTH",
"2249 494 OFFCURVE",
"1920 357 OFFCURVE",
"1796 88 CURVE SMOOTH",
"1775 45 OFFCURVE",
"1764 -1 OFFCURVE",
"1760 -49 CURVE",
"1668 -15 OFFCURVE",
"1592 49 OFFCURVE",
"1592 154 CURVE SMOOTH",
"1592 203 OFFCURVE",
"1609 250 OFFCURVE",
"1636 294 CURVE",
"1677 299 OFFCURVE",
"1735 311 OFFCURVE",
"1735 332 CURVE SMOOTH",
"1735 337 OFFCURVE",
"1732 341 OFFCURVE",
"1726 341 CURVE SMOOTH",
"1724 341 OFFCURVE",
"1721 339 OFFCURVE",
"1720 339 CURVE",
"1698 332 OFFCURVE",
"1677 326 OFFCURVE",
"1655 324 CURVE",
"1712 401 OFFCURVE",
"1797 465 OFFCURVE",
"1870 506 CURVE SMOOTH",
"2009 587 OFFCURVE",
"2190 641 OFFCURVE",
"2350 663 CURVE",
"2414 645 OFFCURVE",
"2485 636 OFFCURVE",
"2552 636 CURVE SMOOTH",
"2575 636 OFFCURVE",
"2661 639 OFFCURVE",
"2661 675 CURVE SMOOTH",
"2661 711 OFFCURVE",
"2506 707 OFFCURVE",
"2479 707 CURVE SMOOTH",
"2434 707 OFFCURVE",
"2388 705 OFFCURVE",
"2343 701 CURVE",
"2289 730 OFFCURVE",
"2243 778 OFFCURVE",
"2243 844 CURVE SMOOTH",
"2243 972 OFFCURVE",
"2391 1045 OFFCURVE",
"2501 1055 CURVE SMOOTH",
"2517 1057 OFFCURVE",
"2533 1058 OFFCURVE",
"2550 1058 CURVE SMOOTH",
"2594 1058 OFFCURVE",
"2648 1052 OFFCURVE",
"2681 1019 CURVE",
"2684 1018 OFFCURVE",
"2684 1015 OFFCURVE",
"2684 1013 CURVE SMOOTH",
"2684 985 OFFCURVE",
"2627 1006 OFFCURVE",
"2627 987 CURVE SMOOTH",
"2627 977 OFFCURVE",
"2649 975 OFFCURVE",
"2655 975 CURVE SMOOTH",
"2680 975 OFFCURVE",
"2728 987 OFFCURVE",
"2728 1017 CURVE SMOOTH",
"2728 1027 OFFCURVE",
"2721 1035 OFFCURVE",
"2714 1041 CURVE SMOOTH",
"2677 1076 OFFCURVE",
"2577 1089 OFFCURVE",
"2530 1089 CURVE SMOOTH",
"2520 1089 OFFCURVE",
"2510 1089 OFFCURVE",
"2499 1088 CURVE SMOOTH",
"2454 1085 OFFCURVE",
"2410 1076 OFFCURVE",
"2369 1061 CURVE SMOOTH",
"2281 1027 OFFCURVE",
"2173 948 OFFCURVE",
"2173 845 CURVE SMOOTH",
"2173 777 OFFCURVE",
"2223 726 OFFCURVE",
"2279 694 CURVE",
"2125 676 OFFCURVE",
"1965 632 OFFCURVE",
"1828 559 CURVE SMOOTH",
"1783 534 OFFCURVE",
"1733 503 OFFCURVE",
"1686 466 CURVE",
"1695 483 LINE",
"1770 591 OFFCURVE",
"1846 746 OFFCURVE",
"1903 797 CURVE",
"1939 844 OFFCURVE",
"2166 1092 OFFCURVE",
"2166 1111 CURVE SMOOTH",
"2166 1129 OFFCURVE",
"2135 1138 OFFCURVE",
"2121 1138 CURVE SMOOTH",
"2112 1138 LINE",
"1994 1094 OFFCURVE",
"1483 560 OFFCURVE",
"1390 465 CURVE",
"1310 458 OFFCURVE",
"991 437 OFFCURVE",
"939 415 CURVE SMOOTH",
"930 412 OFFCURVE",
"914 405 OFFCURVE",
"914 391 CURVE SMOOTH",
"914 387 OFFCURVE",
"915 382 OFFCURVE",
"917 379 CURVE SMOOTH",
"941 351 OFFCURVE",
"1036 323 OFFCURVE",
"1072 315 CURVE SMOOTH",
"1119 305 OFFCURVE",
"1168 299 OFFCURVE",
"1214 295 CURVE",
"1008 106 OFFCURVE",
"569 -249 OFFCURVE",
"268 -249 CURVE SMOOTH",
"142 -249 OFFCURVE",
"59 -182 OFFCURVE",
"59 -53 CURVE SMOOTH",
"59 165 OFFCURVE",
"267 375 OFFCURVE",
"443 479 CURVE SMOOTH",
"520 525 OFFCURVE",
"603 559 OFFCURVE",
"689 585 CURVE SMOOTH",
"723 594 OFFCURVE",
"757 600 OFFCURVE",
"791 600 CURVE SMOOTH",
"822 600 OFFCURVE",
"867 594 OFFCURVE",
"885 566 CURVE SMOOTH",
"889 560 OFFCURVE",
"892 556 OFFCURVE",
"899 556 CURVE SMOOTH",
"908 556 OFFCURVE",
"917 563 OFFCURVE",
"917 572 CURVE SMOOTH",
"917 574 OFFCURVE",
"916 577 OFFCURVE",
"915 578 CURVE",
"895 622 OFFCURVE",
"835 632 OFFCURVE",
"791 632 CURVE SMOOTH",
"754 632 OFFCURVE",
"716 626 OFFCURVE",
"680 615 CURVE SMOOTH",
"587 587 OFFCURVE",
"495 552 OFFCURVE",
"410 505 CURVE SMOOTH",
"223 400 OFFCURVE",
"17 199 OFFCURVE",
"17 -32 CURVE SMOOTH",
"17 -195 OFFCURVE",
"126 -285 OFFCURVE",
"284 -285 CURVE SMOOTH",
"374 -285 OFFCURVE",
"467 -258 OFFCURVE",
"550 -222 CURVE SMOOTH",
"834 -101 OFFCURVE",
"1079 72 OFFCURVE",
"1297 289 CURVE",
"1348 286 OFFCURVE",
"1400 285 OFFCURVE",
"1450 285 CURVE SMOOTH",
"1476 285 OFFCURVE",
"1501 285 OFFCURVE",
"1526 286 CURVE",
"1508 235 OFFCURVE",
"1494 179 OFFCURVE",
"1494 125 CURVE SMOOTH",
"1494 66 OFFCURVE",
"1512 13 OFFCURVE",
"1560 -25 CURVE",
"1564 -26 OFFCURVE",
"1566 -27 OFFCURVE",
"1570 -27 CURVE SMOOTH",
"1579 -27 OFFCURVE",
"1587 -19 OFFCURVE",
"1587 -10 CURVE SMOOTH",
"1587 4 OFFCURVE",
"1552 13 OFFCURVE",
"1547 74 CURVE",
"1592 0 OFFCURVE",
"1677 -49 OFFCURVE",
"1759 -76 CURVE",
"1759 -204 OFFCURVE",
"1823 -301 OFFCURVE",
"1942 -350 CURVE",
"1943 -350 OFFCURVE",
"1946 -351 OFFCURVE",
"1948 -351 CURVE SMOOTH"
);
},
{
closed = 1;
nodes = (
"1210 343 OFFCURVE",
"1143 351 OFFCURVE",
"1098 369 CURVE",
"1097 369 LINE",
"1097 370 OFFCURVE",
"1098 370 OFFCURVE",
"1098 370 CURVE",
"1116 378 OFFCURVE",
"1135 382 OFFCURVE",
"1154 386 CURVE SMOOTH",
"1217 400 OFFCURVE",
"1281 409 OFFCURVE",
"1346 419 CURVE",
"1317 391 OFFCURVE",
"1288 364 OFFCURVE",
"1259 335 CURVE"
);
},
{
closed = 1;
nodes = (
"1470 315 OFFCURVE",
"1401 320 OFFCURVE",
"1334 326 CURVE",
"1368 361 OFFCURVE",
"1400 397 OFFCURVE",
"1432 434 CURVE",
"1492 443 OFFCURVE",
"1550 453 OFFCURVE",
"1609 465 CURVE",
"1582 417 OFFCURVE",
"1557 366 OFFCURVE",
"1538 316 CURVE"
);
},
{
closed = 1;
nodes = (
"1525 543 OFFCURVE",
"1745 763 OFFCURVE",
"1871 903 CURVE",
"1929 954 OFFCURVE",
"1988 1012 OFFCURVE",
"2052 1054 CURVE",
"2040 1039 OFFCURVE",
"2027 1025 OFFCURVE",
"2015 1010 CURVE SMOOTH",
"1874 845 OFFCURVE",
"1735 684 OFFCURVE",
"1626 494 CURVE",
"1572 484 OFFCURVE",
"1519 477 OFFCURVE",
"1465 472 CURVE"
);
},
{
closed = 1;
nodes = (
"1924 -83 OFFCURVE",
"1858 -77 OFFCURVE",
"1795 -59 CURVE",
"1797 -14 OFFCURVE",
"1810 31 OFFCURVE",
"1828 72 CURVE SMOOTH",
"1942 326 OFFCURVE",
"2276 465 OFFCURVE",
"2528 524 CURVE SMOOTH",
"2594 539 OFFCURVE",
"2662 551 OFFCURVE",
"2729 551 CURVE SMOOTH",
"2822 551 OFFCURVE",
"2952 524 OFFCURVE",
"2952 406 CURVE SMOOTH",
"2952 395 OFFCURVE",
"2951 383 OFFCURVE",
"2948 373 CURVE SMOOTH",
"2917 226 OFFCURVE",
"2733 106 OFFCURVE",
"2606 48 CURVE SMOOTH",
"2543 19 OFFCURVE",
"2476 -4 OFFCURVE",
"2409 -21 CURVE SMOOTH",
"2272 -57 OFFCURVE",
"2129 -83 OFFCURVE",
"1988 -83 CURVE SMOOTH"
);
}
);
width = 3008;
}
);
note = AE;
unicode = 00C6;
},
{
glyphname = B;
lastChange = "2021-09-15 03:21:52 +0000";
layers = (
{
background = {
paths = (
{
closed = 1;
nodes = (
"1341 945 OFFCURVE",
"1341 978 OFFCURVE",
"1341 990 CURVE SMOOTH",
"1341 1068 OFFCURVE",
"1277 1102 OFFCURVE",
"1206 1102 CURVE SMOOTH",
"1135 1102 OFFCURVE",
"1034 1067 OFFCURVE",
"968 1041 CURVE",
"876 1076 OFFCURVE",
"773 1088 OFFCURVE",
"675 1088 CURVE SMOOTH",
"614 1088 OFFCURVE",
"552 1083 OFFCURVE",
"492 1075 CURVE SMOOTH",
"369 1058 OFFCURVE",
"90 978 OFFCURVE",
"23 870 CURVE SMOOTH",
"17 859 OFFCURVE",
"12 848 OFFCURVE",
"12 835 CURVE SMOOTH",
"12 803 OFFCURVE",
"46 795 OFFCURVE",
"72 795 CURVE SMOOTH",
"83 795 OFFCURVE",
"105 795 OFFCURVE",
"105 810 CURVE SMOOTH",
"105 826 OFFCURVE",
"55 810 OFFCURVE",
"55 831 CURVE SMOOTH",
"55 839 OFFCURVE",
"59 845 OFFCURVE",
"63 850 CURVE SMOOTH",
"130 955 OFFCURVE",
"395 1027 OFFCURVE",
"514 1043 CURVE SMOOTH",
"566 1050 OFFCURVE",
"621 1054 OFFCURVE",
"674 1054 CURVE SMOOTH",
"752 1054 OFFCURVE",
"836 1045 OFFCURVE",
"910 1015 CURVE",
"715 925 OFFCURVE",
"545 781 OFFCURVE",
"417 606 CURVE",
"399 610 OFFCURVE",
"381 613 OFFCURVE",
"361 613 CURVE SMOOTH",
"354 613 OFFCURVE",
"319 612 OFFCURVE",
"319 597 CURVE SMOOTH",
"319 578 OFFCURVE",
"357 557 OFFCURVE",
"373 551 CURVE",
"277 412 OFFCURVE",
"206 258 OFFCURVE",
"159 97 CURVE",
"88 93 OFFCURVE",
"-150 68 OFFCURVE",
"-150 -32 CURVE SMOOTH",
"-150 -72 OFFCURVE",
"-103 -79 OFFCURVE",
"-74 -79 CURVE SMOOTH",
"12 -79 OFFCURVE",
"95 -80 OFFCURVE",
"181 -80 CURVE SMOOTH",
"190 -80 OFFCURVE",
"199 -77 OFFCURVE",
"199 -66 CURVE SMOOTH",
"199 -44 OFFCURVE",
"174 -31 OFFCURVE",
"174 -8 CURVE SMOOTH",
"174 9 OFFCURVE",
"177 25 OFFCURVE",
"179 40 CURVE",
"209 43 OFFCURVE",
"239 43 OFFCURVE",
"268 43 CURVE SMOOTH",
"475 43 OFFCURVE",
"685 13 OFFCURVE",
"888 -30 CURVE SMOOTH",
"921 -36 OFFCURVE",
"954 -40 OFFCURVE",
"987 -40 CURVE SMOOTH",
"1094 -40 OFFCURVE",
"1217 13 OFFCURVE",
"1217 135 CURVE SMOOTH",
"1217 343 OFFCURVE",
"836 485 OFFCURVE",
"675 538 CURVE",
"817 560 OFFCURVE",
"1035 618 OFFCURVE",
"1117 750 CURVE SMOOTH",
"1135 778 OFFCURVE",
"1146 809 OFFCURVE",
"1146 843 CURVE SMOOTH",
"1146 917 OFFCURVE",
"1092 975 OFFCURVE",
"1030 1010 CURVE",
"1086 1035 OFFCURVE",
"1164 1063 OFFCURVE",
"1226 1063 CURVE SMOOTH",
"1277 1063 OFFCURVE",
"1317 1043 OFFCURVE",
"1317 986 CURVE SMOOTH",
"1317 975 OFFCURVE",
"1314 966 OFFCURVE",
"1314 956 CURVE SMOOTH",
"1314 951 OFFCURVE",
"1316 945 OFFCURVE",
"1323 945 CURVE SMOOTH"
);
},
{
closed = 1;
nodes = (
"1025 951 OFFCURVE",
"1065 899 OFFCURVE",
"1065 836 CURVE SMOOTH",
"1065 657 OFFCURVE",
"748 573 OFFCURVE",
"610 557 CURVE",
"566 570 OFFCURVE",
"523 583 OFFCURVE",
"479 594 CURVE",
"613 750 OFFCURVE",
"788 892 OFFCURVE",
"973 985 CURVE"
);
},
{
closed = 1;
nodes = (
"455 566 LINE",
"474 563 OFFCURVE",
"490 559 OFFCURVE",
"507 554 CURVE",
"488 555 OFFCURVE",
"470 556 OFFCURVE",
"450 560 CURVE"
);
},
{
closed = 1;
nodes = (
"379 581 LINE",
"378 582 OFFCURVE",
"377 583 OFFCURVE",
"377 585 CURVE",
"377 585 OFFCURVE",
"378 586 OFFCURVE",
"378 586 CURVE",
"381 583 OFFCURVE",
"383 582 OFFCURVE",
"385 581 CURVE"
);
},
{
closed = 1;
nodes = (
"394 579 LINE",
"391 578 LINE",
"385 581 LINE"
);
},
{
closed = 1;
nodes = (
"763 476 OFFCURVE",
"1128 342 OFFCURVE",
"1128 134 CURVE SMOOTH",
"1128 41 OFFCURVE",
"1048 -6 OFFCURVE",
"963 -6 CURVE SMOOTH",
"942 -6 OFFCURVE",
"923 -4 OFFCURVE",
"903 -1 CURVE SMOOTH",
"675 43 OFFCURVE",
"445 99 OFFCURVE",
"210 98 CURVE SMOOTH",
"195 98 LINE",
"243 257 OFFCURVE",
"326 403 OFFCURVE",
"428 533 CURVE",
"461 526 OFFCURVE",
"493 524 OFFCURVE",
"525 524 CURVE SMOOTH",
"550 524 OFFCURVE",
"574 525 OFFCURVE",
"599 528 CURVE"
);
},
{
closed = 1;
nodes = (
"-76 13 OFFCURVE",
"112 35 OFFCURVE",
"143 37 CURVE",
"138 19 OFFCURVE",
"134 1 OFFCURVE",
"129 -15 CURVE SMOOTH",
"121 -49 OFFCURVE",
"70 -53 OFFCURVE",
"43 -53 CURVE SMOOTH",
"25 -53 OFFCURVE",
"-76 -48 OFFCURVE",
"-76 -23 CURVE SMOOTH"
);
}
);
};
layerId = "95C423A7-595F-441F-915A-E5EF8B5EF971";
paths = (
{
closed = 1;
nodes = (
"190 -80 OFFCURVE",
"199 -77 OFFCURVE",
"199 -66 CURVE SMOOTH",
"199 -44 OFFCURVE",
"174 -31 OFFCURVE",
"174 -8 CURVE SMOOTH",
"174 9 OFFCURVE",
"177 25 OFFCURVE",
"179 40 CURVE",
"209 43 OFFCURVE",
"239 43 OFFCURVE",
"268 43 CURVE SMOOTH",
"643 43 OFFCURVE",
"850 -40 OFFCURVE",
"999 -40 CURVE SMOOTH",
"1094 -40 OFFCURVE",
"1217 13 OFFCURVE",
"1217 135 CURVE SMOOTH",
"1217 343 OFFCURVE",
"836 485 OFFCURVE",
"675 538 CURVE",
"817 560 OFFCURVE",
"1035 618 OFFCURVE",
"1117 750 CURVE SMOOTH",
"1135 778 OFFCURVE",
"1146 809 OFFCURVE",
"1146 843 CURVE SMOOTH",
"1146 917 OFFCURVE",
"1092 975 OFFCURVE",
"1030 1010 CURVE",
"1086 1035 OFFCURVE",
"1164 1063 OFFCURVE",
"1226 1063 CURVE SMOOTH",
"1277 1063 OFFCURVE",
"1317 1043 OFFCURVE",
"1317 986 CURVE SMOOTH",
"1317 975 OFFCURVE",
"1314 966 OFFCURVE",
"1314 956 CURVE SMOOTH",
"1314 951 OFFCURVE",
"1316 945 OFFCURVE",
"1323 945 CURVE SMOOTH",
"1341 945 OFFCURVE",
"1341 978 OFFCURVE",
"1341 990 CURVE SMOOTH",
"1341 1068 OFFCURVE",
"1277 1102 OFFCURVE",
"1206 1102 CURVE SMOOTH",
"1135 1102 OFFCURVE",
"1034 1067 OFFCURVE",
"968 1041 CURVE",
"876 1076 OFFCURVE",
"773 1088 OFFCURVE",
"675 1088 CURVE SMOOTH",
"614 1088 OFFCURVE",
"552 1083 OFFCURVE",
"492 1075 CURVE SMOOTH",
"369 1058 OFFCURVE",
"90 978 OFFCURVE",
"23 870 CURVE SMOOTH",
"17 859 OFFCURVE",
"12 848 OFFCURVE",
"12 835 CURVE SMOOTH",
"12 803 OFFCURVE",
"46 795 OFFCURVE",
"72 795 CURVE SMOOTH",
"83 795 OFFCURVE",
"105 795 OFFCURVE",
"105 810 CURVE SMOOTH",
"105 826 OFFCURVE",
"55 810 OFFCURVE",
"55 831 CURVE SMOOTH",
"55 839 OFFCURVE",
"59 845 OFFCURVE",
"63 850 CURVE SMOOTH",
"130 955 OFFCURVE",
"395 1027 OFFCURVE",
"514 1043 CURVE SMOOTH",
"566 1050 OFFCURVE",
"621 1054 OFFCURVE",
"674 1054 CURVE SMOOTH",
"752 1054 OFFCURVE",
"836 1045 OFFCURVE",
"910 1015 CURVE",
"715 925 OFFCURVE",
"545 781 OFFCURVE",
"417 606 CURVE",
"399 610 OFFCURVE",
"381 613 OFFCURVE",
"361 613 CURVE SMOOTH",
"354 613 OFFCURVE",
"319 612 OFFCURVE",
"319 597 CURVE SMOOTH",
"319 578 OFFCURVE",
"357 557 OFFCURVE",
"373 551 CURVE",
"277 412 OFFCURVE",
"206 258 OFFCURVE",
"159 97 CURVE",
"88 93 OFFCURVE",
"-150 68 OFFCURVE",
"-150 -32 CURVE SMOOTH",
"-150 -72 OFFCURVE",
"-103 -79 OFFCURVE",
"-74 -79 CURVE SMOOTH",
"12 -79 OFFCURVE",
"95 -80 OFFCURVE",
"181 -80 CURVE SMOOTH"
);
},
{
closed = 1;
nodes = (
"25 -53 OFFCURVE",
"-76 -48 OFFCURVE",
"-76 -23 CURVE SMOOTH",
"-76 13 OFFCURVE",
"112 35 OFFCURVE",
"143 37 CURVE",
"138 19 OFFCURVE",
"134 1 OFFCURVE",
"129 -15 CURVE SMOOTH",
"121 -49 OFFCURVE",
"70 -53 OFFCURVE",
"43 -53 CURVE SMOOTH"
);
},
{
closed = 1;
nodes = (
"850 -6 OFFCURVE",
"529 98 OFFCURVE",
"210 98 CURVE SMOOTH",
"195 98 LINE",
"243 257 OFFCURVE",
"326 403 OFFCURVE",
"428 533 CURVE",
"461 526 OFFCURVE",
"493 524 OFFCURVE",
"525 524 CURVE SMOOTH",
"550 524 OFFCURVE",
"574 525 OFFCURVE",
"599 528 CURVE",
"763 476 OFFCURVE",
"1128 342 OFFCURVE",
"1128 134 CURVE SMOOTH",
"1128 41 OFFCURVE",
"1048 -6 OFFCURVE",
"963 -6 CURVE SMOOTH"
);
},
{
closed = 1;
nodes = (
"391 577 OFFCURVE",
"387 577 OFFCURVE",
"385 578 CURVE SMOOTH",
"381 579 OFFCURVE",
"378 582 OFFCURVE",
"377 585 CURVE",
"378 586 LINE",
"383 585 OFFCURVE",
"388 582 OFFCURVE",
"394 579 CURVE",
"392 577 LINE"
);
},
{
closed = 1;
nodes = (
"488 555 OFFCURVE",
"470 556 OFFCURVE",
"450 560 CURVE",
"455 566 LINE",
"474 563 OFFCURVE",
"490 559 OFFCURVE",
"507 554 CURVE"
);
},
{
closed = 1;
nodes = (
"566 570 OFFCURVE",
"523 583 OFFCURVE",
"479 594 CURVE",
"613 750 OFFCURVE",
"788 892 OFFCURVE",
"973 985 CURVE",
"1025 951 OFFCURVE",
"1065 899 OFFCURVE",
"1065 836 CURVE SMOOTH",
"1065 657 OFFCURVE",
"748 573 OFFCURVE",
"610 557 CURVE"
);
}
);
width = 1241;
}
);
note = B;
unicode = 0042;
},
{
glyphname = C;
lastChange = "2021-09-15 03:21:52 +0000";
layers = (
{
background = {
paths = (
{
closed = 1;
nodes = (
"701 -79 OFFCURVE",
"979 -5 OFFCURVE",
"1164 107 CURVE SMOOTH",
"1227 146 OFFCURVE",
"1288 188 OFFCURVE",
"1346 235 CURVE SMOOTH",
"1435 307 OFFCURVE",
"1613 474 OFFCURVE",
"1613 599 CURVE SMOOTH",
"1613 612 OFFCURVE",
"1608 654 OFFCURVE",
"1590 654 CURVE SMOOTH",
"1582 654 OFFCURVE",
"1577 648 OFFCURVE",
"1577 640 CURVE SMOOTH",
"1577 630 OFFCURVE",
"1586 619 OFFCURVE",
"1586 603 CURVE SMOOTH",
"1586 492 OFFCURVE",
"1379 315 OFFCURVE",
"1299 253 CURVE SMOOTH",
"1244 210 OFFCURVE",
"1187 172 OFFCURVE",
"1128 135 CURVE SMOOTH",
"959 32 OFFCURVE",
"719 -37 OFFCURVE",
"519 -37 CURVE SMOOTH",
"329 -37 OFFCURVE",
"125 30 OFFCURVE",
"125 255 CURVE SMOOTH",
"125 370 OFFCURVE",
"182 488 OFFCURVE",
"246 581 CURVE",
"288 597 OFFCURVE",
"332 614 OFFCURVE",
"375 626 CURVE SMOOTH",
"381 627 OFFCURVE",
"390 628 OFFCURVE",
"395 631 CURVE SMOOTH",
"405 636 OFFCURVE",
"418 645 OFFCURVE",
"418 658 CURVE SMOOTH",
"418 675 OFFCURVE",
"394 675 OFFCURVE",
"382 675 CURVE SMOOTH",
"360 675 OFFCURVE",
"338 674 OFFCURVE",
"316 671 CURVE",
"435 805 OFFCURVE",
"586 914 OFFCURVE",
"754 975 CURVE SMOOTH",
"763 979 OFFCURVE",
"825 1001 OFFCURVE",
"830 1001 CURVE SMOOTH",
"852 1001 OFFCURVE",
"875 997 OFFCURVE",
"897 995 CURVE SMOOTH",
"1015 982 OFFCURVE",
"1166 946 OFFCURVE",
"1271 889 CURVE SMOOTH",
"1298 874 OFFCURVE",
"1320 857 OFFCURVE",
"1343 837 CURVE SMOOTH",
"1352 828 OFFCURVE",
"1361 822 OFFCURVE",
"1374 822 CURVE SMOOTH",
"1405 822 OFFCURVE",
"1415 866 OFFCURVE",
"1415 889 CURVE SMOOTH",
"1415 915 OFFCURVE",
"1408 937 OFFCURVE",
"1394 959 CURVE SMOOTH",
"1386 972 OFFCURVE",
"1365 986 OFFCURVE",
"1352 995 CURVE SMOOTH",
"1270 1046 OFFCURVE",
"1155 1066 OFFCURVE",
"1059 1066 CURVE SMOOTH",
"1009 1066 OFFCURVE",
"959 1061 OFFCURVE",
"910 1052 CURVE SMOOTH",
"890 1049 OFFCURVE",
"849 1036 OFFCURVE",
"835 1035 CURVE SMOOTH",
"813 1034 OFFCURVE",
"792 1035 OFFCURVE",
"772 1034 CURVE SMOOTH",
"741 1031 OFFCURVE",
"708 1028 OFFCURVE",
"677 1025 CURVE SMOOTH",
"501 1005 OFFCURVE",
"196 930 OFFCURVE",
"57 813 CURVE SMOOTH",
"34 792 OFFCURVE",
"1 760 OFFCURVE",
"1 725 CURVE SMOOTH",
"1 653 OFFCURVE",
"143 637 OFFCURVE",
"196 634 CURVE",
"179 614 OFFCURVE",
"163 592 OFFCURVE",
"147 570 CURVE",
"130 561 OFFCURVE",
"70 533 OFFCURVE",
"70 510 CURVE SMOOTH",
"70 505 OFFCURVE",
"74 498 OFFCURVE",
"81 498 CURVE SMOOTH",
"88 498 OFFCURVE",
"89 502 OFFCURVE",
"93 506 CURVE SMOOTH",
"98 512 OFFCURVE",
"110 519 OFFCURVE",
"116 523 CURVE",
"71 445 OFFCURVE",
"40 359 OFFCURVE",
"40 270 CURVE SMOOTH",
"40 205 OFFCURVE",
"57 143 OFFCURVE",
"89 88 CURVE SMOOTH",
"166 -48 OFFCURVE",
"343 -79 OFFCURVE",
"485 -79 CURVE SMOOTH"
);
},
{
closed = 1;
nodes = (
"996 1032 OFFCURVE",
"1028 1035 OFFCURVE",
"1059 1035 CURVE SMOOTH",
"1147 1035 OFFCURVE",
"1252 1017 OFFCURVE",
"1329 972 CURVE SMOOTH",
"1339 965 OFFCURVE",
"1360 951 OFFCURVE",
"1368 941 CURVE SMOOTH",
"1373 932 OFFCURVE",
"1378 921 OFFCURVE",
"1378 910 CURVE SMOOTH",
"1378 906 OFFCURVE",
"1377 897 OFFCURVE",
"1372 897 CURVE SMOOTH",
"1365 897 OFFCURVE",
"1359 905 OFFCURVE",
"1355 908 CURVE SMOOTH",
"1288 968 OFFCURVE",
"1055 1015 OFFCURVE",
"965 1028 CURVE"
);
},
{
closed = 1;
nodes = (
"37 754 OFFCURVE",
"63 774 OFFCURVE",
"79 788 CURVE SMOOTH",
"105 812 OFFCURVE",
"139 831 OFFCURVE",
"170 846 CURVE SMOOTH",
"329 930 OFFCURVE",
"542 982 OFFCURVE",
"720 997 CURVE",
"534 924 OFFCURVE",
"359 814 OFFCURVE",
"223 666 CURVE",
"187 666 OFFCURVE",
"37 676 OFFCURVE",
"37 730 CURVE SMOOTH"
);
},
{
closed = 1;
nodes = (
"293 636 LINE",
"285 632 LINE",
"286 635 LINE"
);
}
);
};
layerId = "95C423A7-595F-441F-915A-E5EF8B5EF971";
paths = (
{
closed = 1;
nodes = (
"701 -79 OFFCURVE",
"979 -5 OFFCURVE",
"1164 107 CURVE SMOOTH",
"1227 146 OFFCURVE",
"1288 188 OFFCURVE",
"1346 235 CURVE SMOOTH",
"1435 307 OFFCURVE",
"1613 474 OFFCURVE",
"1613 599 CURVE SMOOTH",
"1613 612 OFFCURVE",
"1608 654 OFFCURVE",
"1590 654 CURVE SMOOTH",
"1582 654 OFFCURVE",
"1577 648 OFFCURVE",
"1577 640 CURVE SMOOTH",
"1577 630 OFFCURVE",
"1586 619 OFFCURVE",
"1586 603 CURVE SMOOTH",
"1586 492 OFFCURVE",
"1379 315 OFFCURVE",
"1299 253 CURVE SMOOTH",
"1244 210 OFFCURVE",
"1187 172 OFFCURVE",
"1128 135 CURVE SMOOTH",
"959 32 OFFCURVE",
"719 -37 OFFCURVE",
"519 -37 CURVE SMOOTH",
"329 -37 OFFCURVE",
"125 30 OFFCURVE",
"125 255 CURVE SMOOTH",
"125 370 OFFCURVE",
"182 488 OFFCURVE",
"246 581 CURVE",
"288 597 OFFCURVE",
"332 614 OFFCURVE",
"375 626 CURVE SMOOTH",
"381 627 OFFCURVE",
"390 628 OFFCURVE",
"395 631 CURVE SMOOTH",
"405 636 OFFCURVE",
"418 645 OFFCURVE",
"418 658 CURVE SMOOTH",
"418 675 OFFCURVE",
"394 675 OFFCURVE",
"382 675 CURVE SMOOTH",
"360 675 OFFCURVE",
"338 674 OFFCURVE",
"316 671 CURVE",
"435 805 OFFCURVE",
"586 914 OFFCURVE",
"754 975 CURVE SMOOTH",
"763 979 OFFCURVE",
"825 1001 OFFCURVE",
"830 1001 CURVE SMOOTH",
"852 1001 OFFCURVE",
"875 997 OFFCURVE",
"897 995 CURVE SMOOTH",
"1015 982 OFFCURVE",
"1166 946 OFFCURVE",
"1271 889 CURVE SMOOTH",
"1298 874 OFFCURVE",
"1320 857 OFFCURVE",
"1343 837 CURVE SMOOTH",
"1352 828 OFFCURVE",
"1361 822 OFFCURVE",
"1374 822 CURVE SMOOTH",
"1405 822 OFFCURVE",
"1415 866 OFFCURVE",
"1415 889 CURVE SMOOTH",
"1415 915 OFFCURVE",
"1408 937 OFFCURVE",
"1394 959 CURVE SMOOTH",
"1386 972 OFFCURVE",
"1365 986 OFFCURVE",
"1352 995 CURVE SMOOTH",
"1270 1046 OFFCURVE",
"1155 1066 OFFCURVE",
"1059 1066 CURVE SMOOTH",
"1009 1066 OFFCURVE",
"959 1061 OFFCURVE",
"910 1052 CURVE SMOOTH",
"890 1049 OFFCURVE",
"849 1036 OFFCURVE",
"835 1035 CURVE SMOOTH",
"813 1034 OFFCURVE",
"792 1035 OFFCURVE",
"772 1034 CURVE SMOOTH",
"741 1031 OFFCURVE",
"708 1028 OFFCURVE",
"677 1025 CURVE SMOOTH",
"501 1005 OFFCURVE",
"196 930 OFFCURVE",
"57 813 CURVE SMOOTH",
"34 792 OFFCURVE",
"1 760 OFFCURVE",
"1 725 CURVE SMOOTH",
"1 653 OFFCURVE",
"143 637 OFFCURVE",
"196 634 CURVE",
"179 614 OFFCURVE",
"163 592 OFFCURVE",
"147 570 CURVE",
"130 561 OFFCURVE",
"70 533 OFFCURVE",
"70 510 CURVE SMOOTH",
"70 505 OFFCURVE",
"74 498 OFFCURVE",
"81 498 CURVE SMOOTH",
"88 498 OFFCURVE",
"89 502 OFFCURVE",
"93 506 CURVE SMOOTH",
"98 512 OFFCURVE",
"110 519 OFFCURVE",
"116 523 CURVE",
"71 445 OFFCURVE",
"40 359 OFFCURVE",
"40 270 CURVE SMOOTH",
"40 205 OFFCURVE",
"57 143 OFFCURVE",
"89 88 CURVE SMOOTH",
"166 -48 OFFCURVE",
"343 -79 OFFCURVE",
"485 -79 CURVE SMOOTH"
);
},
{
closed = 1;
nodes = (
"187 666 OFFCURVE",
"37 676 OFFCURVE",
"37 730 CURVE SMOOTH",
"37 754 OFFCURVE",
"63 774 OFFCURVE",
"79 788 CURVE SMOOTH",
"105 812 OFFCURVE",
"139 831 OFFCURVE",
"170 846 CURVE SMOOTH",
"329 930 OFFCURVE",
"542 982 OFFCURVE",
"720 997 CURVE",
"534 924 OFFCURVE",
"359 814 OFFCURVE",
"223 666 CURVE"
);
},
{
closed = 1;
nodes = (
"1365 897 OFFCURVE",
"1359 905 OFFCURVE",
"1355 908 CURVE SMOOTH",
"1288 968 OFFCURVE",
"1055 1015 OFFCURVE",
"965 1028 CURVE",
"996 1032 OFFCURVE",
"1028 1035 OFFCURVE",
"1059 1035 CURVE SMOOTH",
"1147 1035 OFFCURVE",
"1252 1017 OFFCURVE",
"1329 972 CURVE SMOOTH",
"1339 965 OFFCURVE",
"1360 951 OFFCURVE",
"1368 941 CURVE SMOOTH",
"1373 932 OFFCURVE",
"1378 921 OFFCURVE",
"1378 910 CURVE SMOOTH",
"1378 906 OFFCURVE",
"1377 897 OFFCURVE",
"1372 897 CURVE SMOOTH"
);
}
);
width = 1625;
}
);
note = C;
unicode = 0043;
},
{
color = 11;
glyphname = Ccedilla;
lastChange = "2021-09-15 03:21:52 +0000";
layers = (
{
background = {
paths = (
{
closed = 1;
nodes = (
"701 -79 OFFCURVE",
"979 -5 OFFCURVE",
"1164 107 CURVE SMOOTH",
"1227 146 OFFCURVE",
"1288 188 OFFCURVE",
"1346 235 CURVE SMOOTH",
"1435 307 OFFCURVE",
"1613 474 OFFCURVE",
"1613 599 CURVE SMOOTH",
"1613 612 OFFCURVE",
"1608 654 OFFCURVE",
"1590 654 CURVE SMOOTH",
"1582 654 OFFCURVE",
"1577 648 OFFCURVE",
"1577 640 CURVE SMOOTH",
"1577 630 OFFCURVE",
"1586 619 OFFCURVE",
"1586 603 CURVE SMOOTH",
"1586 492 OFFCURVE",
"1379 315 OFFCURVE",
"1299 253 CURVE SMOOTH",
"1244 210 OFFCURVE",
"1187 172 OFFCURVE",
"1128 135 CURVE SMOOTH",
"959 32 OFFCURVE",
"719 -37 OFFCURVE",
"519 -37 CURVE SMOOTH",
"329 -37 OFFCURVE",
"125 30 OFFCURVE",
"125 255 CURVE SMOOTH",
"125 370 OFFCURVE",
"182 488 OFFCURVE",
"246 581 CURVE",
"288 597 OFFCURVE",
"332 614 OFFCURVE",
"375 626 CURVE SMOOTH",
"381 627 OFFCURVE",
"390 628 OFFCURVE",
"395 631 CURVE SMOOTH",
"405 636 OFFCURVE",
"418 645 OFFCURVE",
"418 658 CURVE SMOOTH",
"418 675 OFFCURVE",
"394 675 OFFCURVE",
"382 675 CURVE SMOOTH",
"360 675 OFFCURVE",
"338 674 OFFCURVE",
"316 671 CURVE",
"435 805 OFFCURVE",
"586 914 OFFCURVE",
"754 975 CURVE SMOOTH",
"763 979 OFFCURVE",
"825 1001 OFFCURVE",
"830 1001 CURVE SMOOTH",
"852 1001 OFFCURVE",
"875 997 OFFCURVE",
"897 995 CURVE SMOOTH",
"1015 982 OFFCURVE",
"1166 946 OFFCURVE",
"1271 889 CURVE SMOOTH",
"1298 874 OFFCURVE",
"1320 857 OFFCURVE",
"1343 837 CURVE SMOOTH",
"1352 828 OFFCURVE",
"1361 822 OFFCURVE",
"1374 822 CURVE SMOOTH",
"1405 822 OFFCURVE",
"1415 866 OFFCURVE",
"1415 889 CURVE SMOOTH",
"1415 915 OFFCURVE",
"1408 937 OFFCURVE",
"1394 959 CURVE SMOOTH",
"1386 972 OFFCURVE",
"1365 986 OFFCURVE",
"1352 995 CURVE SMOOTH",
"1270 1046 OFFCURVE",
"1155 1066 OFFCURVE",
"1059 1066 CURVE SMOOTH",
"1009 1066 OFFCURVE",
"959 1061 OFFCURVE",
"910 1052 CURVE SMOOTH",
"890 1049 OFFCURVE",
"849 1036 OFFCURVE",
"835 1035 CURVE SMOOTH",
"813 1034 OFFCURVE",
"792 1035 OFFCURVE",
"772 1034 CURVE SMOOTH",
"741 1031 OFFCURVE",
"708 1028 OFFCURVE",
"677 1025 CURVE SMOOTH",
"501 1005 OFFCURVE",
"196 930 OFFCURVE",
"57 813 CURVE SMOOTH",
"34 792 OFFCURVE",
"1 760 OFFCURVE",
"1 725 CURVE SMOOTH",
"1 653 OFFCURVE",
"143 637 OFFCURVE",
"196 634 CURVE",
"179 614 OFFCURVE",
"163 592 OFFCURVE",
"147 570 CURVE",
"130 561 OFFCURVE",
"70 533 OFFCURVE",
"70 510 CURVE SMOOTH",
"70 505 OFFCURVE",
"74 498 OFFCURVE",
"81 498 CURVE SMOOTH",
"88 498 OFFCURVE",
"89 502 OFFCURVE",
"93 506 CURVE SMOOTH",
"98 512 OFFCURVE",
"110 519 OFFCURVE",
"116 523 CURVE",
"71 445 OFFCURVE",
"40 359 OFFCURVE",
"40 270 CURVE SMOOTH",
"40 205 OFFCURVE",
"57 143 OFFCURVE",
"89 88 CURVE SMOOTH",
"146 -12 OFFCURVE",
"255 -54 OFFCURVE",
"366 -70 CURVE",
"360 -75 OFFCURVE",
"354 -81 OFFCURVE",
"345 -92 CURVE SMOOTH",
"326 -112 OFFCURVE",
"315 -141 OFFCURVE",
"315 -164 CURVE SMOOTH",
"315 -204 OFFCURVE",
"370 -244 OFFCURVE",
"370 -275 CURVE SMOOTH",
"370 -354 OFFCURVE",
"307 -337 OFFCURVE",
"258 -348 CURVE",
"254 -348 OFFCURVE",
"248 -351 OFFCURVE",
"248 -356 CURVE SMOOTH",
"248 -361 OFFCURVE",
"252 -368 OFFCURVE",
"258 -368 CURVE SMOOTH",
"317 -368 OFFCURVE",
"414 -337 OFFCURVE",
"414 -265 CURVE SMOOTH",
"414 -212 OFFCURVE",
"352 -175 OFFCURVE",
"352 -146 CURVE SMOOTH",
"352 -128 OFFCURVE",
"361 -114 OFFCURVE",
"369 -99 CURVE SMOOTH",
"375 -88 OFFCURVE",
"379 -79 OFFCURVE",
"381 -72 CURVE",
"417 -76 OFFCURVE",
"452 -79 OFFCURVE",
"485 -79 CURVE SMOOTH"
);
},
{
closed = 1;
nodes = (
"996 1032 OFFCURVE",
"1028 1035 OFFCURVE",
"1059 1035 CURVE SMOOTH",
"1147 1035 OFFCURVE",
"1252 1017 OFFCURVE",
"1329 972 CURVE SMOOTH",
"1339 965 OFFCURVE",
"1360 951 OFFCURVE",
"1368 941 CURVE SMOOTH",
"1373 932 OFFCURVE",
"1378 921 OFFCURVE",
"1378 910 CURVE SMOOTH",
"1378 906 OFFCURVE",
"1377 897 OFFCURVE",
"1372 897 CURVE SMOOTH",
"1365 897 OFFCURVE",
"1359 905 OFFCURVE",
"1355 908 CURVE SMOOTH",
"1288 968 OFFCURVE",
"1055 1015 OFFCURVE",
"965 1028 CURVE"
);
},
{
closed = 1;
nodes = (
"37 754 OFFCURVE",
"63 774 OFFCURVE",
"79 788 CURVE SMOOTH",
"105 812 OFFCURVE",
"139 831 OFFCURVE",
"170 846 CURVE SMOOTH",
"329 930 OFFCURVE",
"542 982 OFFCURVE",
"720 997 CURVE",
"534 924 OFFCURVE",
"359 814 OFFCURVE",
"223 666 CURVE",
"187 666 OFFCURVE",
"37 676 OFFCURVE",
"37 730 CURVE SMOOTH"
);
},
{
closed = 1;
nodes = (
"293 636 LINE",
"285 632 LINE",
"286 635 LINE"
);
}
);
};
layerId = "95C423A7-595F-441F-915A-E5EF8B5EF971";
paths = (
{
closed = 1;
nodes = (
"317 -368 OFFCURVE",
"414 -337 OFFCURVE",
"414 -265 CURVE SMOOTH",
"414 -212 OFFCURVE",
"352 -175 OFFCURVE",
"352 -146 CURVE SMOOTH",
"352 -128 OFFCURVE",
"361 -114 OFFCURVE",
"369 -99 CURVE SMOOTH",
"375 -88 OFFCURVE",
"379 -79 OFFCURVE",
"381 -72 CURVE",
"417 -76 OFFCURVE",
"452 -79 OFFCURVE",
"485 -79 CURVE SMOOTH",
"701 -79 OFFCURVE",
"979 -5 OFFCURVE",
"1164 107 CURVE SMOOTH",
"1227 146 OFFCURVE",
"1288 188 OFFCURVE",
"1346 235 CURVE SMOOTH",
"1435 307 OFFCURVE",
"1613 474 OFFCURVE",
"1613 599 CURVE SMOOTH",
"1613 612 OFFCURVE",
"1608 654 OFFCURVE",
"1590 654 CURVE SMOOTH",
"1582 654 OFFCURVE",
"1577 648 OFFCURVE",
"1577 640 CURVE SMOOTH",
"1577 630 OFFCURVE",
"1586 619 OFFCURVE",
"1586 603 CURVE SMOOTH",
"1586 492 OFFCURVE",
"1379 315 OFFCURVE",
"1299 253 CURVE SMOOTH",
"1244 210 OFFCURVE",
"1187 172 OFFCURVE",
"1128 135 CURVE SMOOTH",
"959 32 OFFCURVE",
"719 -37 OFFCURVE",
"519 -37 CURVE SMOOTH",
"329 -37 OFFCURVE",
"125 30 OFFCURVE",
"125 255 CURVE SMOOTH",
"125 370 OFFCURVE",
"182 488 OFFCURVE",
"246 581 CURVE",
"288 597 OFFCURVE",
"332 614 OFFCURVE",
"375 626 CURVE SMOOTH",
"381 627 OFFCURVE",
"390 628 OFFCURVE",
"395 631 CURVE SMOOTH",
"405 636 OFFCURVE",
"418 645 OFFCURVE",
"418 658 CURVE SMOOTH",
"418 675 OFFCURVE",
"394 675 OFFCURVE",
"382 675 CURVE SMOOTH",
"360 675 OFFCURVE",
"338 674 OFFCURVE",
"316 671 CURVE",
"435 805 OFFCURVE",
"586 914 OFFCURVE",
"754 975 CURVE SMOOTH",
"763 979 OFFCURVE",
"825 1001 OFFCURVE",
"830 1001 CURVE SMOOTH",
"852 1001 OFFCURVE",
"875 997 OFFCURVE",
"897 995 CURVE SMOOTH",
"1015 982 OFFCURVE",
"1166 946 OFFCURVE",
"1271 889 CURVE SMOOTH",
"1298 874 OFFCURVE",
"1320 857 OFFCURVE",
"1343 837 CURVE SMOOTH",
"1352 828 OFFCURVE",
"1361 822 OFFCURVE",
"1374 822 CURVE SMOOTH",
"1405 822 OFFCURVE",
"1415 866 OFFCURVE",
"1415 889 CURVE SMOOTH",
"1415 915 OFFCURVE",
"1408 937 OFFCURVE",
"1394 959 CURVE SMOOTH",
"1386 972 OFFCURVE",
"1365 986 OFFCURVE",
"1352 995 CURVE SMOOTH",
"1270 1046 OFFCURVE",
"1155 1066 OFFCURVE",
"1059 1066 CURVE SMOOTH",
"1009 1066 OFFCURVE",
"959 1061 OFFCURVE",
"910 1052 CURVE SMOOTH",
"890 1049 OFFCURVE",
"849 1036 OFFCURVE",
"835 1035 CURVE SMOOTH",
"813 1034 OFFCURVE",
"792 1035 OFFCURVE",
"772 1034 CURVE SMOOTH",
"741 1031 OFFCURVE",
"708 1028 OFFCURVE",
"677 1025 CURVE SMOOTH",
"501 1005 OFFCURVE",
"196 930 OFFCURVE",
"57 813 CURVE SMOOTH",
"34 792 OFFCURVE",
"1 760 OFFCURVE",
"1 725 CURVE SMOOTH",
"1 653 OFFCURVE",
"143 637 OFFCURVE",
"196 634 CURVE",
"179 614 OFFCURVE",
"163 592 OFFCURVE",
"147 570 CURVE",
"130 561 OFFCURVE",
"70 533 OFFCURVE",
"70 510 CURVE SMOOTH",
"70 505 OFFCURVE",
"74 498 OFFCURVE",
"81 498 CURVE SMOOTH",
"88 498 OFFCURVE",
"89 502 OFFCURVE",
"93 506 CURVE SMOOTH",
"98 512 OFFCURVE",
"110 519 OFFCURVE",
"116 523 CURVE",
"71 445 OFFCURVE",
"40 359 OFFCURVE",
"40 270 CURVE SMOOTH",
"40 205 OFFCURVE",
"57 143 OFFCURVE",
"89 88 CURVE SMOOTH",
"146 -12 OFFCURVE",
"255 -54 OFFCURVE",
"366 -70 CURVE",
"360 -75 OFFCURVE",
"354 -81 OFFCURVE",
"345 -92 CURVE SMOOTH",
"326 -112 OFFCURVE",
"315 -141 OFFCURVE",
"315 -164 CURVE SMOOTH",
"315 -204 OFFCURVE",
"370 -244 OFFCURVE",
"370 -275 CURVE SMOOTH",
"370 -354 OFFCURVE",
"307 -337 OFFCURVE",
"258 -348 CURVE",
"254 -348 OFFCURVE",
"248 -351 OFFCURVE",
"248 -356 CURVE SMOOTH",
"248 -361 OFFCURVE",
"252 -368 OFFCURVE",
"258 -368 CURVE SMOOTH"
);
},
{
closed = 1;
nodes = (
"286 635 LINE",
"293 636 LINE",
"285 632 LINE"
);
},
{
closed = 1;
nodes = (
"187 666 OFFCURVE",
"37 676 OFFCURVE",
"37 730 CURVE SMOOTH",
"37 754 OFFCURVE",
"63 774 OFFCURVE",
"79 788 CURVE SMOOTH",
"105 812 OFFCURVE",
"139 831 OFFCURVE",
"170 846 CURVE SMOOTH",
"329 930 OFFCURVE",
"542 982 OFFCURVE",
"720 997 CURVE",
"534 924 OFFCURVE",
"359 814 OFFCURVE",
"223 666 CURVE"
);
},
{
closed = 1;
nodes = (
"1365 897 OFFCURVE",
"1359 905 OFFCURVE",
"1355 908 CURVE SMOOTH",
"1288 968 OFFCURVE",
"1055 1015 OFFCURVE",
"965 1028 CURVE",
"996 1032 OFFCURVE",
"1028 1035 OFFCURVE",
"1059 1035 CURVE SMOOTH",
"1147 1035 OFFCURVE",
"1252 1017 OFFCURVE",
"1329 972 CURVE SMOOTH",
"1339 965 OFFCURVE",
"1360 951 OFFCURVE",
"1368 941 CURVE SMOOTH",
"1373 932 OFFCURVE",
"1378 921 OFFCURVE",
"1378 910 CURVE SMOOTH",
"1378 906 OFFCURVE",
"1377 897 OFFCURVE",
"1372 897 CURVE SMOOTH"
);
}
);
width = 1625;
}
);
note = Ccedilla;
unicode = 00C7;
},
{
glyphname = D;
lastChange = "2021-09-15 03:21:52 +0000";
layers = (
{
background = {
paths = (
{
closed = 1;
nodes = (
"948 1006 OFFCURVE",
"956 999 OFFCURVE",
"964 999 CURVE SMOOTH",
"981 999 OFFCURVE",
"988 1025 OFFCURVE",
"988 1036 CURVE SMOOTH",
"988 1057 OFFCURVE",
"975 1067 OFFCURVE",
"956 1067 CURVE SMOOTH",
"915 1067 OFFCURVE",
"790 997 OFFCURVE",
"750 973 CURVE",
"655 1071 OFFCURVE",
"472 1200 OFFCURVE",
"333 1200 CURVE SMOOTH",
"188 1200 OFFCURVE",
"151 1061 OFFCURVE",
"151 942 CURVE SMOOTH",
"151 805 OFFCURVE",
"200 636 OFFCURVE",
"268 516 CURVE",
"175 388 OFFCURVE",
"70 214 OFFCURVE",
"15 63 CURVE SMOOTH",
"9 45 OFFCURVE",
"4 27 OFFCURVE",
"4 9 CURVE SMOOTH",
"4 -25 OFFCURVE",
"25 -43 OFFCURVE",
"57 -43 CURVE SMOOTH",
"88 -43 OFFCURVE",
"120 -28 OFFCURVE",
"145 -10 CURVE SMOOTH",
"175 12 OFFCURVE",
"255 121 OFFCURVE",
"280 156 CURVE",
"342 1 OFFCURVE",
"510 -110 OFFCURVE",
"675 -110 CURVE SMOOTH",
"774 -110 OFFCURVE",
"863 -70 OFFCURVE",
"932 3 CURVE SMOOTH",
"1009 85 OFFCURVE",
"1037 199 OFFCURVE",
"1037 308 CURVE SMOOTH",
"1037 534 OFFCURVE",
"925 778 OFFCURVE",
"777 943 CURVE",
"805 964 OFFCURVE",
"921 1037 OFFCURVE",
"954 1037 CURVE SMOOTH",
"956 1037 OFFCURVE",
"957 1036 OFFCURVE",
"957 1032 CURVE SMOOTH",
"957 1030 OFFCURVE",
"948 1022 OFFCURVE",
"948 1014 CURVE SMOOTH"
);
},
{
closed = 1;
nodes = (
"246 661 OFFCURVE",
"213 805 OFFCURVE",
"213 924 CURVE SMOOTH",
"213 1022 OFFCURVE",
"237 1157 OFFCURVE",
"363 1157 CURVE SMOOTH",
"483 1157 OFFCURVE",
"641 1041 OFFCURVE",
"719 954 CURVE",
"555 848 OFFCURVE",
"414 707 OFFCURVE",
"295 552 CURVE"
);
},
{
closed = 1;
nodes = (
"879 752 OFFCURVE",
"960 508 OFFCURVE",
"960 293 CURVE SMOOTH",
"960 210 OFFCURVE",
"946 93 OFFCURVE",
"886 30 CURVE SMOOTH",
"825 -35 OFFCURVE",
"743 -74 OFFCURVE",
"653 -74 CURVE SMOOTH",
"497 -74 OFFCURVE",
"348 39 OFFCURVE",
"302 187 CURVE",
"307 196 OFFCURVE",
"326 221 OFFCURVE",
"326 232 CURVE SMOOTH",
"326 250 OFFCURVE",
"302 259 OFFCURVE",
"288 259 CURVE SMOOTH",
"272 259 OFFCURVE",
"259 253 OFFCURVE",
"259 236 CURVE SMOOTH",
"259 222 OFFCURVE",
"263 206 OFFCURVE",
"267 192 CURVE",
"244 159 OFFCURVE",
"155 35 OFFCURVE",
"126 14 CURVE SMOOTH",
"111 3 OFFCURVE",
"77 -14 OFFCURVE",
"59 -14 CURVE SMOOTH",
"49 -14 OFFCURVE",
"45 -12 OFFCURVE",
"45 0 CURVE SMOOTH",
"45 77 OFFCURVE",
"262 387 OFFCURVE",
"310 452 CURVE",
"361 381 OFFCURVE",
"430 312 OFFCURVE",
"508 274 CURVE SMOOTH",
"511 272 OFFCURVE",
"514 271 OFFCURVE",
"516 271 CURVE SMOOTH",
"521 271 OFFCURVE",
"526 276 OFFCURVE",
"526 283 CURVE SMOOTH",
"526 290 OFFCURVE",
"520 294 OFFCURVE",
"515 298 CURVE SMOOTH",
"499 307 OFFCURVE",
"484 315 OFFCURVE",
"470 324 CURVE SMOOTH",
"412 364 OFFCURVE",
"366 421 OFFCURVE",
"332 481 CURVE",
"452 641 OFFCURVE",
"587 799 OFFCURVE",
"746 921 CURVE"
);
},
{
closed = 1;
nodes = (
"289 230 OFFCURVE",
"288 230 OFFCURVE",
"286 230 CURVE",
"290 235 LINE",
"290 228 LINE"
);
}
);
};
layerId = "95C423A7-595F-441F-915A-E5EF8B5EF971";
paths = (
{
closed = 1;
nodes = (
"774 -110 OFFCURVE",
"863 -70 OFFCURVE",
"932 3 CURVE SMOOTH",
"1009 85 OFFCURVE",
"1037 199 OFFCURVE",
"1037 308 CURVE SMOOTH",
"1037 534 OFFCURVE",
"925 778 OFFCURVE",
"777 943 CURVE",
"805 964 OFFCURVE",
"921 1037 OFFCURVE",
"954 1037 CURVE SMOOTH",
"956 1037 OFFCURVE",
"957 1036 OFFCURVE",
"957 1032 CURVE SMOOTH",
"957 1030 OFFCURVE",
"948 1022 OFFCURVE",
"948 1014 CURVE SMOOTH",
"948 1006 OFFCURVE",
"956 999 OFFCURVE",
"964 999 CURVE SMOOTH",
"981 999 OFFCURVE",
"988 1025 OFFCURVE",
"988 1036 CURVE SMOOTH",
"988 1057 OFFCURVE",
"975 1067 OFFCURVE",
"956 1067 CURVE SMOOTH",
"915 1067 OFFCURVE",
"790 997 OFFCURVE",
"750 973 CURVE",
"655 1071 OFFCURVE",
"472 1200 OFFCURVE",
"333 1200 CURVE SMOOTH",
"188 1200 OFFCURVE",
"151 1061 OFFCURVE",
"151 942 CURVE SMOOTH",
"151 805 OFFCURVE",
"200 636 OFFCURVE",
"268 516 CURVE",
"175 388 OFFCURVE",
"70 214 OFFCURVE",
"15 63 CURVE SMOOTH",
"9 45 OFFCURVE",
"4 27 OFFCURVE",
"4 9 CURVE SMOOTH",
"4 -25 OFFCURVE",
"25 -43 OFFCURVE",
"57 -43 CURVE SMOOTH",
"88 -43 OFFCURVE",
"120 -28 OFFCURVE",
"145 -10 CURVE SMOOTH",
"175 12 OFFCURVE",
"255 121 OFFCURVE",
"280 156 CURVE",
"342 1 OFFCURVE",
"510 -110 OFFCURVE",
"675 -110 CURVE SMOOTH"
);
},
{
closed = 1;
nodes = (
"290 228 LINE",
"289 230 OFFCURVE",
"288 230 OFFCURVE",
"286 230 CURVE",
"290 235 LINE"
);
},
{
closed = 1;
nodes = (
"497 -74 OFFCURVE",
"348 39 OFFCURVE",
"302 187 CURVE",
"307 196 OFFCURVE",
"326 221 OFFCURVE",
"326 232 CURVE SMOOTH",
"326 250 OFFCURVE",
"302 259 OFFCURVE",
"288 259 CURVE SMOOTH",
"272 259 OFFCURVE",
"259 253 OFFCURVE",
"259 236 CURVE SMOOTH",
"259 222 OFFCURVE",
"263 206 OFFCURVE",
"267 192 CURVE",
"244 159 OFFCURVE",
"155 35 OFFCURVE",
"126 14 CURVE SMOOTH",
"111 3 OFFCURVE",
"77 -14 OFFCURVE",
"59 -14 CURVE SMOOTH",
"49 -14 OFFCURVE",
"45 -12 OFFCURVE",
"45 0 CURVE SMOOTH",
"45 77 OFFCURVE",
"262 387 OFFCURVE",
"310 452 CURVE",
"361 381 OFFCURVE",
"430 312 OFFCURVE",
"508 274 CURVE SMOOTH",
"511 272 OFFCURVE",
"514 271 OFFCURVE",
"516 271 CURVE SMOOTH",
"521 271 OFFCURVE",
"526 276 OFFCURVE",
"526 283 CURVE SMOOTH",
"526 290 OFFCURVE",
"520 294 OFFCURVE",
"515 298 CURVE SMOOTH",
"499 307 OFFCURVE",
"484 315 OFFCURVE",
"470 324 CURVE SMOOTH",
"412 364 OFFCURVE",
"366 421 OFFCURVE",
"332 481 CURVE",
"452 641 OFFCURVE",
"587 799 OFFCURVE",
"746 921 CURVE",
"879 752 OFFCURVE",
"960 508 OFFCURVE",
"960 293 CURVE SMOOTH",
"960 210 OFFCURVE",
"946 93 OFFCURVE",
"886 30 CURVE SMOOTH",
"825 -35 OFFCURVE",
"743 -74 OFFCURVE",
"653 -74 CURVE SMOOTH"
);
},
{
closed = 1;
nodes = (
"246 661 OFFCURVE",
"213 805 OFFCURVE",
"213 924 CURVE SMOOTH",
"213 1022 OFFCURVE",
"237 1157 OFFCURVE",
"363 1157 CURVE SMOOTH",
"483 1157 OFFCURVE",
"641 1041 OFFCURVE",
"719 954 CURVE",
"555 848 OFFCURVE",
"414 707 OFFCURVE",
"295 552 CURVE"
);
}
);
width = 1066;
}
);
note = D;
unicode = 0044;
},
{
glyphname = E;
lastChange = "2021-09-15 03:21:52 +0000";
layers = (
{
background = {
paths = (
{
closed = 1;
nodes = (
"1150 975 OFFCURVE",
"1197 987 OFFCURVE",
"1197 1017 CURVE SMOOTH",
"1197 1027 OFFCURVE",
"1191 1035 OFFCURVE",
"1185 1041 CURVE SMOOTH",
"1148 1076 OFFCURVE",
"1048 1089 OFFCURVE",
"1000 1089 CURVE SMOOTH",
"990 1089 OFFCURVE",
"981 1089 OFFCURVE",
"970 1088 CURVE SMOOTH",
"925 1085 OFFCURVE",
"881 1076 OFFCURVE",
"839 1061 CURVE SMOOTH",
"751 1027 OFFCURVE",
"644 948 OFFCURVE",
"644 845 CURVE SMOOTH",
"644 777 OFFCURVE",
"694 726 OFFCURVE",
"750 694 CURVE",
"596 676 OFFCURVE",
"435 632 OFFCURVE",
"299 559 CURVE SMOOTH",
"168 488 OFFCURVE",
"-15 356 OFFCURVE",
"-15 187 CURVE SMOOTH",
"-15 49 OFFCURVE",
"111 -36 OFFCURVE",
"228 -76 CURVE",
"228 -204 OFFCURVE",
"294 -301 OFFCURVE",
"412 -350 CURVE",
"414 -350 OFFCURVE",
"417 -351 OFFCURVE",
"419 -351 CURVE SMOOTH",
"430 -351 OFFCURVE",
"437 -342 OFFCURVE",
"437 -332 CURVE SMOOTH",
"437 -324 OFFCURVE",
"432 -319 OFFCURVE",
"426 -316 CURVE SMOOTH",
"409 -307 OFFCURVE",
"392 -301 OFFCURVE",
"375 -290 CURVE SMOOTH",
"305 -244 OFFCURVE",
"268 -172 OFFCURVE",
"266 -88 CURVE",
"350 -111 OFFCURVE",
"437 -120 OFFCURVE",
"524 -120 CURVE SMOOTH",
"657 -120 OFFCURVE",
"792 -101 OFFCURVE",
"920 -67 CURVE SMOOTH",
"994 -49 OFFCURVE",
"1065 -26 OFFCURVE",
"1133 6 CURVE SMOOTH",
"1275 72 OFFCURVE",
"1455 200 OFFCURVE",
"1475 370 CURVE SMOOTH",
"1476 377 OFFCURVE",
"1476 383 OFFCURVE",
"1476 390 CURVE SMOOTH",
"1476 542 OFFCURVE",
"1319 586 OFFCURVE",
"1194 586 CURVE SMOOTH",
"1125 586 OFFCURVE",
"1057 575 OFFCURVE",
"991 560 CURVE SMOOTH",
"720 494 OFFCURVE",
"391 357 OFFCURVE",
"266 88 CURVE SMOOTH",
"246 45 OFFCURVE",
"234 -1 OFFCURVE",
"230 -49 CURVE",
"139 -15 OFFCURVE",
"63 49 OFFCURVE",
"63 154 CURVE SMOOTH",
"63 306 OFFCURVE",
"219 437 OFFCURVE",
"339 506 CURVE SMOOTH",
"480 587 OFFCURVE",
"661 641 OFFCURVE",
"821 663 CURVE",
"884 645 OFFCURVE",
"956 636 OFFCURVE",
"1022 636 CURVE SMOOTH",
"1045 636 OFFCURVE",
"1130 639 OFFCURVE",
"1130 675 CURVE SMOOTH",
"1130 711 OFFCURVE",
"975 707 OFFCURVE",
"950 707 CURVE SMOOTH",
"905 707 OFFCURVE",
"859 705 OFFCURVE",
"814 701 CURVE",
"760 730 OFFCURVE",
"714 778 OFFCURVE",
"714 844 CURVE SMOOTH",
"714 972 OFFCURVE",
"862 1045 OFFCURVE",
"972 1055 CURVE SMOOTH",
"987 1057 OFFCURVE",
"1004 1058 OFFCURVE",
"1021 1058 CURVE SMOOTH",
"1065 1058 OFFCURVE",
"1119 1052 OFFCURVE",
"1152 1019 CURVE SMOOTH",
"1154 1018 OFFCURVE",
"1155 1015 OFFCURVE",
"1155 1013 CURVE SMOOTH",
"1155 985 OFFCURVE",
"1098 1006 OFFCURVE",
"1098 987 CURVE SMOOTH",
"1098 977 OFFCURVE",
"1120 975 OFFCURVE",
"1126 975 CURVE SMOOTH"
);
},
{
closed = 1;
nodes = (
"268 -14 OFFCURVE",
"281 31 OFFCURVE",
"299 72 CURVE SMOOTH",
"413 326 OFFCURVE",
"747 465 OFFCURVE",
"999 524 CURVE SMOOTH",
"1065 539 OFFCURVE",
"1132 551 OFFCURVE",
"1200 551 CURVE SMOOTH",
"1293 551 OFFCURVE",
"1423 524 OFFCURVE",
"1423 406 CURVE SMOOTH",
"1423 395 OFFCURVE",
"1422 383 OFFCURVE",
"1419 373 CURVE SMOOTH",
"1387 226 OFFCURVE",
"1204 106 OFFCURVE",
"1077 48 CURVE SMOOTH",
"1014 19 OFFCURVE",
"947 -4 OFFCURVE",
"880 -21 CURVE SMOOTH",
"743 -57 OFFCURVE",
"600 -83 OFFCURVE",
"458 -83 CURVE SMOOTH",
"394 -83 OFFCURVE",
"328 -77 OFFCURVE",
"266 -59 CURVE"
);
}
);
};
layerId = "95C423A7-595F-441F-915A-E5EF8B5EF971";
paths = (
{
closed = 1;
nodes = (
"430 -351 OFFCURVE",
"437 -342 OFFCURVE",
"437 -332 CURVE SMOOTH",
"437 -324 OFFCURVE",
"432 -319 OFFCURVE",
"426 -316 CURVE SMOOTH",
"409 -307 OFFCURVE",
"392 -301 OFFCURVE",
"375 -290 CURVE SMOOTH",
"305 -244 OFFCURVE",
"268 -172 OFFCURVE",
"266 -88 CURVE",
"350 -111 OFFCURVE",
"437 -120 OFFCURVE",
"524 -120 CURVE SMOOTH",
"657 -120 OFFCURVE",
"792 -101 OFFCURVE",
"920 -67 CURVE SMOOTH",
"994 -49 OFFCURVE",
"1065 -26 OFFCURVE",
"1133 6 CURVE SMOOTH",
"1275 72 OFFCURVE",
"1455 200 OFFCURVE",
"1475 370 CURVE SMOOTH",
"1476 377 OFFCURVE",
"1476 383 OFFCURVE",
"1476 390 CURVE SMOOTH",
"1476 542 OFFCURVE",
"1319 586 OFFCURVE",
"1194 586 CURVE SMOOTH",
"1125 586 OFFCURVE",
"1057 575 OFFCURVE",
"991 560 CURVE SMOOTH",
"720 494 OFFCURVE",
"391 357 OFFCURVE",
"266 88 CURVE SMOOTH",
"246 45 OFFCURVE",
"234 -1 OFFCURVE",
"230 -49 CURVE",
"139 -15 OFFCURVE",
"63 49 OFFCURVE",
"63 154 CURVE SMOOTH",
"63 306 OFFCURVE",
"219 437 OFFCURVE",
"339 506 CURVE SMOOTH",
"480 587 OFFCURVE",
"661 641 OFFCURVE",
"821 663 CURVE",
"884 645 OFFCURVE",
"956 636 OFFCURVE",
"1022 636 CURVE SMOOTH",
"1045 636 OFFCURVE",
"1130 639 OFFCURVE",
"1130 675 CURVE SMOOTH",
"1130 711 OFFCURVE",
"975 707 OFFCURVE",
"950 707 CURVE SMOOTH",
"905 707 OFFCURVE",
"859 705 OFFCURVE",
"814 701 CURVE",
"760 730 OFFCURVE",
"714 778 OFFCURVE",
"714 844 CURVE SMOOTH",
"714 972 OFFCURVE",
"862 1045 OFFCURVE",
"972 1055 CURVE SMOOTH",
"987 1057 OFFCURVE",
"1004 1058 OFFCURVE",
"1021 1058 CURVE SMOOTH",
"1065 1058 OFFCURVE",
"1119 1052 OFFCURVE",
"1152 1019 CURVE SMOOTH",
"1154 1018 OFFCURVE",
"1155 1015 OFFCURVE",
"1155 1013 CURVE SMOOTH",
"1155 985 OFFCURVE",
"1098 1006 OFFCURVE",
"1098 987 CURVE SMOOTH",
"1098 977 OFFCURVE",
"1120 975 OFFCURVE",
"1126 975 CURVE SMOOTH",
"1150 975 OFFCURVE",
"1197 987 OFFCURVE",
"1197 1017 CURVE SMOOTH",
"1197 1027 OFFCURVE",
"1191 1035 OFFCURVE",
"1185 1041 CURVE SMOOTH",
"1148 1076 OFFCURVE",
"1048 1089 OFFCURVE",
"1000 1089 CURVE SMOOTH",
"990 1089 OFFCURVE",
"981 1089 OFFCURVE",
"970 1088 CURVE SMOOTH",
"925 1085 OFFCURVE",
"881 1076 OFFCURVE",
"839 1061 CURVE SMOOTH",
"751 1027 OFFCURVE",
"644 948 OFFCURVE",
"644 845 CURVE SMOOTH",
"644 777 OFFCURVE",
"694 726 OFFCURVE",
"750 694 CURVE",
"596 676 OFFCURVE",
"435 632 OFFCURVE",
"299 559 CURVE SMOOTH",
"168 488 OFFCURVE",
"-15 356 OFFCURVE",
"-15 187 CURVE SMOOTH",
"-15 49 OFFCURVE",
"111 -36 OFFCURVE",
"228 -76 CURVE",
"228 -204 OFFCURVE",
"294 -301 OFFCURVE",
"412 -350 CURVE",
"414 -350 OFFCURVE",
"417 -351 OFFCURVE",
"419 -351 CURVE SMOOTH"
);
},
{
closed = 1;
nodes = (
"394 -83 OFFCURVE",
"328 -77 OFFCURVE",
"266 -59 CURVE",
"268 -14 OFFCURVE",
"281 31 OFFCURVE",
"299 72 CURVE SMOOTH",
"413 326 OFFCURVE",
"747 465 OFFCURVE",
"999 524 CURVE SMOOTH",
"1065 539 OFFCURVE",
"1132 551 OFFCURVE",
"1200 551 CURVE SMOOTH",
"1293 551 OFFCURVE",
"1423 524 OFFCURVE",
"1423 406 CURVE SMOOTH",
"1423 395 OFFCURVE",
"1422 383 OFFCURVE",
"1419 373 CURVE SMOOTH",
"1387 226 OFFCURVE",
"1204 106 OFFCURVE",
"1077 48 CURVE SMOOTH",
"1014 19 OFFCURVE",
"947 -4 OFFCURVE",
"880 -21 CURVE SMOOTH",
"743 -57 OFFCURVE",
"600 -83 OFFCURVE",
"458 -83 CURVE SMOOTH"
);
}
);
width = 1480;
}
);
note = E;
unicode = 0045;
},
{
color = 11;
glyphname = Eacute;
lastChange = "2021-09-15 03:21:52 +0000";
layers = (
{
background = {
paths = (
{
closed = 1;
nodes = (
"1030 1154 OFFCURVE",
"1034 1155 OFFCURVE",
"1037 1157 CURVE SMOOTH",
"1097 1192 OFFCURVE",
"1157 1223 OFFCURVE",
"1218 1255 CURVE SMOOTH",
"1234 1263 OFFCURVE",
"1262 1280 OFFCURVE",
"1262 1301 CURVE SMOOTH",
"1262 1315 OFFCURVE",
"1244 1321 OFFCURVE",
"1232 1321 CURVE SMOOTH",
"1209 1321 OFFCURVE",
"1188 1308 OFFCURVE",
"1173 1294 CURVE SMOOTH",
"1151 1275 OFFCURVE",
"1018 1183 OFFCURVE",
"1018 1163 CURVE SMOOTH",
"1018 1157 OFFCURVE",
"1021 1154 OFFCURVE",
"1026 1154 CURVE SMOOTH"
);
},
{
closed = 1;
nodes = (
"1150 975 OFFCURVE",
"1197 987 OFFCURVE",
"1197 1017 CURVE SMOOTH",
"1197 1027 OFFCURVE",
"1191 1035 OFFCURVE",
"1185 1041 CURVE SMOOTH",
"1148 1076 OFFCURVE",
"1048 1089 OFFCURVE",
"1000 1089 CURVE SMOOTH",
"990 1089 OFFCURVE",
"981 1089 OFFCURVE",
"970 1088 CURVE SMOOTH",
"925 1085 OFFCURVE",
"881 1076 OFFCURVE",
"839 1061 CURVE SMOOTH",
"751 1027 OFFCURVE",
"644 948 OFFCURVE",
"644 845 CURVE SMOOTH",
"644 777 OFFCURVE",
"694 726 OFFCURVE",
"750 694 CURVE",
"596 676 OFFCURVE",
"435 632 OFFCURVE",
"299 559 CURVE SMOOTH",
"168 488 OFFCURVE",
"-15 356 OFFCURVE",
"-15 187 CURVE SMOOTH",
"-15 49 OFFCURVE",
"111 -36 OFFCURVE",
"228 -76 CURVE",
"228 -204 OFFCURVE",
"294 -301 OFFCURVE",
"412 -350 CURVE",
"414 -350 OFFCURVE",
"417 -351 OFFCURVE",
"419 -351 CURVE SMOOTH",
"430 -351 OFFCURVE",
"437 -342 OFFCURVE",
"437 -332 CURVE SMOOTH",
"437 -324 OFFCURVE",
"432 -319 OFFCURVE",
"426 -316 CURVE SMOOTH",
"409 -307 OFFCURVE",
"392 -301 OFFCURVE",
"375 -290 CURVE SMOOTH",
"305 -244 OFFCURVE",
"268 -172 OFFCURVE",
"266 -88 CURVE",
"350 -111 OFFCURVE",
"437 -120 OFFCURVE",
"524 -120 CURVE SMOOTH",
"657 -120 OFFCURVE",
"792 -101 OFFCURVE",
"920 -67 CURVE SMOOTH",
"994 -49 OFFCURVE",
"1065 -26 OFFCURVE",
"1133 6 CURVE SMOOTH",
"1275 72 OFFCURVE",
"1455 200 OFFCURVE",
"1475 370 CURVE SMOOTH",
"1476 377 OFFCURVE",
"1476 383 OFFCURVE",
"1476 390 CURVE SMOOTH",
"1476 542 OFFCURVE",
"1319 586 OFFCURVE",
"1194 586 CURVE SMOOTH",
"1125 586 OFFCURVE",
"1057 575 OFFCURVE",
"991 560 CURVE SMOOTH",
"720 494 OFFCURVE",
"391 357 OFFCURVE",
"266 88 CURVE SMOOTH",
"246 45 OFFCURVE",
"234 -1 OFFCURVE",
"230 -49 CURVE",
"139 -15 OFFCURVE",
"63 49 OFFCURVE",
"63 154 CURVE SMOOTH",
"63 306 OFFCURVE",
"219 437 OFFCURVE",
"339 506 CURVE SMOOTH",
"480 587 OFFCURVE",
"661 641 OFFCURVE",
"821 663 CURVE",
"884 645 OFFCURVE",
"956 636 OFFCURVE",
"1022 636 CURVE SMOOTH",
"1045 636 OFFCURVE",
"1130 639 OFFCURVE",
"1130 675 CURVE SMOOTH",
"1130 711 OFFCURVE",
"975 707 OFFCURVE",
"950 707 CURVE SMOOTH",
"905 707 OFFCURVE",
"859 705 OFFCURVE",
"814 701 CURVE",
"760 730 OFFCURVE",
"714 778 OFFCURVE",
"714 844 CURVE SMOOTH",
"714 972 OFFCURVE",
"862 1045 OFFCURVE",
"972 1055 CURVE SMOOTH",
"987 1057 OFFCURVE",
"1004 1058 OFFCURVE",
"1021 1058 CURVE SMOOTH",
"1065 1058 OFFCURVE",
"1119 1052 OFFCURVE",
"1152 1019 CURVE SMOOTH",
"1154 1018 OFFCURVE",
"1155 1015 OFFCURVE",
"1155 1013 CURVE SMOOTH",
"1155 985 OFFCURVE",
"1098 1006 OFFCURVE",
"1098 987 CURVE SMOOTH",
"1098 977 OFFCURVE",
"1120 975 OFFCURVE",
"1126 975 CURVE SMOOTH"
);
},
{
closed = 1;
nodes = (
"268 -14 OFFCURVE",
"281 31 OFFCURVE",
"299 72 CURVE SMOOTH",
"413 326 OFFCURVE",
"747 465 OFFCURVE",
"999 524 CURVE SMOOTH",
"1065 539 OFFCURVE",
"1132 551 OFFCURVE",
"1200 551 CURVE SMOOTH",
"1293 551 OFFCURVE",
"1423 524 OFFCURVE",
"1423 406 CURVE SMOOTH",
"1423 395 OFFCURVE",
"1422 383 OFFCURVE",
"1419 373 CURVE SMOOTH",
"1387 226 OFFCURVE",
"1204 106 OFFCURVE",
"1077 48 CURVE SMOOTH",
"1014 19 OFFCURVE",
"947 -4 OFFCURVE",
"880 -21 CURVE SMOOTH",
"743 -57 OFFCURVE",
"600 -83 OFFCURVE",
"458 -83 CURVE SMOOTH",
"394 -83 OFFCURVE",
"328 -77 OFFCURVE",
"266 -59 CURVE"
);
}
);
};
layerId = "95C423A7-595F-441F-915A-E5EF8B5EF971";
paths = (
{
closed = 1;
nodes = (
"430 -351 OFFCURVE",
"437 -342 OFFCURVE",
"437 -332 CURVE SMOOTH",
"437 -324 OFFCURVE",
"432 -319 OFFCURVE",
"426 -316 CURVE SMOOTH",
"409 -307 OFFCURVE",
"392 -301 OFFCURVE",
"375 -290 CURVE SMOOTH",
"305 -244 OFFCURVE",
"268 -172 OFFCURVE",
"266 -88 CURVE",
"350 -111 OFFCURVE",
"437 -120 OFFCURVE",
"524 -120 CURVE SMOOTH",
"657 -120 OFFCURVE",
"792 -101 OFFCURVE",
"920 -67 CURVE SMOOTH",
"994 -49 OFFCURVE",
"1065 -26 OFFCURVE",
"1133 6 CURVE SMOOTH",
"1275 72 OFFCURVE",
"1455 200 OFFCURVE",
"1475 370 CURVE SMOOTH",
"1476 377 OFFCURVE",
"1476 383 OFFCURVE",
"1476 390 CURVE SMOOTH",
"1476 542 OFFCURVE",
"1319 586 OFFCURVE",
"1194 586 CURVE SMOOTH",
"1125 586 OFFCURVE",
"1057 575 OFFCURVE",
"991 560 CURVE SMOOTH",
"720 494 OFFCURVE",
"391 357 OFFCURVE",
"266 88 CURVE SMOOTH",
"246 45 OFFCURVE",
"234 -1 OFFCURVE",
"230 -49 CURVE",
"139 -15 OFFCURVE",
"63 49 OFFCURVE",
"63 154 CURVE SMOOTH",
"63 306 OFFCURVE",
"219 437 OFFCURVE",
"339 506 CURVE SMOOTH",
"480 587 OFFCURVE",
"661 641 OFFCURVE",
"821 663 CURVE",
"884 645 OFFCURVE",
"956 636 OFFCURVE",
"1022 636 CURVE SMOOTH",
"1045 636 OFFCURVE",
"1130 639 OFFCURVE",
"1130 675 CURVE SMOOTH",
"1130 711 OFFCURVE",
"975 707 OFFCURVE",
"950 707 CURVE SMOOTH",
"905 707 OFFCURVE",
"859 705 OFFCURVE",
"814 701 CURVE",
"760 730 OFFCURVE",
"714 778 OFFCURVE",
"714 844 CURVE SMOOTH",
"714 972 OFFCURVE",
"862 1045 OFFCURVE",
"972 1055 CURVE SMOOTH",
"987 1057 OFFCURVE",
"1004 1058 OFFCURVE",
"1021 1058 CURVE SMOOTH",
"1065 1058 OFFCURVE",
"1119 1052 OFFCURVE",
"1152 1019 CURVE SMOOTH",
"1154 1018 OFFCURVE",
"1155 1015 OFFCURVE",
"1155 1013 CURVE SMOOTH",
"1155 985 OFFCURVE",
"1098 1006 OFFCURVE",
"1098 987 CURVE SMOOTH",
"1098 977 OFFCURVE",
"1120 975 OFFCURVE",
"1126 975 CURVE SMOOTH",
"1150 975 OFFCURVE",
"1197 987 OFFCURVE",
"1197 1017 CURVE SMOOTH",
"1197 1027 OFFCURVE",
"1191 1035 OFFCURVE",
"1185 1041 CURVE SMOOTH",
"1148 1076 OFFCURVE",
"1048 1089 OFFCURVE",
"1000 1089 CURVE SMOOTH",
"990 1089 OFFCURVE",
"981 1089 OFFCURVE",
"970 1088 CURVE SMOOTH",
"925 1085 OFFCURVE",
"881 1076 OFFCURVE",
"839 1061 CURVE SMOOTH",
"751 1027 OFFCURVE",
"644 948 OFFCURVE",
"644 845 CURVE SMOOTH",
"644 777 OFFCURVE",
"694 726 OFFCURVE",
"750 694 CURVE",
"596 676 OFFCURVE",
"435 632 OFFCURVE",
"299 559 CURVE SMOOTH",
"168 488 OFFCURVE",
"-15 356 OFFCURVE",
"-15 187 CURVE SMOOTH",
"-15 49 OFFCURVE",
"111 -36 OFFCURVE",
"228 -76 CURVE",
"228 -204 OFFCURVE",
"294 -301 OFFCURVE",
"412 -350 CURVE",
"414 -350 OFFCURVE",
"417 -351 OFFCURVE",
"419 -351 CURVE SMOOTH"
);
},
{
closed = 1;
nodes = (
"394 -83 OFFCURVE",
"328 -77 OFFCURVE",
"266 -59 CURVE",
"268 -14 OFFCURVE",
"281 31 OFFCURVE",
"299 72 CURVE SMOOTH",
"413 326 OFFCURVE",
"747 465 OFFCURVE",
"999 524 CURVE SMOOTH",
"1065 539 OFFCURVE",
"1132 551 OFFCURVE",
"1200 551 CURVE SMOOTH",
"1293 551 OFFCURVE",
"1423 524 OFFCURVE",
"1423 406 CURVE SMOOTH",
"1423 395 OFFCURVE",
"1422 383 OFFCURVE",
"1419 373 CURVE SMOOTH",
"1387 226 OFFCURVE",
"1204 106 OFFCURVE",
"1077 48 CURVE SMOOTH",
"1014 19 OFFCURVE",
"947 -4 OFFCURVE",
"880 -21 CURVE SMOOTH",
"743 -57 OFFCURVE",
"600 -83 OFFCURVE",
"458 -83 CURVE SMOOTH"
);
},
{
closed = 1;
nodes = (
"1030 1154 OFFCURVE",
"1034 1155 OFFCURVE",
"1037 1157 CURVE SMOOTH",
"1097 1192 OFFCURVE",
"1157 1223 OFFCURVE",
"1218 1255 CURVE SMOOTH",
"1234 1263 OFFCURVE",
"1262 1280 OFFCURVE",
"1262 1301 CURVE SMOOTH",
"1262 1315 OFFCURVE",
"1244 1321 OFFCURVE",
"1232 1321 CURVE SMOOTH",
"1209 1321 OFFCURVE",
"1188 1308 OFFCURVE",
"1173 1294 CURVE SMOOTH",
"1151 1275 OFFCURVE",
"1018 1183 OFFCURVE",
"1018 1163 CURVE SMOOTH",
"1018 1157 OFFCURVE",
"1021 1154 OFFCURVE",
"1026 1154 CURVE SMOOTH"
);
}
);
width = 1480;
}
);
note = Eacute;
unicode = 00C9;
},
{
color = 11;
glyphname = Edieresis;
lastChange = "2021-09-15 03:21:52 +0000";
layers = (
{
background = {
paths = (
{
closed = 1;
nodes = (
"1106 1271 LINE SMOOTH",
"1106 1274 OFFCURVE",
"1103 1274 OFFCURVE",
"1102 1274 CURVE SMOOTH",
"1077 1274 OFFCURVE",
"1004 1227 OFFCURVE",
"1004 1199 CURVE SMOOTH",
"1004 1187 OFFCURVE",
"1018 1161 OFFCURVE",
"1031 1161 CURVE SMOOTH",
"1052 1161 OFFCURVE",
"1065 1188 OFFCURVE",
"1068 1204 CURVE SMOOTH",
"1074 1219 OFFCURVE",
"1079 1235 OFFCURVE",
"1088 1248 CURVE SMOOTH",
"1090 1252 OFFCURVE",
"1106 1268 OFFCURVE",
"1106 1270 CURVE SMOOTH",
"1106 1272 LINE"
);
},
{
closed = 1;
nodes = (
"1262 1271 LINE SMOOTH",
"1262 1274 OFFCURVE",
"1259 1274 OFFCURVE",
"1258 1274 CURVE SMOOTH",
"1234 1274 OFFCURVE",
"1160 1227 OFFCURVE",
"1160 1199 CURVE SMOOTH",
"1160 1187 OFFCURVE",
"1174 1161 OFFCURVE",
"1187 1161 CURVE SMOOTH",
"1208 1161 OFFCURVE",
"1221 1188 OFFCURVE",
"1225 1204 CURVE SMOOTH",
"1230 1219 OFFCURVE",
"1235 1235 OFFCURVE",
"1244 1248 CURVE SMOOTH",
"1246 1252 OFFCURVE",
"1262 1268 OFFCURVE",
"1262 1270 CURVE SMOOTH",
"1262 1272 LINE"
);
},
{
closed = 1;
nodes = (
"1150 975 OFFCURVE",
"1197 987 OFFCURVE",
"1197 1017 CURVE SMOOTH",
"1197 1027 OFFCURVE",
"1191 1035 OFFCURVE",
"1185 1041 CURVE SMOOTH",
"1148 1076 OFFCURVE",
"1048 1089 OFFCURVE",
"1000 1089 CURVE SMOOTH",
"990 1089 OFFCURVE",
"981 1089 OFFCURVE",
"970 1088 CURVE SMOOTH",
"925 1085 OFFCURVE",
"881 1076 OFFCURVE",
"839 1061 CURVE SMOOTH",
"751 1027 OFFCURVE",
"644 948 OFFCURVE",
"644 845 CURVE SMOOTH",
"644 777 OFFCURVE",
"694 726 OFFCURVE",
"750 694 CURVE",
"596 676 OFFCURVE",
"435 632 OFFCURVE",
"299 559 CURVE SMOOTH",
"168 488 OFFCURVE",
"-15 356 OFFCURVE",
"-15 187 CURVE SMOOTH",
"-15 49 OFFCURVE",
"111 -36 OFFCURVE",
"228 -76 CURVE",
"228 -204 OFFCURVE",
"294 -301 OFFCURVE",
"412 -350 CURVE",
"414 -350 OFFCURVE",
"417 -351 OFFCURVE",
"419 -351 CURVE SMOOTH",
"430 -351 OFFCURVE",
"437 -342 OFFCURVE",
"437 -332 CURVE SMOOTH",
"437 -324 OFFCURVE",
"432 -319 OFFCURVE",
"426 -316 CURVE SMOOTH",
"409 -307 OFFCURVE",
"392 -301 OFFCURVE",
"375 -290 CURVE SMOOTH",
"305 -244 OFFCURVE",
"268 -172 OFFCURVE",
"266 -88 CURVE",
"350 -111 OFFCURVE",
"437 -120 OFFCURVE",
"524 -120 CURVE SMOOTH",
"657 -120 OFFCURVE",
"792 -101 OFFCURVE",
"920 -67 CURVE SMOOTH",
"994 -49 OFFCURVE",
"1065 -26 OFFCURVE",
"1133 6 CURVE SMOOTH",
"1275 72 OFFCURVE",
"1455 200 OFFCURVE",
"1475 370 CURVE SMOOTH",
"1476 377 OFFCURVE",
"1476 383 OFFCURVE",
"1476 390 CURVE SMOOTH",
"1476 542 OFFCURVE",
"1319 586 OFFCURVE",
"1194 586 CURVE SMOOTH",
"1125 586 OFFCURVE",
"1057 575 OFFCURVE",
"991 560 CURVE SMOOTH",
"720 494 OFFCURVE",
"391 357 OFFCURVE",
"266 88 CURVE SMOOTH",
"246 45 OFFCURVE",
"234 -1 OFFCURVE",
"230 -49 CURVE",
"139 -15 OFFCURVE",
"63 49 OFFCURVE",
"63 154 CURVE SMOOTH",
"63 306 OFFCURVE",
"219 437 OFFCURVE",
"339 506 CURVE SMOOTH",
"480 587 OFFCURVE",
"661 641 OFFCURVE",
"821 663 CURVE",
"884 645 OFFCURVE",
"956 636 OFFCURVE",
"1022 636 CURVE SMOOTH",
"1045 636 OFFCURVE",
"1130 639 OFFCURVE",
"1130 675 CURVE SMOOTH",
"1130 711 OFFCURVE",
"975 707 OFFCURVE",
"950 707 CURVE SMOOTH",
"905 707 OFFCURVE",
"859 705 OFFCURVE",
"814 701 CURVE",
"760 730 OFFCURVE",
"714 778 OFFCURVE",
"714 844 CURVE SMOOTH",
"714 972 OFFCURVE",
"862 1045 OFFCURVE",
"972 1055 CURVE SMOOTH",
"987 1057 OFFCURVE",
"1004 1058 OFFCURVE",
"1021 1058 CURVE SMOOTH",
"1065 1058 OFFCURVE",
"1119 1052 OFFCURVE",
"1152 1019 CURVE SMOOTH",
"1154 1018 OFFCURVE",
"1155 1015 OFFCURVE",
"1155 1013 CURVE SMOOTH",
"1155 985 OFFCURVE",
"1098 1006 OFFCURVE",
"1098 987 CURVE SMOOTH",
"1098 977 OFFCURVE",
"1120 975 OFFCURVE",
"1126 975 CURVE SMOOTH"
);
},
{
closed = 1;
nodes = (
"268 -14 OFFCURVE",
"281 31 OFFCURVE",
"299 72 CURVE SMOOTH",
"413 326 OFFCURVE",
"747 465 OFFCURVE",
"999 524 CURVE SMOOTH",
"1065 539 OFFCURVE",
"1132 551 OFFCURVE",
"1200 551 CURVE SMOOTH",
"1293 551 OFFCURVE",
"1423 524 OFFCURVE",
"1423 406 CURVE SMOOTH",
"1423 395 OFFCURVE",
"1422 383 OFFCURVE",
"1419 373 CURVE SMOOTH",
"1387 226 OFFCURVE",
"1204 106 OFFCURVE",
"1077 48 CURVE SMOOTH",
"1014 19 OFFCURVE",
"947 -4 OFFCURVE",
"880 -21 CURVE SMOOTH",
"743 -57 OFFCURVE",
"600 -83 OFFCURVE",
"458 -83 CURVE SMOOTH",
"394 -83 OFFCURVE",
"328 -77 OFFCURVE",
"266 -59 CURVE"
);
}
);
};
layerId = "95C423A7-595F-441F-915A-E5EF8B5EF971";
paths = (
{
closed = 1;
nodes = (
"430 -351 OFFCURVE",
"437 -342 OFFCURVE",
"437 -332 CURVE SMOOTH",
"437 -324 OFFCURVE",
"432 -319 OFFCURVE",
"426 -316 CURVE SMOOTH",
"409 -307 OFFCURVE",
"392 -301 OFFCURVE",
"375 -290 CURVE SMOOTH",
"305 -244 OFFCURVE",
"268 -172 OFFCURVE",
"266 -88 CURVE",
"350 -111 OFFCURVE",
"437 -120 OFFCURVE",
"524 -120 CURVE SMOOTH",
"657 -120 OFFCURVE",
"792 -101 OFFCURVE",
"920 -67 CURVE SMOOTH",
"994 -49 OFFCURVE",
"1065 -26 OFFCURVE",
"1133 6 CURVE SMOOTH",
"1275 72 OFFCURVE",
"1455 200 OFFCURVE",
"1475 370 CURVE SMOOTH",
"1476 377 OFFCURVE",
"1476 383 OFFCURVE",
"1476 390 CURVE SMOOTH",
"1476 542 OFFCURVE",
"1319 586 OFFCURVE",
"1194 586 CURVE SMOOTH",
"1125 586 OFFCURVE",
"1057 575 OFFCURVE",
"991 560 CURVE SMOOTH",
"720 494 OFFCURVE",
"391 357 OFFCURVE",
"266 88 CURVE SMOOTH",
"246 45 OFFCURVE",
"234 -1 OFFCURVE",
"230 -49 CURVE",
"139 -15 OFFCURVE",
"63 49 OFFCURVE",
"63 154 CURVE SMOOTH",
"63 306 OFFCURVE",
"219 437 OFFCURVE",
"339 506 CURVE SMOOTH",
"480 587 OFFCURVE",
"661 641 OFFCURVE",
"821 663 CURVE",
"884 645 OFFCURVE",
"956 636 OFFCURVE",
"1022 636 CURVE SMOOTH",
"1045 636 OFFCURVE",
"1130 639 OFFCURVE",
"1130 675 CURVE SMOOTH",
"1130 711 OFFCURVE",
"975 707 OFFCURVE",
"950 707 CURVE SMOOTH",
"905 707 OFFCURVE",
"859 705 OFFCURVE",
"814 701 CURVE",
"760 730 OFFCURVE",
"714 778 OFFCURVE",
"714 844 CURVE SMOOTH",
"714 972 OFFCURVE",
"862 1045 OFFCURVE",
"972 1055 CURVE SMOOTH",
"987 1057 OFFCURVE",
"1004 1058 OFFCURVE",
"1021 1058 CURVE SMOOTH",
"1065 1058 OFFCURVE",
"1119 1052 OFFCURVE",
"1152 1019 CURVE SMOOTH",
"1154 1018 OFFCURVE",
"1155 1015 OFFCURVE",
"1155 1013 CURVE SMOOTH",
"1155 985 OFFCURVE",
"1098 1006 OFFCURVE",
"1098 987 CURVE SMOOTH",
"1098 977 OFFCURVE",
"1120 975 OFFCURVE",
"1126 975 CURVE SMOOTH",
"1150 975 OFFCURVE",
"1197 987 OFFCURVE",
"1197 1017 CURVE SMOOTH",
"1197 1027 OFFCURVE",
"1191 1035 OFFCURVE",
"1185 1041 CURVE SMOOTH",
"1148 1076 OFFCURVE",
"1048 1089 OFFCURVE",
"1000 1089 CURVE SMOOTH",
"990 1089 OFFCURVE",
"981 1089 OFFCURVE",
"970 1088 CURVE SMOOTH",
"925 1085 OFFCURVE",
"881 1076 OFFCURVE",
"839 1061 CURVE SMOOTH",
"751 1027 OFFCURVE",
"644 948 OFFCURVE",
"644 845 CURVE SMOOTH",
"644 777 OFFCURVE",
"694 726 OFFCURVE",
"750 694 CURVE",
"596 676 OFFCURVE",
"435 632 OFFCURVE",
"299 559 CURVE SMOOTH",
"168 488 OFFCURVE",
"-15 356 OFFCURVE",
"-15 187 CURVE SMOOTH",
"-15 49 OFFCURVE",
"111 -36 OFFCURVE",
"228 -76 CURVE",
"228 -204 OFFCURVE",
"294 -301 OFFCURVE",
"412 -350 CURVE",
"414 -350 OFFCURVE",
"417 -351 OFFCURVE",
"419 -351 CURVE SMOOTH"
);
},
{
closed = 1;
nodes = (
"394 -83 OFFCURVE",
"328 -77 OFFCURVE",
"266 -59 CURVE",
"268 -14 OFFCURVE",
"281 31 OFFCURVE",
"299 72 CURVE SMOOTH",
"413 326 OFFCURVE",
"747 465 OFFCURVE",
"999 524 CURVE SMOOTH",
"1065 539 OFFCURVE",
"1132 551 OFFCURVE",
"1200 551 CURVE SMOOTH",
"1293 551 OFFCURVE",
"1423 524 OFFCURVE",
"1423 406 CURVE SMOOTH",
"1423 395 OFFCURVE",
"1422 383 OFFCURVE",
"1419 373 CURVE SMOOTH",
"1387 226 OFFCURVE",
"1204 106 OFFCURVE",
"1077 48 CURVE SMOOTH",
"1014 19 OFFCURVE",
"947 -4 OFFCURVE",
"880 -21 CURVE SMOOTH",
"743 -57 OFFCURVE",
"600 -83 OFFCURVE",
"458 -83 CURVE SMOOTH"
);
},
{
closed = 1;
nodes = (
"1052 1161 OFFCURVE",
"1065 1188 OFFCURVE",
"1068 1204 CURVE SMOOTH",
"1074 1219 OFFCURVE",
"1079 1235 OFFCURVE",
"1088 1248 CURVE SMOOTH",
"1090 1252 OFFCURVE",
"1106 1268 OFFCURVE",
"1106 1270 CURVE SMOOTH",
"1106 1271 LINE SMOOTH",
"1106 1274 OFFCURVE",
"1103 1274 OFFCURVE",
"1102 1274 CURVE SMOOTH",
"1077 1274 OFFCURVE",
"1004 1227 OFFCURVE",
"1004 1199 CURVE SMOOTH",
"1004 1187 OFFCURVE",
"1018 1161 OFFCURVE",
"1031 1161 CURVE SMOOTH"
);
},
{
closed = 1;
nodes = (
"1208 1161 OFFCURVE",
"1221 1188 OFFCURVE",
"1225 1204 CURVE SMOOTH",
"1230 1219 OFFCURVE",
"1235 1235 OFFCURVE",
"1244 1248 CURVE SMOOTH",
"1246 1252 OFFCURVE",
"1262 1268 OFFCURVE",
"1262 1270 CURVE SMOOTH",
"1262 1271 LINE SMOOTH",
"1262 1274 OFFCURVE",
"1259 1274 OFFCURVE",
"1258 1274 CURVE SMOOTH",
"1234 1274 OFFCURVE",
"1160 1227 OFFCURVE",
"1160 1199 CURVE SMOOTH",
"1160 1187 OFFCURVE",
"1174 1161 OFFCURVE",
"1187 1161 CURVE SMOOTH"
);
}
);
width = 1480;
}
);
note = Edieresis;
unicode = 00CB;
},
{
color = 11;
glyphname = Egrave;
lastChange = "2021-09-15 03:21:52 +0000";
layers = (
{
background = {
paths = (
{
closed = 1;
nodes = (
"1201 1145 OFFCURVE",
"1204 1148 OFFCURVE",
"1204 1154 CURVE SMOOTH",
"1204 1174 OFFCURVE",
"1071 1266 OFFCURVE",
"1049 1285 CURVE SMOOTH",
"1034 1299 OFFCURVE",
"1013 1312 OFFCURVE",
"990 1312 CURVE SMOOTH",
"978 1312 OFFCURVE",
"960 1306 OFFCURVE",
"960 1292 CURVE SMOOTH",
"960 1271 OFFCURVE",
"988 1254 OFFCURVE",
"1004 1246 CURVE SMOOTH",
"1065 1214 OFFCURVE",
"1125 1183 OFFCURVE",
"1185 1148 CURVE SMOOTH",
"1188 1146 OFFCURVE",
"1192 1145 OFFCURVE",
"1196 1145 CURVE SMOOTH"
);
},
{
closed = 1;
nodes = (
"1150 975 OFFCURVE",
"1197 987 OFFCURVE",
"1197 1017 CURVE SMOOTH",
"1197 1027 OFFCURVE",
"1191 1035 OFFCURVE",
"1185 1041 CURVE SMOOTH",
"1148 1076 OFFCURVE",
"1048 1089 OFFCURVE",
"1000 1089 CURVE SMOOTH",
"990 1089 OFFCURVE",
"981 1089 OFFCURVE",
"970 1088 CURVE SMOOTH",
"925 1085 OFFCURVE",
"881 1076 OFFCURVE",
"839 1061 CURVE SMOOTH",
"751 1027 OFFCURVE",
"644 948 OFFCURVE",
"644 845 CURVE SMOOTH",
"644 777 OFFCURVE",
"694 726 OFFCURVE",
"750 694 CURVE",
"596 676 OFFCURVE",
"435 632 OFFCURVE",
"299 559 CURVE SMOOTH",
"168 488 OFFCURVE",
"-15 356 OFFCURVE",
"-15 187 CURVE SMOOTH",
"-15 49 OFFCURVE",
"111 -36 OFFCURVE",
"228 -76 CURVE",
"228 -204 OFFCURVE",
"294 -301 OFFCURVE",
"412 -350 CURVE",
"414 -350 OFFCURVE",
"417 -351 OFFCURVE",
"419 -351 CURVE SMOOTH",
"430 -351 OFFCURVE",
"437 -342 OFFCURVE",
"437 -332 CURVE SMOOTH",
"437 -324 OFFCURVE",
"432 -319 OFFCURVE",
"426 -316 CURVE SMOOTH",
"409 -307 OFFCURVE",
"392 -301 OFFCURVE",
"375 -290 CURVE SMOOTH",
"305 -244 OFFCURVE",
"268 -172 OFFCURVE",
"266 -88 CURVE",
"350 -111 OFFCURVE",
"437 -120 OFFCURVE",
"524 -120 CURVE SMOOTH",
"657 -120 OFFCURVE",
"792 -101 OFFCURVE",
"920 -67 CURVE SMOOTH",
"994 -49 OFFCURVE",
"1065 -26 OFFCURVE",
"1133 6 CURVE SMOOTH",
"1275 72 OFFCURVE",
"1455 200 OFFCURVE",
"1475 370 CURVE SMOOTH",
"1476 377 OFFCURVE",
"1476 383 OFFCURVE",
"1476 390 CURVE SMOOTH",
"1476 542 OFFCURVE",
"1319 586 OFFCURVE",
"1194 586 CURVE SMOOTH",
"1125 586 OFFCURVE",
"1057 575 OFFCURVE",
"991 560 CURVE SMOOTH",
"720 494 OFFCURVE",
"391 357 OFFCURVE",
"266 88 CURVE SMOOTH",
"246 45 OFFCURVE",
"234 -1 OFFCURVE",
"230 -49 CURVE",
"139 -15 OFFCURVE",
"63 49 OFFCURVE",
"63 154 CURVE SMOOTH",
"63 306 OFFCURVE",
"219 437 OFFCURVE",
"339 506 CURVE SMOOTH",
"480 587 OFFCURVE",
"661 641 OFFCURVE",
"821 663 CURVE",
"884 645 OFFCURVE",
"956 636 OFFCURVE",
"1022 636 CURVE SMOOTH",
"1045 636 OFFCURVE",
"1130 639 OFFCURVE",
"1130 675 CURVE SMOOTH",
"1130 711 OFFCURVE",
"975 707 OFFCURVE",
"950 707 CURVE SMOOTH",
"905 707 OFFCURVE",
"859 705 OFFCURVE",
"814 701 CURVE",
"760 730 OFFCURVE",
"714 778 OFFCURVE",
"714 844 CURVE SMOOTH",
"714 972 OFFCURVE",
"862 1045 OFFCURVE",
"972 1055 CURVE SMOOTH",
"987 1057 OFFCURVE",
"1004 1058 OFFCURVE",
"1021 1058 CURVE SMOOTH",
"1065 1058 OFFCURVE",
"1119 1052 OFFCURVE",
"1152 1019 CURVE SMOOTH",
"1154 1018 OFFCURVE",
"1155 1015 OFFCURVE",
"1155 1013 CURVE SMOOTH",
"1155 985 OFFCURVE",
"1098 1006 OFFCURVE",
"1098 987 CURVE SMOOTH",
"1098 977 OFFCURVE",
"1120 975 OFFCURVE",
"1126 975 CURVE SMOOTH"
);
},
{
closed = 1;
nodes = (
"268 -14 OFFCURVE",
"281 31 OFFCURVE",
"299 72 CURVE SMOOTH",
"413 326 OFFCURVE",
"747 465 OFFCURVE",
"999 524 CURVE SMOOTH",
"1065 539 OFFCURVE",
"1132 551 OFFCURVE",
"1200 551 CURVE SMOOTH",
"1293 551 OFFCURVE",
"1423 524 OFFCURVE",
"1423 406 CURVE SMOOTH",
"1423 395 OFFCURVE",
"1422 383 OFFCURVE",
"1419 373 CURVE SMOOTH",
"1387 226 OFFCURVE",
"1204 106 OFFCURVE",
"1077 48 CURVE SMOOTH",
"1014 19 OFFCURVE",
"947 -4 OFFCURVE",
"880 -21 CURVE SMOOTH",
"743 -57 OFFCURVE",
"600 -83 OFFCURVE",
"458 -83 CURVE SMOOTH",
"394 -83 OFFCURVE",
"328 -77 OFFCURVE",
"266 -59 CURVE"
);
}
);
};
layerId = "95C423A7-595F-441F-915A-E5EF8B5EF971";
paths = (
{
closed = 1;
nodes = (
"430 -351 OFFCURVE",
"437 -342 OFFCURVE",
"437 -332 CURVE SMOOTH",
"437 -324 OFFCURVE",
"432 -319 OFFCURVE",
"426 -316 CURVE SMOOTH",
"409 -307 OFFCURVE",
"392 -301 OFFCURVE",
"375 -290 CURVE SMOOTH",
"305 -244 OFFCURVE",
"268 -172 OFFCURVE",
"266 -88 CURVE",
"350 -111 OFFCURVE",
"437 -120 OFFCURVE",
"524 -120 CURVE SMOOTH",
"657 -120 OFFCURVE",
"792 -101 OFFCURVE",
"920 -67 CURVE SMOOTH",
"994 -49 OFFCURVE",
"1065 -26 OFFCURVE",
"1133 6 CURVE SMOOTH",
"1275 72 OFFCURVE",
"1455 200 OFFCURVE",
"1475 370 CURVE SMOOTH",
"1476 377 OFFCURVE",
"1476 383 OFFCURVE",
"1476 390 CURVE SMOOTH",
"1476 542 OFFCURVE",
"1319 586 OFFCURVE",
"1194 586 CURVE SMOOTH",
"1125 586 OFFCURVE",
"1057 575 OFFCURVE",
"991 560 CURVE SMOOTH",
"720 494 OFFCURVE",
"391 357 OFFCURVE",
"266 88 CURVE SMOOTH",
"246 45 OFFCURVE",
"234 -1 OFFCURVE",
"230 -49 CURVE",
"139 -15 OFFCURVE",
"63 49 OFFCURVE",
"63 154 CURVE SMOOTH",
"63 306 OFFCURVE",
"219 437 OFFCURVE",
"339 506 CURVE SMOOTH",
"480 587 OFFCURVE",
"661 641 OFFCURVE",
"821 663 CURVE",
"884 645 OFFCURVE",
"956 636 OFFCURVE",
"1022 636 CURVE SMOOTH",
"1045 636 OFFCURVE",
"1130 639 OFFCURVE",
"1130 675 CURVE SMOOTH",
"1130 711 OFFCURVE",
"975 707 OFFCURVE",
"950 707 CURVE SMOOTH",
"905 707 OFFCURVE",
"859 705 OFFCURVE",
"814 701 CURVE",
"760 730 OFFCURVE",
"714 778 OFFCURVE",
"714 844 CURVE SMOOTH",
"714 972 OFFCURVE",
"862 1045 OFFCURVE",
"972 1055 CURVE SMOOTH",
"987 1057 OFFCURVE",
"1004 1058 OFFCURVE",
"1021 1058 CURVE SMOOTH",
"1065 1058 OFFCURVE",
"1119 1052 OFFCURVE",
"1152 1019 CURVE SMOOTH",
"1154 1018 OFFCURVE",
"1155 1015 OFFCURVE",
"1155 1013 CURVE SMOOTH",
"1155 985 OFFCURVE",
"1098 1006 OFFCURVE",
"1098 987 CURVE SMOOTH",
"1098 977 OFFCURVE",
"1120 975 OFFCURVE",
"1126 975 CURVE SMOOTH",
"1150 975 OFFCURVE",
"1197 987 OFFCURVE",
"1197 1017 CURVE SMOOTH",
"1197 1027 OFFCURVE",
"1191 1035 OFFCURVE",
"1185 1041 CURVE SMOOTH",
"1148 1076 OFFCURVE",
"1048 1089 OFFCURVE",
"1000 1089 CURVE SMOOTH",
"990 1089 OFFCURVE",
"981 1089 OFFCURVE",
"970 1088 CURVE SMOOTH",
"925 1085 OFFCURVE",
"881 1076 OFFCURVE",
"839 1061 CURVE SMOOTH",
"751 1027 OFFCURVE",
"644 948 OFFCURVE",
"644 845 CURVE SMOOTH",
"644 777 OFFCURVE",
"694 726 OFFCURVE",
"750 694 CURVE",
"596 676 OFFCURVE",
"435 632 OFFCURVE",
"299 559 CURVE SMOOTH",
"168 488 OFFCURVE",
"-15 356 OFFCURVE",
"-15 187 CURVE SMOOTH",
"-15 49 OFFCURVE",
"111 -36 OFFCURVE",
"228 -76 CURVE",
"228 -204 OFFCURVE",
"294 -301 OFFCURVE",
"412 -350 CURVE",
"414 -350 OFFCURVE",
"417 -351 OFFCURVE",
"419 -351 CURVE SMOOTH"
);
},
{
closed = 1;
nodes = (
"394 -83 OFFCURVE",
"328 -77 OFFCURVE",
"266 -59 CURVE",
"268 -14 OFFCURVE",
"281 31 OFFCURVE",
"299 72 CURVE SMOOTH",
"413 326 OFFCURVE",
"747 465 OFFCURVE",
"999 524 CURVE SMOOTH",
"1065 539 OFFCURVE",
"1132 551 OFFCURVE",
"1200 551 CURVE SMOOTH",
"1293 551 OFFCURVE",
"1423 524 OFFCURVE",
"1423 406 CURVE SMOOTH",
"1423 395 OFFCURVE",
"1422 383 OFFCURVE",
"1419 373 CURVE SMOOTH",
"1387 226 OFFCURVE",
"1204 106 OFFCURVE",
"1077 48 CURVE SMOOTH",
"1014 19 OFFCURVE",
"947 -4 OFFCURVE",
"880 -21 CURVE SMOOTH",
"743 -57 OFFCURVE",
"600 -83 OFFCURVE",
"458 -83 CURVE SMOOTH"
);
},
{
closed = 1;
nodes = (
"1201 1145 OFFCURVE",
"1204 1148 OFFCURVE",
"1204 1154 CURVE SMOOTH",
"1204 1174 OFFCURVE",
"1071 1266 OFFCURVE",
"1049 1285 CURVE SMOOTH",
"1034 1299 OFFCURVE",
"1013 1312 OFFCURVE",
"990 1312 CURVE SMOOTH",
"978 1312 OFFCURVE",
"960 1306 OFFCURVE",
"960 1292 CURVE SMOOTH",
"960 1271 OFFCURVE",
"988 1254 OFFCURVE",
"1004 1246 CURVE SMOOTH",
"1065 1214 OFFCURVE",
"1125 1183 OFFCURVE",
"1185 1148 CURVE SMOOTH",
"1188 1146 OFFCURVE",
"1192 1145 OFFCURVE",
"1196 1145 CURVE SMOOTH"
);
}
);
width = 1480;
}
);
note = Egrave;
unicode = 00C8;
},
{
glyphname = F;
lastChange = "2021-09-15 03:21:52 +0000";
layers = (
{
background = {
paths = (
{
closed = 1;
nodes = (
"1465 983 OFFCURVE",
"1472 977 OFFCURVE",
"1480 977 CURVE SMOOTH",
"1495 977 OFFCURVE",
"1503 1003 OFFCURVE",
"1503 1014 CURVE SMOOTH",
"1503 1117 OFFCURVE",
"1161 1129 OFFCURVE",
"1092 1129 CURVE SMOOTH",
"859 1129 OFFCURVE",
"461 1076 OFFCURVE",
"255 964 CURVE SMOOTH",
"213 941 OFFCURVE",
"163 893 OFFCURVE",
"163 841 CURVE SMOOTH",
"163 707 OFFCURVE",
"498 695 OFFCURVE",
"595 695 CURVE SMOOTH",
"684 695 OFFCURVE",
"774 705 OFFCURVE",
"862 723 CURVE SMOOTH",
"875 725 OFFCURVE",
"890 728 OFFCURVE",
"902 733 CURVE SMOOTH",
"910 735 OFFCURVE",
"914 738 OFFCURVE",
"914 747 CURVE SMOOTH",
"914 755 OFFCURVE",
"907 763 OFFCURVE",
"899 763 CURVE SMOOTH",
"897 763 OFFCURVE",
"895 763 OFFCURVE",
"894 763 CURVE",
"817 742 OFFCURVE",
"737 735 OFFCURVE",
"657 735 CURVE SMOOTH",
"587 735 OFFCURVE",
"254 748 OFFCURVE",
"254 832 CURVE SMOOTH",
"254 871 OFFCURVE",
"320 910 OFFCURVE",
"350 925 CURVE SMOOTH",
"541 1030 OFFCURVE",
"950 1086 OFFCURVE",
"1168 1086 CURVE SMOOTH",
"1243 1086 OFFCURVE",
"1366 1080 OFFCURVE",
"1435 1048 CURVE SMOOTH",
"1448 1043 OFFCURVE",
"1472 1032 OFFCURVE",
"1472 1014 CURVE SMOOTH",
"1472 1004 OFFCURVE",
"1465 1000 OFFCURVE",
"1465 992 CURVE SMOOTH"
);
},
{
closed = 1;
nodes = (
"1370 1035 OFFCURVE",
"1372 999 OFFCURVE",
"1396 999 CURVE SMOOTH",
"1404 999 OFFCURVE",
"1406 1004 OFFCURVE",
"1406 1010 CURVE SMOOTH",
"1406 1040 OFFCURVE",
"1368 1067 OFFCURVE",
"1341 1067 CURVE SMOOTH",
"1317 1067 OFFCURVE",
"1299 1055 OFFCURVE",
"1283 1041 CURVE SMOOTH",
"1239 1006 OFFCURVE",
"1103 690 OFFCURVE",
"1071 615 CURVE",
"973 608 OFFCURVE",
"875 572 OFFCURVE",
"782 539 CURVE SMOOTH",
"729 521 OFFCURVE",
"489 427 OFFCURVE",
"446 427 CURVE",
"446 427 OFFCURVE",
"441 427 OFFCURVE",
"441 428 CURVE",
"444 431 LINE SMOOTH",
"474 468 OFFCURVE",
"523 494 OFFCURVE",
"564 515 CURVE SMOOTH",
"659 565 OFFCURVE",
"787 614 OFFCURVE",
"865 688 CURVE SMOOTH",
"870 692 OFFCURVE",
"872 695 OFFCURVE",
"872 702 CURVE SMOOTH",
"872 708 OFFCURVE",
"868 715 OFFCURVE",
"862 715 CURVE SMOOTH",
"858 715 OFFCURVE",
"855 714 OFFCURVE",
"853 711 CURVE SMOOTH",
"791 662 OFFCURVE",
"725 628 OFFCURVE",
"654 595 CURVE SMOOTH",
"587 561 OFFCURVE",
"399 507 OFFCURVE",
"361 452 CURVE SMOOTH",
"357 446 OFFCURVE",
"355 439 OFFCURVE",
"355 431 CURVE SMOOTH",
"355 399 OFFCURVE",
"399 383 OFFCURVE",
"426 383 CURVE SMOOTH",
"493 383 OFFCURVE",
"717 476 OFFCURVE",
"787 502 CURVE SMOOTH",
"874 534 OFFCURVE",
"965 569 OFFCURVE",
"1057 583 CURVE",
"942 326 OFFCURVE",
"739 -77 OFFCURVE",
"418 -77 CURVE SMOOTH",
"272 -77 OFFCURVE",
"175 65 OFFCURVE",
"137 190 CURVE SMOOTH",
"120 241 OFFCURVE",
"112 295 OFFCURVE",
"112 350 CURVE SMOOTH",
"112 401 OFFCURVE",
"120 452 OFFCURVE",
"137 501 CURVE",
"137 502 OFFCURVE",
"138 503 OFFCURVE",
"138 506 CURVE SMOOTH",
"138 514 OFFCURVE",
"129 520 OFFCURVE",
"121 520 CURVE SMOOTH",
"114 520 OFFCURVE",
"110 516 OFFCURVE",
"107 508 CURVE SMOOTH",
"83 450 OFFCURVE",
"71 348 OFFCURVE",
"71 285 CURVE SMOOTH",
"71 71 OFFCURVE",
"172 -117 OFFCURVE",
"409 -117 CURVE SMOOTH",
"745 -117 OFFCURVE",
"939 152 OFFCURVE",
"1070 426 CURVE SMOOTH",
"1094 477 OFFCURVE",
"1112 532 OFFCURVE",
"1133 583 CURVE",
"1151 581 OFFCURVE",
"1165 568 OFFCURVE",
"1165 548 CURVE SMOOTH",
"1165 489 OFFCURVE",
"1076 408 OFFCURVE",
"1076 392 CURVE SMOOTH",
"1076 385 OFFCURVE",
"1081 378 OFFCURVE",
"1089 378 CURVE SMOOTH",
"1093 378 OFFCURVE",
"1095 381 OFFCURVE",
"1098 382 CURVE SMOOTH",
"1142 413 OFFCURVE",
"1221 483 OFFCURVE",
"1221 541 CURVE SMOOTH",
"1221 583 OFFCURVE",
"1178 603 OFFCURVE",
"1143 613 CURVE",
"1165 671 OFFCURVE",
"1281 994 OFFCURVE",
"1305 1017 CURVE SMOOTH",
"1315 1026 OFFCURVE",
"1324 1035 OFFCURVE",
"1339 1035 CURVE SMOOTH"
);
}
);
};
layerId = "95C423A7-595F-441F-915A-E5EF8B5EF971";
paths = (
{
closed = 1;
nodes = (
"745 -117 OFFCURVE",
"939 152 OFFCURVE",
"1070 426 CURVE SMOOTH",
"1094 477 OFFCURVE",
"1112 532 OFFCURVE",
"1133 583 CURVE",
"1151 581 OFFCURVE",
"1165 568 OFFCURVE",
"1165 548 CURVE SMOOTH",
"1165 489 OFFCURVE",
"1076 408 OFFCURVE",
"1076 392 CURVE SMOOTH",
"1076 385 OFFCURVE",
"1081 378 OFFCURVE",
"1089 378 CURVE SMOOTH",
"1093 378 OFFCURVE",
"1095 381 OFFCURVE",
"1098 382 CURVE SMOOTH",
"1142 413 OFFCURVE",
"1221 483 OFFCURVE",
"1221 541 CURVE SMOOTH",
"1221 583 OFFCURVE",
"1178 603 OFFCURVE",
"1143 613 CURVE",
"1165 671 OFFCURVE",
"1281 994 OFFCURVE",
"1305 1017 CURVE SMOOTH",
"1315 1026 OFFCURVE",
"1324 1035 OFFCURVE",
"1339 1035 CURVE SMOOTH",
"1370 1035 OFFCURVE",
"1372 999 OFFCURVE",
"1396 999 CURVE SMOOTH",
"1404 999 OFFCURVE",
"1406 1004 OFFCURVE",
"1406 1010 CURVE SMOOTH",
"1406 1040 OFFCURVE",
"1368 1067 OFFCURVE",
"1341 1067 CURVE SMOOTH",
"1317 1067 OFFCURVE",
"1299 1055 OFFCURVE",
"1283 1041 CURVE SMOOTH",
"1239 1006 OFFCURVE",
"1103 690 OFFCURVE",
"1071 615 CURVE",
"973 608 OFFCURVE",
"875 572 OFFCURVE",
"782 539 CURVE SMOOTH",
"729 521 OFFCURVE",
"489 427 OFFCURVE",
"446 427 CURVE",
"446 427 OFFCURVE",
"441 427 OFFCURVE",
"441 428 CURVE",
"444 431 LINE SMOOTH",
"474 468 OFFCURVE",
"523 494 OFFCURVE",
"564 515 CURVE SMOOTH",
"659 565 OFFCURVE",
"787 614 OFFCURVE",
"865 688 CURVE SMOOTH",
"870 692 OFFCURVE",
"872 695 OFFCURVE",
"872 702 CURVE SMOOTH",
"872 708 OFFCURVE",
"868 715 OFFCURVE",
"862 715 CURVE SMOOTH",
"858 715 OFFCURVE",
"855 714 OFFCURVE",
"853 711 CURVE SMOOTH",
"791 662 OFFCURVE",
"725 628 OFFCURVE",
"654 595 CURVE SMOOTH",
"587 561 OFFCURVE",
"399 507 OFFCURVE",
"361 452 CURVE SMOOTH",
"357 446 OFFCURVE",
"355 439 OFFCURVE",
"355 431 CURVE SMOOTH",
"355 399 OFFCURVE",
"399 383 OFFCURVE",
"426 383 CURVE SMOOTH",
"493 383 OFFCURVE",
"717 476 OFFCURVE",
"787 502 CURVE SMOOTH",
"874 534 OFFCURVE",
"965 569 OFFCURVE",
"1057 583 CURVE",
"942 326 OFFCURVE",
"739 -77 OFFCURVE",
"418 -77 CURVE SMOOTH",
"272 -77 OFFCURVE",
"175 65 OFFCURVE",
"137 190 CURVE SMOOTH",
"120 241 OFFCURVE",
"112 295 OFFCURVE",
"112 350 CURVE SMOOTH",
"112 401 OFFCURVE",
"120 452 OFFCURVE",
"137 501 CURVE",
"137 502 OFFCURVE",
"138 503 OFFCURVE",
"138 506 CURVE SMOOTH",
"138 514 OFFCURVE",
"129 520 OFFCURVE",
"121 520 CURVE SMOOTH",
"114 520 OFFCURVE",
"110 516 OFFCURVE",
"107 508 CURVE SMOOTH",
"83 450 OFFCURVE",
"71 348 OFFCURVE",
"71 285 CURVE SMOOTH",
"71 71 OFFCURVE",
"172 -117 OFFCURVE",
"409 -117 CURVE SMOOTH"
);
},
{
closed = 1;
nodes = (
"684 695 OFFCURVE",
"774 705 OFFCURVE",
"862 723 CURVE SMOOTH",
"875 725 OFFCURVE",
"890 728 OFFCURVE",
"902 733 CURVE SMOOTH",
"910 735 OFFCURVE",
"914 738 OFFCURVE",
"914 747 CURVE SMOOTH",
"914 755 OFFCURVE",
"907 763 OFFCURVE",
"899 763 CURVE SMOOTH",
"894 763 LINE",
"817 742 OFFCURVE",
"737 735 OFFCURVE",
"657 735 CURVE SMOOTH",
"587 735 OFFCURVE",
"254 748 OFFCURVE",
"254 832 CURVE SMOOTH",
"254 871 OFFCURVE",
"320 910 OFFCURVE",
"350 925 CURVE SMOOTH",
"541 1030 OFFCURVE",
"950 1086 OFFCURVE",
"1168 1086 CURVE SMOOTH",
"1243 1086 OFFCURVE",
"1366 1080 OFFCURVE",
"1435 1048 CURVE SMOOTH",
"1448 1043 OFFCURVE",
"1472 1032 OFFCURVE",
"1472 1014 CURVE SMOOTH",
"1472 1004 OFFCURVE",
"1465 1000 OFFCURVE",
"1465 992 CURVE SMOOTH",
"1465 983 OFFCURVE",
"1472 977 OFFCURVE",
"1480 977 CURVE SMOOTH",
"1495 977 OFFCURVE",
"1503 1003 OFFCURVE",
"1503 1014 CURVE SMOOTH",
"1503 1117 OFFCURVE",
"1161 1129 OFFCURVE",
"1092 1129 CURVE SMOOTH",
"859 1129 OFFCURVE",
"461 1076 OFFCURVE",
"255 964 CURVE SMOOTH",
"213 941 OFFCURVE",
"163 893 OFFCURVE",
"163 841 CURVE SMOOTH",
"163 707 OFFCURVE",
"498 695 OFFCURVE",
"595 695 CURVE SMOOTH"
);
}
);
width = 1199;
}
);
note = F;
unicode = 0046;
},
{
glyphname = G;
lastChange = "2021-09-15 03:21:52 +0000";
layers = (
{
background = {
paths = (
{
closed = 1;
nodes = (
"1541 502 OFFCURVE",
"1677 547 OFFCURVE",
"1677 595 CURVE SMOOTH",
"1677 630 OFFCURVE",
"1604 631 OFFCURVE",
"1581 631 CURVE SMOOTH",
"1537 631 OFFCURVE",
"1494 626 OFFCURVE",
"1450 619 CURVE",
"1403 654 OFFCURVE",
"1335 663 OFFCURVE",
"1277 663 CURVE SMOOTH",
"1206 663 OFFCURVE",
"1134 649 OFFCURVE",
"1065 632 CURVE",
"1070 641 OFFCURVE",
"1076 652 OFFCURVE",
"1076 662 CURVE SMOOTH",
"1076 688 OFFCURVE",
"1041 692 OFFCURVE",
"1023 692 CURVE SMOOTH",
"1014 692 OFFCURVE",
"981 692 OFFCURVE",
"981 677 CURVE SMOOTH",
"981 670 OFFCURVE",
"990 665 OFFCURVE",
"996 665 CURVE SMOOTH",
"1003 665 OFFCURVE",
"1008 667 OFFCURVE",
"1013 667 CURVE SMOOTH",
"1021 667 OFFCURVE",
"1031 665 OFFCURVE",
"1031 654 CURVE SMOOTH",
"1031 644 OFFCURVE",
"1019 627 OFFCURVE",
"1013 618 CURVE",
"894 586 OFFCURVE",
"777 543 OFFCURVE",
"663 495 CURVE SMOOTH",
"610 474 OFFCURVE",
"543 448 OFFCURVE",
"495 419 CURVE SMOOTH",
"490 417 OFFCURVE",
"486 413 OFFCURVE",
"486 406 CURVE SMOOTH",
"486 397 OFFCURVE",
"494 390 OFFCURVE",
"502 390 CURVE SMOOTH",
"505 390 OFFCURVE",
"507 391 OFFCURVE",
"510 392 CURVE SMOOTH",
"659 466 OFFCURVE",
"815 528 OFFCURVE",
"975 575 CURVE",
"952 552 OFFCURVE",
"925 534 OFFCURVE",
"898 515 CURVE",
"786 486 OFFCURVE",
"667 453 OFFCURVE",
"565 397 CURVE SMOOTH",
"555 391 OFFCURVE",
"541 385 OFFCURVE",
"532 377 CURVE SMOOTH",
"521 368 OFFCURVE",
"515 361 OFFCURVE",
"515 346 CURVE SMOOTH",
"515 326 OFFCURVE",
"530 305 OFFCURVE",
"552 305 CURVE SMOOTH",
"556 305 LINE SMOOTH",
"679 305 OFFCURVE",
"828 406 OFFCURVE",
"923 484 CURVE",
"1093 530 OFFCURVE",
"1267 564 OFFCURVE",
"1443 587 CURVE",
"1462 569 OFFCURVE",
"1472 545 OFFCURVE",
"1472 517 CURVE",
"1440 503 OFFCURVE",
"1403 492 OFFCURVE",
"1372 477 CURVE SMOOTH",
"1364 474 OFFCURVE",
"1357 468 OFFCURVE",
"1357 459 CURVE SMOOTH",
"1357 453 OFFCURVE",
"1361 448 OFFCURVE",
"1368 448 CURVE SMOOTH",
"1377 448 OFFCURVE",
"1454 474 OFFCURVE",
"1468 477 CURVE",
"1436 343 OFFCURVE",
"1241 204 OFFCURVE",
"1128 135 CURVE SMOOTH",
"956 31 OFFCURVE",
"721 -37 OFFCURVE",
"519 -37 CURVE SMOOTH",
"328 -37 OFFCURVE",
"124 31 OFFCURVE",
"124 255 CURVE SMOOTH",
"124 391 OFFCURVE",
"204 535 OFFCURVE",
"288 637 CURVE SMOOTH",
"492 888 OFFCURVE",
"743 1015 OFFCURVE",
"1066 1025 CURVE SMOOTH",
"1075 1025 OFFCURVE",
"1083 1025 OFFCURVE",
"1090 1025 CURVE SMOOTH",
"1190 1025 OFFCURVE",
"1401 1008 OFFCURVE",
"1483 946 CURVE",
"1446 935 OFFCURVE",
"1412 924 OFFCURVE",
"1377 910 CURVE SMOOTH",
"1345 897 OFFCURVE",
"1234 840 OFFCURVE",
"1234 803 CURVE SMOOTH",
"1234 759 OFFCURVE",
"1306 757 OFFCURVE",
"1335 757 CURVE SMOOTH",
"1361 757 OFFCURVE",
"1506 765 OFFCURVE",
"1506 794 CURVE SMOOTH",
"1506 799 OFFCURVE",
"1501 801 OFFCURVE",
"1495 801 CURVE SMOOTH",
"1494 801 OFFCURVE",
"1493 801 OFFCURVE",
"1492 801 CURVE SMOOTH",
"1455 795 OFFCURVE",
"1419 792 OFFCURVE",
"1383 792 CURVE SMOOTH",
"1369 792 OFFCURVE",
"1288 794 OFFCURVE",
"1288 812 CURVE SMOOTH",
"1288 835 OFFCURVE",
"1375 874 OFFCURVE",
"1392 880 CURVE SMOOTH",
"1467 914 OFFCURVE",
"1550 937 OFFCURVE",
"1630 950 CURVE SMOOTH",
"1648 954 OFFCURVE",
"1666 956 OFFCURVE",
"1684 957 CURVE SMOOTH",
"1693 959 OFFCURVE",
"1702 957 OFFCURVE",
"1711 959 CURVE SMOOTH",
"1720 961 OFFCURVE",
"1729 964 OFFCURVE",
"1729 975 CURVE SMOOTH",
"1729 983 OFFCURVE",
"1721 986 OFFCURVE",
"1715 986 CURVE SMOOTH",
"1652 986 OFFCURVE",
"1581 972 OFFCURVE",
"1521 952 CURVE",
"1490 997 OFFCURVE",
"1332 1032 OFFCURVE",
"1281 1041 CURVE SMOOTH",
"1241 1049 OFFCURVE",
"1201 1054 OFFCURVE",
"1161 1057 CURVE SMOOTH",
"1138 1058 OFFCURVE",
"1115 1059 OFFCURVE",
"1092 1059 CURVE SMOOTH",
"708 1059 OFFCURVE",
"292 839 OFFCURVE",
"103 499 CURVE SMOOTH",
"66 431 OFFCURVE",
"40 348 OFFCURVE",
"40 270 CURVE SMOOTH",
"40 206 OFFCURVE",
"57 143 OFFCURVE",
"89 88 CURVE SMOOTH",
"166 -48 OFFCURVE",
"342 -79 OFFCURVE",
"485 -79 CURVE SMOOTH",
"701 -79 OFFCURVE",
"979 -5 OFFCURVE",
"1164 107 CURVE SMOOTH",
"1292 186 OFFCURVE",
"1479 329 OFFCURVE",
"1502 489 CURVE"
);
},
{
closed = 1;
nodes = (
"1627 583 OFFCURVE",
"1524 538 OFFCURVE",
"1503 530 CURVE",
"1502 552 OFFCURVE",
"1493 574 OFFCURVE",
"1479 592 CURVE",
"1519 597 OFFCURVE",
"1560 605 OFFCURVE",
"1600 605 CURVE SMOOTH",
"1605 605 OFFCURVE",
"1610 604 OFFCURVE",
"1615 604 CURVE SMOOTH",
"1617 604 OFFCURVE",
"1627 604 OFFCURVE",
"1627 603 CURVE SMOOTH"
);
},
{
closed = 1;
nodes = (
"1115 614 OFFCURVE",
"1199 632 OFFCURVE",
"1281 632 CURVE SMOOTH",
"1321 632 OFFCURVE",
"1364 628 OFFCURVE",
"1401 613 CURVE",
"1259 592 OFFCURVE",
"1119 568 OFFCURVE",
"979 535 CURVE",
"999 554 OFFCURVE",
"1017 573 OFFCURVE",
"1035 592 CURVE"
);
},
{
closed = 1;
nodes = (
"619 388 OFFCURVE",
"763 436 OFFCURVE",
"790 445 CURVE",
"743 417 OFFCURVE",
"684 381 OFFCURVE",
"632 368 CURVE",
"628 368 OFFCURVE",
"625 365 OFFCURVE",
"621 365 CURVE",
"621 365 OFFCURVE",
"619 365 OFFCURVE",
"619 366 CURVE SMOOTH"
);
}
);
};
layerId = "95C423A7-595F-441F-915A-E5EF8B5EF971";
paths = (
{
closed = 1;
nodes = (
"701 -79 OFFCURVE",
"979 -5 OFFCURVE",
"1164 107 CURVE SMOOTH",
"1292 186 OFFCURVE",
"1479 329 OFFCURVE",
"1502 489 CURVE",
"1541 502 OFFCURVE",
"1677 547 OFFCURVE",
"1677 595 CURVE SMOOTH",
"1677 630 OFFCURVE",
"1604 631 OFFCURVE",
"1581 631 CURVE SMOOTH",
"1537 631 OFFCURVE",
"1494 626 OFFCURVE",
"1450 619 CURVE",
"1403 654 OFFCURVE",
"1335 663 OFFCURVE",
"1277 663 CURVE SMOOTH",
"1206 663 OFFCURVE",
"1134 649 OFFCURVE",
"1065 632 CURVE",
"1070 641 OFFCURVE",
"1076 652 OFFCURVE",
"1076 662 CURVE SMOOTH",
"1076 688 OFFCURVE",
"1041 692 OFFCURVE",
"1023 692 CURVE SMOOTH",
"1014 692 OFFCURVE",
"981 692 OFFCURVE",
"981 677 CURVE SMOOTH",
"981 670 OFFCURVE",
"990 665 OFFCURVE",
"996 665 CURVE SMOOTH",
"1003 665 OFFCURVE",
"1008 667 OFFCURVE",
"1013 667 CURVE SMOOTH",
"1021 667 OFFCURVE",
"1031 665 OFFCURVE",
"1031 654 CURVE SMOOTH",
"1031 644 OFFCURVE",
"1019 627 OFFCURVE",
"1013 618 CURVE",
"894 586 OFFCURVE",
"777 543 OFFCURVE",
"663 495 CURVE SMOOTH",
"610 474 OFFCURVE",
"543 448 OFFCURVE",
"495 419 CURVE SMOOTH",
"490 417 OFFCURVE",
"486 413 OFFCURVE",
"486 406 CURVE SMOOTH",
"486 397 OFFCURVE",
"494 390 OFFCURVE",
"502 390 CURVE SMOOTH",
"505 390 OFFCURVE",
"507 391 OFFCURVE",
"510 392 CURVE SMOOTH",
"659 466 OFFCURVE",
"815 528 OFFCURVE",
"975 575 CURVE",
"952 552 OFFCURVE",
"925 534 OFFCURVE",
"898 515 CURVE",
"786 486 OFFCURVE",
"667 453 OFFCURVE",
"565 397 CURVE SMOOTH",
"555 391 OFFCURVE",
"541 385 OFFCURVE",
"532 377 CURVE SMOOTH",
"521 368 OFFCURVE",
"515 361 OFFCURVE",
"515 346 CURVE SMOOTH",
"515 326 OFFCURVE",
"530 305 OFFCURVE",
"552 305 CURVE SMOOTH",
"556 305 LINE SMOOTH",
"679 305 OFFCURVE",
"828 406 OFFCURVE",
"923 484 CURVE",
"1093 530 OFFCURVE",
"1267 564 OFFCURVE",
"1443 587 CURVE",
"1462 569 OFFCURVE",
"1472 545 OFFCURVE",
"1472 517 CURVE",
"1440 503 OFFCURVE",
"1403 492 OFFCURVE",
"1372 477 CURVE SMOOTH",
"1364 474 OFFCURVE",
"1357 468 OFFCURVE",
"1357 459 CURVE SMOOTH",
"1357 453 OFFCURVE",
"1361 448 OFFCURVE",
"1368 448 CURVE SMOOTH",
"1377 448 OFFCURVE",
"1454 474 OFFCURVE",
"1468 477 CURVE",
"1436 343 OFFCURVE",
"1241 204 OFFCURVE",
"1128 135 CURVE SMOOTH",
"956 31 OFFCURVE",
"721 -37 OFFCURVE",
"519 -37 CURVE SMOOTH",
"328 -37 OFFCURVE",
"124 31 OFFCURVE",
"124 255 CURVE SMOOTH",
"124 391 OFFCURVE",
"204 535 OFFCURVE",
"288 637 CURVE SMOOTH",
"492 888 OFFCURVE",
"743 1015 OFFCURVE",
"1066 1025 CURVE SMOOTH",
"1090 1025 LINE SMOOTH",
"1190 1025 OFFCURVE",
"1401 1008 OFFCURVE",
"1483 946 CURVE",
"1446 935 OFFCURVE",
"1412 924 OFFCURVE",
"1377 910 CURVE SMOOTH",
"1345 897 OFFCURVE",
"1234 840 OFFCURVE",
"1234 803 CURVE SMOOTH",
"1234 759 OFFCURVE",
"1306 757 OFFCURVE",
"1335 757 CURVE SMOOTH",
"1361 757 OFFCURVE",
"1506 765 OFFCURVE",
"1506 794 CURVE SMOOTH",
"1506 799 OFFCURVE",
"1501 801 OFFCURVE",
"1495 801 CURVE SMOOTH",
"1492 801 LINE",
"1455 795 OFFCURVE",
"1419 792 OFFCURVE",
"1383 792 CURVE SMOOTH",
"1369 792 OFFCURVE",
"1288 794 OFFCURVE",
"1288 812 CURVE SMOOTH",
"1288 835 OFFCURVE",
"1375 874 OFFCURVE",
"1392 880 CURVE SMOOTH",
"1467 914 OFFCURVE",
"1550 937 OFFCURVE",
"1630 950 CURVE SMOOTH",
"1648 954 OFFCURVE",
"1666 956 OFFCURVE",
"1684 957 CURVE SMOOTH",
"1693 959 OFFCURVE",
"1702 957 OFFCURVE",
"1711 959 CURVE SMOOTH",
"1720 961 OFFCURVE",
"1729 964 OFFCURVE",
"1729 975 CURVE SMOOTH",
"1729 983 OFFCURVE",
"1721 986 OFFCURVE",
"1715 986 CURVE SMOOTH",
"1652 986 OFFCURVE",
"1581 972 OFFCURVE",
"1521 952 CURVE",
"1490 997 OFFCURVE",
"1332 1032 OFFCURVE",
"1281 1041 CURVE SMOOTH",
"1241 1049 OFFCURVE",
"1201 1054 OFFCURVE",
"1161 1057 CURVE SMOOTH",
"1138 1058 OFFCURVE",
"1115 1059 OFFCURVE",
"1092 1059 CURVE SMOOTH",
"708 1059 OFFCURVE",
"292 839 OFFCURVE",
"103 499 CURVE SMOOTH",
"66 431 OFFCURVE",
"40 348 OFFCURVE",
"40 270 CURVE SMOOTH",
"40 206 OFFCURVE",
"57 143 OFFCURVE",
"89 88 CURVE SMOOTH",
"166 -48 OFFCURVE",
"342 -79 OFFCURVE",
"485 -79 CURVE SMOOTH"
);
},
{
closed = 1;
nodes = (
"621 365 OFFCURVE",
"619 365 OFFCURVE",
"619 366 CURVE SMOOTH",
"619 388 OFFCURVE",
"763 436 OFFCURVE",
"790 445 CURVE",
"743 417 OFFCURVE",
"684 381 OFFCURVE",
"632 368 CURVE",
"628 368 OFFCURVE",
"625 365 OFFCURVE",
"621 365 CURVE"
);
},
{
closed = 1;
nodes = (
"999 554 OFFCURVE",
"1017 573 OFFCURVE",
"1035 592 CURVE",
"1115 614 OFFCURVE",
"1199 632 OFFCURVE",
"1281 632 CURVE SMOOTH",
"1321 632 OFFCURVE",
"1364 628 OFFCURVE",
"1401 613 CURVE",
"1259 592 OFFCURVE",
"1119 568 OFFCURVE",
"979 535 CURVE"
);
},
{
closed = 1;
nodes = (
"1502 552 OFFCURVE",
"1493 574 OFFCURVE",
"1479 592 CURVE",
"1519 597 OFFCURVE",
"1560 605 OFFCURVE",
"1600 605 CURVE SMOOTH",
"1605 605 OFFCURVE",
"1610 604 OFFCURVE",
"1615 604 CURVE SMOOTH",
"1617 604 OFFCURVE",
"1627 604 OFFCURVE",
"1627 603 CURVE SMOOTH",
"1627 583 OFFCURVE",
"1524 538 OFFCURVE",
"1503 530 CURVE"
);
}
);
width = 1529;
}
);
note = G;
unicode = 0047;
},
{
glyphname = H;
lastChange = "2021-09-15 03:21:52 +0000";
layers = (
{
background = {
paths = (
{
closed = 1;
nodes = (
"2764 1152 OFFCURVE",
"2768 1154 OFFCURVE",
"2770 1154 CURVE",
"2830 1170 OFFCURVE",
"2893 1190 OFFCURVE",
"2945 1221 CURVE SMOOTH",
"2985 1245 OFFCURVE",
"3059 1295 OFFCURVE",
"3059 1348 CURVE SMOOTH",
"3059 1401 OFFCURVE",
"2987 1415 OFFCURVE",
"2947 1415 CURVE SMOOTH",
"2911 1415 OFFCURVE",
"2875 1408 OFFCURVE",
"2841 1396 CURVE SMOOTH",
"2514 1276 OFFCURVE",
"2072 766 OFFCURVE",
"1908 466 CURVE",
"1852 470 OFFCURVE",
"1794 472 OFFCURVE",
"1735 472 CURVE SMOOTH",
"1719 472 OFFCURVE",
"1703 471 OFFCURVE",
"1686 471 CURVE",
"1732 530 OFFCURVE",
"1768 601 OFFCURVE",
"1768 677 CURVE SMOOTH",
"1768 794 OFFCURVE",
"1681 871 OFFCURVE",
"1585 917 CURVE SMOOTH",
"1468 972 OFFCURVE",
"1323 988 OFFCURVE",
"1196 988 CURVE SMOOTH",
"1075 988 OFFCURVE",
"954 974 OFFCURVE",
"835 950 CURVE SMOOTH",
"583 899 OFFCURVE",
"178 760 OFFCURVE",
"45 521 CURVE SMOOTH",
"26 485 OFFCURVE",
"12 443 OFFCURVE",
"12 401 CURVE SMOOTH",
"12 320 OFFCURVE",
"68 265 OFFCURVE",
"135 226 CURVE",
"115 195 OFFCURVE",
"98 159 OFFCURVE",
"98 120 CURVE SMOOTH",
"98 -46 OFFCURVE",
"394 -67 OFFCURVE",
"512 -67 CURVE SMOOTH",
"560 -67 OFFCURVE",
"609 -66 OFFCURVE",
"657 -58 CURVE SMOOTH",
"994 -3 OFFCURVE",
"1434 174 OFFCURVE",
"1661 439 CURVE",
"1689 440 OFFCURVE",
"1717 441 OFFCURVE",
"1747 441 CURVE SMOOTH",
"1795 441 OFFCURVE",
"1844 439 OFFCURVE",
"1893 435 CURVE",
"1852 352 OFFCURVE",
"1810 254 OFFCURVE",
"1810 161 CURVE SMOOTH",
"1810 44 OFFCURVE",
"1858 -44 OFFCURVE",
"1986 -44 CURVE SMOOTH",
"2019 -44 OFFCURVE",
"2053 -37 OFFCURVE",
"2085 -28 CURVE SMOOTH",
"2188 0 OFFCURVE",
"2369 95 OFFCURVE",
"2428 188 CURVE SMOOTH",
"2430 191 OFFCURVE",
"2431 194 OFFCURVE",
"2431 196 CURVE SMOOTH",
"2431 205 OFFCURVE",
"2422 213 OFFCURVE",
"2413 213 CURVE SMOOTH",
"2408 213 OFFCURVE",
"2405 210 OFFCURVE",
"2401 206 CURVE",
"2328 110 OFFCURVE",
"2152 6 OFFCURVE",
"2030 6 CURVE SMOOTH",
"1920 6 OFFCURVE",
"1888 92 OFFCURVE",
"1888 188 CURVE SMOOTH",
"1888 271 OFFCURVE",
"1920 355 OFFCURVE",
"1955 427 CURVE",
"2004 421 OFFCURVE",
"2199 390 OFFCURVE",
"2199 324 CURVE SMOOTH",
"2199 298 OFFCURVE",
"2174 289 OFFCURVE",
"2174 274 CURVE SMOOTH",
"2174 267 OFFCURVE",
"2178 258 OFFCURVE",
"2186 258 CURVE SMOOTH",
"2206 258 OFFCURVE",
"2234 320 OFFCURVE",
"2234 342 CURVE SMOOTH",
"2234 437 OFFCURVE",
"2039 454 OFFCURVE",
"1970 461 CURVE",
"2022 561 OFFCURVE",
"2086 655 OFFCURVE",
"2155 746 CURVE SMOOTH",
"2307 945 OFFCURVE",
"2614 1272 OFFCURVE",
"2858 1350 CURVE SMOOTH",
"2880 1356 OFFCURVE",
"2905 1360 OFFCURVE",
"2928 1360 CURVE SMOOTH",
"2947 1360 OFFCURVE",
"2996 1356 OFFCURVE",
"2996 1329 CURVE SMOOTH",
"2996 1299 OFFCURVE",
"2941 1266 OFFCURVE",
"2920 1253 CURVE SMOOTH",
"2884 1230 OFFCURVE",
"2845 1210 OFFCURVE",
"2805 1196 CURVE SMOOTH",
"2792 1191 OFFCURVE",
"2777 1187 OFFCURVE",
"2763 1182 CURVE SMOOTH",
"2755 1179 OFFCURVE",
"2745 1175 OFFCURVE",
"2745 1165 CURVE SMOOTH",
"2745 1156 OFFCURVE",
"2754 1152 OFFCURVE",
"2761 1152 CURVE SMOOTH"
);
},
{
closed = 1;
nodes = (
"1305 954 OFFCURVE",
"1452 935 OFFCURVE",
"1565 875 CURVE SMOOTH",
"1636 836 OFFCURVE",
"1695 779 OFFCURVE",
"1695 694 CURVE SMOOTH",
"1695 609 OFFCURVE",
"1637 526 OFFCURVE",
"1583 467 CURVE",
"1412 455 OFFCURVE",
"985 406 OFFCURVE",
"836 332 CURVE SMOOTH",
"819 323 OFFCURVE",
"790 306 OFFCURVE",
"790 283 CURVE SMOOTH",
"790 244 OFFCURVE",
"861 232 OFFCURVE",
"889 232 CURVE SMOOTH",
"906 232 OFFCURVE",
"957 235 OFFCURVE",
"957 259 CURVE SMOOTH",
"957 266 OFFCURVE",
"954 271 OFFCURVE",
"947 271 CURVE SMOOTH",
"946 271 OFFCURVE",
"943 271 OFFCURVE",
"942 270 CURVE",
"924 265 OFFCURVE",
"907 262 OFFCURVE",
"889 262 CURVE SMOOTH",
"885 262 OFFCURVE",
"867 262 OFFCURVE",
"867 267 CURVE SMOOTH",
"867 274 OFFCURVE",
"895 292 OFFCURVE",
"897 293 CURVE",
"996 356 OFFCURVE",
"1422 418 OFFCURVE",
"1547 430 CURVE",
"1302 187 OFFCURVE",
"853 -28 OFFCURVE",
"505 -28 CURVE SMOOTH",
"410 -28 OFFCURVE",
"161 -14 OFFCURVE",
"161 120 CURVE SMOOTH",
"161 148 OFFCURVE",
"172 177 OFFCURVE",
"186 203 CURVE",
"239 181 OFFCURVE",
"319 160 OFFCURVE",
"377 160 CURVE SMOOTH",
"385 160 OFFCURVE",
"391 165 OFFCURVE",
"391 174 CURVE SMOOTH",
"391 185 OFFCURVE",
"385 190 OFFCURVE",
"374 191 CURVE SMOOTH",
"357 194 OFFCURVE",
"338 194 OFFCURVE",
"321 196 CURVE SMOOTH",
"279 201 OFFCURVE",
"237 209 OFFCURVE",
"197 221 CURVE",
"239 286 OFFCURVE",
"298 317 OFFCURVE",
"365 352 CURVE SMOOTH",
"370 355 OFFCURVE",
"373 359 OFFCURVE",
"373 364 CURVE SMOOTH",
"373 373 OFFCURVE",
"365 382 OFFCURVE",
"356 382 CURVE SMOOTH",
"354 382 OFFCURVE",
"352 381 OFFCURVE",
"350 381 CURVE",
"284 351 OFFCURVE",
"201 305 OFFCURVE",
"154 249 CURVE",
"102 280 OFFCURVE",
"67 325 OFFCURVE",
"67 387 CURVE SMOOTH",
"67 428 OFFCURVE",
"83 472 OFFCURVE",
"102 507 CURVE SMOOTH",
"228 732 OFFCURVE",
"600 866 OFFCURVE",
"837 916 CURVE SMOOTH",
"950 939 OFFCURVE",
"1063 954 OFFCURVE",
"1177 954 CURVE SMOOTH"
);
}
);
};
layerId = "95C423A7-595F-441F-915A-E5EF8B5EF971";
paths = (
{
closed = 1;
nodes = (
"560 -67 OFFCURVE",
"609 -66 OFFCURVE",
"657 -58 CURVE SMOOTH",
"994 -3 OFFCURVE",
"1434 174 OFFCURVE",
"1661 439 CURVE",
"1689 440 OFFCURVE",
"1717 441 OFFCURVE",
"1747 441 CURVE SMOOTH",
"1795 441 OFFCURVE",
"1844 439 OFFCURVE",
"1893 435 CURVE",
"1852 352 OFFCURVE",
"1810 254 OFFCURVE",
"1810 161 CURVE SMOOTH",
"1810 44 OFFCURVE",
"1858 -44 OFFCURVE",
"1986 -44 CURVE SMOOTH",
"2019 -44 OFFCURVE",
"2053 -37 OFFCURVE",
"2085 -28 CURVE SMOOTH",
"2188 0 OFFCURVE",
"2369 95 OFFCURVE",
"2428 188 CURVE SMOOTH",
"2430 191 OFFCURVE",
"2431 194 OFFCURVE",
"2431 196 CURVE SMOOTH",
"2431 205 OFFCURVE",
"2422 213 OFFCURVE",
"2413 213 CURVE SMOOTH",
"2408 213 OFFCURVE",
"2405 210 OFFCURVE",
"2401 206 CURVE",
"2328 110 OFFCURVE",
"2152 6 OFFCURVE",
"2030 6 CURVE SMOOTH",
"1920 6 OFFCURVE",
"1888 92 OFFCURVE",
"1888 188 CURVE SMOOTH",
"1888 271 OFFCURVE",
"1920 355 OFFCURVE",
"1955 427 CURVE",
"2004 421 OFFCURVE",
"2199 390 OFFCURVE",
"2199 324 CURVE SMOOTH",
"2199 298 OFFCURVE",
"2174 289 OFFCURVE",
"2174 274 CURVE SMOOTH",
"2174 267 OFFCURVE",
"2178 258 OFFCURVE",
"2186 258 CURVE SMOOTH",
"2206 258 OFFCURVE",
"2234 320 OFFCURVE",
"2234 342 CURVE SMOOTH",
"2234 437 OFFCURVE",
"2039 454 OFFCURVE",
"1970 461 CURVE",
"2022 561 OFFCURVE",
"2086 655 OFFCURVE",
"2155 746 CURVE SMOOTH",
"2307 945 OFFCURVE",
"2614 1272 OFFCURVE",
"2858 1350 CURVE SMOOTH",
"2880 1356 OFFCURVE",
"2905 1360 OFFCURVE",
"2928 1360 CURVE SMOOTH",
"2947 1360 OFFCURVE",
"2996 1356 OFFCURVE",
"2996 1329 CURVE SMOOTH",
"2996 1299 OFFCURVE",
"2941 1266 OFFCURVE",
"2920 1253 CURVE SMOOTH",
"2884 1230 OFFCURVE",
"2845 1210 OFFCURVE",
"2805 1196 CURVE SMOOTH",
"2792 1191 OFFCURVE",
"2777 1187 OFFCURVE",
"2763 1182 CURVE SMOOTH",
"2755 1179 OFFCURVE",
"2745 1175 OFFCURVE",
"2745 1165 CURVE SMOOTH",
"2745 1156 OFFCURVE",
"2754 1152 OFFCURVE",
"2761 1152 CURVE",
"2761 1152 LINE",
"2770 1154 LINE",
"2830 1170 OFFCURVE",
"2893 1190 OFFCURVE",
"2945 1221 CURVE SMOOTH",
"2985 1245 OFFCURVE",
"3059 1295 OFFCURVE",
"3059 1348 CURVE SMOOTH",
"3059 1401 OFFCURVE",
"2987 1415 OFFCURVE",
"2947 1415 CURVE SMOOTH",
"2911 1415 OFFCURVE",
"2875 1408 OFFCURVE",
"2841 1396 CURVE SMOOTH",
"2514 1276 OFFCURVE",
"2072 766 OFFCURVE",
"1908 466 CURVE",
"1852 470 OFFCURVE",
"1794 472 OFFCURVE",
"1735 472 CURVE SMOOTH",
"1719 472 OFFCURVE",
"1703 471 OFFCURVE",
"1686 471 CURVE",
"1732 530 OFFCURVE",
"1768 601 OFFCURVE",
"1768 677 CURVE SMOOTH",
"1768 794 OFFCURVE",
"1681 871 OFFCURVE",
"1585 917 CURVE SMOOTH",
"1468 972 OFFCURVE",
"1323 988 OFFCURVE",
"1196 988 CURVE SMOOTH",
"1075 988 OFFCURVE",
"954 974 OFFCURVE",
"835 950 CURVE SMOOTH",
"583 899 OFFCURVE",
"178 760 OFFCURVE",
"45 521 CURVE SMOOTH",
"26 485 OFFCURVE",
"12 443 OFFCURVE",
"12 401 CURVE SMOOTH",
"12 320 OFFCURVE",
"68 265 OFFCURVE",
"135 226 CURVE",
"115 195 OFFCURVE",
"98 159 OFFCURVE",
"98 120 CURVE SMOOTH",
"98 -46 OFFCURVE",
"394 -67 OFFCURVE",
"512 -67 CURVE SMOOTH"
);
},
{
closed = 1;
nodes = (
"410 -28 OFFCURVE",
"161 -14 OFFCURVE",
"161 120 CURVE SMOOTH",
"161 148 OFFCURVE",
"172 177 OFFCURVE",
"186 203 CURVE",
"239 181 OFFCURVE",
"319 160 OFFCURVE",
"377 160 CURVE SMOOTH",
"385 160 OFFCURVE",
"391 165 OFFCURVE",
"391 174 CURVE SMOOTH",
"391 185 OFFCURVE",
"385 190 OFFCURVE",
"374 191 CURVE SMOOTH",
"357 194 OFFCURVE",
"338 194 OFFCURVE",
"321 196 CURVE SMOOTH",
"279 201 OFFCURVE",
"237 209 OFFCURVE",
"197 221 CURVE",
"239 286 OFFCURVE",
"298 317 OFFCURVE",
"365 352 CURVE SMOOTH",
"370 355 OFFCURVE",
"373 359 OFFCURVE",
"373 364 CURVE SMOOTH",
"373 373 OFFCURVE",
"365 382 OFFCURVE",
"356 382 CURVE SMOOTH",
"354 382 OFFCURVE",
"352 381 OFFCURVE",
"350 381 CURVE",
"284 351 OFFCURVE",
"201 305 OFFCURVE",
"154 249 CURVE",
"102 280 OFFCURVE",
"67 325 OFFCURVE",
"67 387 CURVE SMOOTH",
"67 428 OFFCURVE",
"83 472 OFFCURVE",
"102 507 CURVE SMOOTH",
"228 732 OFFCURVE",
"600 866 OFFCURVE",
"837 916 CURVE SMOOTH",
"950 939 OFFCURVE",
"1063 954 OFFCURVE",
"1177 954 CURVE SMOOTH",
"1305 954 OFFCURVE",
"1452 935 OFFCURVE",
"1565 875 CURVE SMOOTH",
"1636 836 OFFCURVE",
"1695 779 OFFCURVE",
"1695 694 CURVE SMOOTH",
"1695 609 OFFCURVE",
"1637 526 OFFCURVE",
"1583 467 CURVE",
"1412 455 OFFCURVE",
"985 406 OFFCURVE",
"836 332 CURVE SMOOTH",
"819 323 OFFCURVE",
"790 306 OFFCURVE",
"790 283 CURVE SMOOTH",
"790 244 OFFCURVE",
"861 232 OFFCURVE",
"889 232 CURVE SMOOTH",
"906 232 OFFCURVE",
"957 235 OFFCURVE",
"957 259 CURVE SMOOTH",
"957 266 OFFCURVE",
"954 271 OFFCURVE",
"947 271 CURVE SMOOTH",
"946 271 OFFCURVE",
"943 271 OFFCURVE",
"942 270 CURVE",
"924 265 OFFCURVE",
"907 262 OFFCURVE",
"889 262 CURVE SMOOTH",
"885 262 OFFCURVE",
"867 262 OFFCURVE",
"867 267 CURVE SMOOTH",
"867 274 OFFCURVE",
"895 292 OFFCURVE",
"897 293 CURVE",
"996 356 OFFCURVE",
"1422 418 OFFCURVE",
"1547 430 CURVE",
"1302 187 OFFCURVE",
"853 -28 OFFCURVE",
"505 -28 CURVE SMOOTH"
);
}
);
width = 2359;
}
);
note = H;
unicode = 0048;
},
{
glyphname = I;
lastChange = "2021-09-15 03:21:52 +0000";
layers = (
{
background = {
paths = (
{
closed = 1;
nodes = (
"250 -128 OFFCURVE",
"277 -125 OFFCURVE",
"303 -119 CURVE SMOOTH",
"374 -103 OFFCURVE",
"437 -79 OFFCURVE",
"499 -41 CURVE SMOOTH",
"778 124 OFFCURVE",
"1012 517 OFFCURVE",
"1110 821 CURVE SMOOTH",
"1126 871 OFFCURVE",
"1134 923 OFFCURVE",
"1134 974 CURVE SMOOTH",
"1134 1106 OFFCURVE",
"1077 1257 OFFCURVE",
"924 1257 CURVE SMOOTH",
"814 1257 OFFCURVE",
"695 1179 OFFCURVE",
"613 1114 CURVE SMOOTH",
"471 1001 OFFCURVE",
"328 825 OFFCURVE",
"293 643 CURVE SMOOTH",
"289 622 OFFCURVE",
"286 601 OFFCURVE",
"286 581 CURVE SMOOTH",
"286 493 OFFCURVE",
"333 399 OFFCURVE",
"432 399 CURVE SMOOTH",
"608 399 OFFCURVE",
"787 644 OFFCURVE",
"827 799 CURVE SMOOTH",
"831 818 OFFCURVE",
"835 839 OFFCURVE",
"835 858 CURVE SMOOTH",
"835 892 OFFCURVE",
"823 921 OFFCURVE",
"786 921 CURVE SMOOTH",
"745 921 OFFCURVE",
"701 886 OFFCURVE",
"674 858 CURVE SMOOTH",
"671 855 OFFCURVE",
"668 852 OFFCURVE",
"668 848 CURVE SMOOTH",
"668 839 OFFCURVE",
"676 832 OFFCURVE",
"685 832 CURVE SMOOTH",
"699 832 OFFCURVE",
"734 884 OFFCURVE",
"770 884 CURVE SMOOTH",
"783 884 OFFCURVE",
"785 862 OFFCURVE",
"785 855 CURVE SMOOTH",
"785 835 OFFCURVE",
"779 815 OFFCURVE",
"774 796 CURVE SMOOTH",
"738 649 OFFCURVE",
"606 452 OFFCURVE",
"445 430 CURVE SMOOTH",
"441 430 OFFCURVE",
"437 430 OFFCURVE",
"434 430 CURVE SMOOTH",
"363 430 OFFCURVE",
"342 501 OFFCURVE",
"342 560 CURVE SMOOTH",
"342 761 OFFCURVE",
"511 972 OFFCURVE",
"659 1090 CURVE SMOOTH",
"729 1146 OFFCURVE",
"839 1221 OFFCURVE",
"933 1221 CURVE SMOOTH",
"1044 1221 OFFCURVE",
"1076 1114 OFFCURVE",
"1076 1021 CURVE SMOOTH",
"1076 961 OFFCURVE",
"1065 901 OFFCURVE",
"1046 844 CURVE SMOOTH",
"948 542 OFFCURVE",
"752 132 OFFCURVE",
"463 -23 CURVE SMOOTH",
"415 -49 OFFCURVE",
"366 -66 OFFCURVE",
"314 -77 CURVE SMOOTH",
"301 -81 OFFCURVE",
"288 -81 OFFCURVE",
"275 -81 CURVE SMOOTH",
"190 -81 OFFCURVE",
"123 -21 OFFCURVE",
"123 66 CURVE SMOOTH",
"123 168 OFFCURVE",
"213 243 OFFCURVE",
"213 255 CURVE SMOOTH",
"213 263 OFFCURVE",
"205 271 OFFCURVE",
"197 271 CURVE SMOOTH",
"192 271 OFFCURVE",
"188 268 OFFCURVE",
"186 266 CURVE SMOOTH",
"124 203 OFFCURVE",
"65 105 OFFCURVE",
"65 13 CURVE SMOOTH",
"65 -84 OFFCURVE",
"133 -128 OFFCURVE",
"223 -128 CURVE SMOOTH"
);
}
);
};
layerId = "95C423A7-595F-441F-915A-E5EF8B5EF971";
paths = (
{
closed = 1;
nodes = (
"250 -128 OFFCURVE",
"277 -125 OFFCURVE",
"303 -119 CURVE SMOOTH",
"374 -103 OFFCURVE",
"437 -79 OFFCURVE",
"499 -41 CURVE SMOOTH",
"778 124 OFFCURVE",
"1012 517 OFFCURVE",
"1110 821 CURVE SMOOTH",
"1126 871 OFFCURVE",
"1134 923 OFFCURVE",
"1134 974 CURVE SMOOTH",
"1134 1106 OFFCURVE",
"1077 1257 OFFCURVE",
"924 1257 CURVE SMOOTH",
"814 1257 OFFCURVE",
"695 1179 OFFCURVE",
"613 1114 CURVE SMOOTH",
"471 1001 OFFCURVE",
"328 825 OFFCURVE",
"293 643 CURVE SMOOTH",
"289 622 OFFCURVE",
"286 601 OFFCURVE",
"286 581 CURVE SMOOTH",
"286 493 OFFCURVE",
"333 399 OFFCURVE",
"432 399 CURVE SMOOTH",
"608 399 OFFCURVE",
"787 644 OFFCURVE",
"827 799 CURVE SMOOTH",
"831 818 OFFCURVE",
"835 839 OFFCURVE",
"835 858 CURVE SMOOTH",
"835 892 OFFCURVE",
"823 921 OFFCURVE",
"786 921 CURVE SMOOTH",
"745 921 OFFCURVE",
"701 886 OFFCURVE",
"674 858 CURVE SMOOTH",
"671 855 OFFCURVE",
"668 852 OFFCURVE",
"668 848 CURVE SMOOTH",
"668 839 OFFCURVE",
"676 832 OFFCURVE",
"685 832 CURVE SMOOTH",
"699 832 OFFCURVE",
"734 884 OFFCURVE",
"770 884 CURVE SMOOTH",
"783 884 OFFCURVE",
"785 862 OFFCURVE",
"785 855 CURVE SMOOTH",
"785 835 OFFCURVE",
"779 815 OFFCURVE",
"774 796 CURVE SMOOTH",
"738 649 OFFCURVE",
"606 452 OFFCURVE",
"445 430 CURVE",
"434 430 LINE SMOOTH",
"363 430 OFFCURVE",
"342 501 OFFCURVE",
"342 560 CURVE SMOOTH",
"342 761 OFFCURVE",
"511 972 OFFCURVE",
"659 1090 CURVE SMOOTH",
"729 1146 OFFCURVE",
"839 1221 OFFCURVE",
"933 1221 CURVE SMOOTH",
"1044 1221 OFFCURVE",
"1076 1114 OFFCURVE",
"1076 1021 CURVE SMOOTH",
"1076 961 OFFCURVE",
"1065 901 OFFCURVE",
"1046 844 CURVE SMOOTH",
"948 542 OFFCURVE",
"752 132 OFFCURVE",
"463 -23 CURVE SMOOTH",
"415 -49 OFFCURVE",
"366 -66 OFFCURVE",
"314 -77 CURVE SMOOTH",
"301 -81 OFFCURVE",
"288 -81 OFFCURVE",
"275 -81 CURVE SMOOTH",
"190 -81 OFFCURVE",
"123 -21 OFFCURVE",
"123 66 CURVE SMOOTH",
"123 168 OFFCURVE",
"213 243 OFFCURVE",
"213 255 CURVE SMOOTH",
"213 263 OFFCURVE",
"205 271 OFFCURVE",
"197 271 CURVE SMOOTH",
"192 271 OFFCURVE",
"188 268 OFFCURVE",
"186 266 CURVE SMOOTH",
"124 203 OFFCURVE",
"65 105 OFFCURVE",
"65 13 CURVE SMOOTH",
"65 -84 OFFCURVE",
"133 -128 OFFCURVE",
"223 -128 CURVE SMOOTH"
);
}
);
width = 1129;
}
);
note = I;
unicode = 0049;
},
{
color = 11;
glyphname = Iacute;
lastChange = "2021-09-15 03:21:52 +0000";
layers = (
{
background = {
paths = (
{
closed = 1;
nodes = (
"935 1235 OFFCURVE",
"939 1236 OFFCURVE",
"942 1239 CURVE",
"1001 1274 OFFCURVE",
"1062 1305 OFFCURVE",
"1123 1337 CURVE SMOOTH",
"1138 1345 OFFCURVE",
"1166 1361 OFFCURVE",
"1166 1382 CURVE SMOOTH",
"1166 1397 OFFCURVE",
"1150 1403 OFFCURVE",
"1137 1403 CURVE SMOOTH",
"1114 1403 OFFCURVE",
"1093 1390 OFFCURVE",
"1077 1375 CURVE SMOOTH",
"1055 1356 OFFCURVE",
"923 1265 OFFCURVE",
"923 1244 CURVE SMOOTH",
"923 1239 OFFCURVE",
"925 1235 OFFCURVE",
"930 1235 CURVE SMOOTH"
);
},
{
closed = 1;
nodes = (
"248 -170 OFFCURVE",
"275 -168 OFFCURVE",
"301 -161 CURVE SMOOTH",
"372 -146 OFFCURVE",
"435 -121 OFFCURVE",
"497 -84 CURVE SMOOTH",
"775 81 OFFCURVE",
"1009 475 OFFCURVE",
"1107 778 CURVE SMOOTH",
"1124 828 OFFCURVE",
"1132 880 OFFCURVE",
"1132 932 CURVE SMOOTH",
"1132 1063 OFFCURVE",
"1075 1214 OFFCURVE",
"921 1214 CURVE SMOOTH",
"812 1214 OFFCURVE",
"693 1137 OFFCURVE",
"610 1071 CURVE SMOOTH",
"468 959 OFFCURVE",
"325 782 OFFCURVE",
"290 600 CURVE SMOOTH",
"286 579 OFFCURVE",
"284 559 OFFCURVE",
"284 538 CURVE SMOOTH",
"284 450 OFFCURVE",
"330 356 OFFCURVE",
"430 356 CURVE SMOOTH",
"605 356 OFFCURVE",
"785 601 OFFCURVE",
"825 756 CURVE SMOOTH",
"828 775 OFFCURVE",
"832 796 OFFCURVE",
"832 815 CURVE SMOOTH",
"832 849 OFFCURVE",
"821 879 OFFCURVE",
"783 879 CURVE SMOOTH",
"742 879 OFFCURVE",
"698 844 OFFCURVE",
"671 815 CURVE SMOOTH",
"668 813 OFFCURVE",
"666 809 OFFCURVE",
"666 805 CURVE SMOOTH",
"666 796 OFFCURVE",
"674 790 OFFCURVE",
"683 790 CURVE SMOOTH",
"697 790 OFFCURVE",
"732 841 OFFCURVE",
"768 841 CURVE SMOOTH",
"781 841 OFFCURVE",
"782 819 OFFCURVE",
"782 813 CURVE SMOOTH",
"782 792 OFFCURVE",
"777 773 OFFCURVE",
"772 754 CURVE SMOOTH",
"735 606 OFFCURVE",
"604 409 OFFCURVE",
"443 387 CURVE SMOOTH",
"439 387 OFFCURVE",
"435 387 OFFCURVE",
"431 387 CURVE SMOOTH",
"360 387 OFFCURVE",
"339 458 OFFCURVE",
"339 517 CURVE SMOOTH",
"339 719 OFFCURVE",
"508 929 OFFCURVE",
"657 1048 CURVE SMOOTH",
"726 1103 OFFCURVE",
"836 1178 OFFCURVE",
"930 1178 CURVE SMOOTH",
"1041 1178 OFFCURVE",
"1074 1071 OFFCURVE",
"1074 978 CURVE SMOOTH",
"1074 919 OFFCURVE",
"1062 858 OFFCURVE",
"1044 801 CURVE SMOOTH",
"946 499 OFFCURVE",
"750 89 OFFCURVE",
"461 -66 CURVE SMOOTH",
"413 -92 OFFCURVE",
"364 -108 OFFCURVE",
"311 -120 CURVE SMOOTH",
"298 -124 OFFCURVE",
"285 -124 OFFCURVE",
"272 -124 CURVE SMOOTH",
"187 -124 OFFCURVE",
"120 -63 OFFCURVE",
"120 23 CURVE SMOOTH",
"120 125 OFFCURVE",
"210 200 OFFCURVE",
"210 213 CURVE SMOOTH",
"210 221 OFFCURVE",
"203 228 OFFCURVE",
"195 228 CURVE SMOOTH",
"190 228 OFFCURVE",
"186 226 OFFCURVE",
"183 223 CURVE SMOOTH",
"121 160 OFFCURVE",
"62 62 OFFCURVE",
"62 -30 CURVE SMOOTH",
"62 -126 OFFCURVE",
"130 -170 OFFCURVE",
"221 -170 CURVE SMOOTH"
);
}
);
};
layerId = "95C423A7-595F-441F-915A-E5EF8B5EF971";
paths = (
{
closed = 1;
nodes = (
"248 -170 OFFCURVE",
"275 -168 OFFCURVE",
"301 -161 CURVE SMOOTH",
"372 -146 OFFCURVE",
"435 -121 OFFCURVE",
"497 -84 CURVE SMOOTH",
"775 81 OFFCURVE",
"1009 475 OFFCURVE",
"1107 778 CURVE SMOOTH",
"1124 828 OFFCURVE",
"1132 880 OFFCURVE",
"1132 932 CURVE SMOOTH",
"1132 1063 OFFCURVE",
"1075 1214 OFFCURVE",
"921 1214 CURVE SMOOTH",
"812 1214 OFFCURVE",
"693 1137 OFFCURVE",
"610 1071 CURVE SMOOTH",
"468 959 OFFCURVE",
"325 782 OFFCURVE",
"290 600 CURVE SMOOTH",
"286 579 OFFCURVE",
"284 559 OFFCURVE",
"284 538 CURVE SMOOTH",
"284 450 OFFCURVE",
"330 356 OFFCURVE",
"430 356 CURVE SMOOTH",
"605 356 OFFCURVE",
"785 601 OFFCURVE",
"825 756 CURVE SMOOTH",
"828 775 OFFCURVE",
"832 796 OFFCURVE",
"832 815 CURVE SMOOTH",
"832 849 OFFCURVE",
"821 879 OFFCURVE",
"783 879 CURVE SMOOTH",
"742 879 OFFCURVE",
"698 844 OFFCURVE",
"671 815 CURVE SMOOTH",
"668 813 OFFCURVE",
"666 809 OFFCURVE",
"666 805 CURVE SMOOTH",
"666 796 OFFCURVE",
"674 790 OFFCURVE",
"683 790 CURVE SMOOTH",
"697 790 OFFCURVE",
"732 841 OFFCURVE",
"768 841 CURVE SMOOTH",
"781 841 OFFCURVE",
"782 819 OFFCURVE",
"782 813 CURVE SMOOTH",
"782 792 OFFCURVE",
"777 773 OFFCURVE",
"772 754 CURVE SMOOTH",
"735 606 OFFCURVE",
"604 409 OFFCURVE",
"443 387 CURVE",
"431 387 LINE SMOOTH",
"360 387 OFFCURVE",
"339 458 OFFCURVE",
"339 517 CURVE SMOOTH",
"339 719 OFFCURVE",
"508 929 OFFCURVE",
"657 1048 CURVE SMOOTH",
"726 1103 OFFCURVE",
"836 1178 OFFCURVE",
"930 1178 CURVE SMOOTH",
"1041 1178 OFFCURVE",
"1074 1071 OFFCURVE",
"1074 978 CURVE SMOOTH",
"1074 919 OFFCURVE",
"1062 858 OFFCURVE",
"1044 801 CURVE SMOOTH",
"946 499 OFFCURVE",
"750 89 OFFCURVE",
"461 -66 CURVE SMOOTH",
"413 -92 OFFCURVE",
"364 -108 OFFCURVE",
"311 -120 CURVE SMOOTH",
"298 -124 OFFCURVE",
"285 -124 OFFCURVE",
"272 -124 CURVE SMOOTH",
"187 -124 OFFCURVE",
"120 -63 OFFCURVE",
"120 23 CURVE SMOOTH",
"120 125 OFFCURVE",
"210 200 OFFCURVE",
"210 213 CURVE SMOOTH",
"210 221 OFFCURVE",
"203 228 OFFCURVE",
"195 228 CURVE SMOOTH",
"190 228 OFFCURVE",
"186 226 OFFCURVE",
"183 223 CURVE SMOOTH",
"121 160 OFFCURVE",
"62 62 OFFCURVE",
"62 -30 CURVE SMOOTH",
"62 -126 OFFCURVE",
"130 -170 OFFCURVE",
"221 -170 CURVE SMOOTH"
);
},
{
closed = 1;
nodes = (
"935 1235 OFFCURVE",
"939 1236 OFFCURVE",
"942 1239 CURVE",
"1001 1274 OFFCURVE",
"1062 1305 OFFCURVE",
"1123 1337 CURVE SMOOTH",
"1138 1345 OFFCURVE",
"1166 1361 OFFCURVE",
"1166 1382 CURVE SMOOTH",
"1166 1397 OFFCURVE",
"1150 1403 OFFCURVE",
"1137 1403 CURVE SMOOTH",
"1114 1403 OFFCURVE",
"1093 1390 OFFCURVE",
"1077 1375 CURVE SMOOTH",
"1055 1356 OFFCURVE",
"923 1265 OFFCURVE",
"923 1244 CURVE SMOOTH",
"923 1239 OFFCURVE",
"925 1235 OFFCURVE",
"930 1235 CURVE SMOOTH"
);
}
);
width = 1129;
}
);
note = Iacute;
unicode = 00CD;
},
{
color = 11;
glyphname = Icircumflex;
lastChange = "2021-09-15 03:21:52 +0000";
layers = (
{
background = {
paths = (
{
closed = 1;
nodes = (
"1204 1266 LINE",
"1147 1308 OFFCURVE",
"1090 1352 OFFCURVE",
"1043 1405 CURVE",
"1035 1408 LINE",
"1014 1406 OFFCURVE",
"859 1279 OFFCURVE",
"859 1262 CURVE SMOOTH",
"859 1258 OFFCURVE",
"865 1249 OFFCURVE",
"870 1249 CURVE SMOOTH",
"883 1249 OFFCURVE",
"999 1342 OFFCURVE",
"1017 1357 CURVE",
"1043 1329 OFFCURVE",
"1169 1245 OFFCURVE",
"1205 1244 CURVE",
"1210 1253 LINE"
);
},
{
closed = 1;
nodes = (
"246 -154 OFFCURVE",
"274 -151 OFFCURVE",
"299 -145 CURVE SMOOTH",
"370 -129 OFFCURVE",
"434 -105 OFFCURVE",
"495 -67 CURVE SMOOTH",
"774 98 OFFCURVE",
"1008 492 OFFCURVE",
"1106 795 CURVE SMOOTH",
"1123 845 OFFCURVE",
"1130 897 OFFCURVE",
"1130 948 CURVE SMOOTH",
"1130 1080 OFFCURVE",
"1074 1231 OFFCURVE",
"920 1231 CURVE SMOOTH",
"810 1231 OFFCURVE",
"692 1154 OFFCURVE",
"609 1088 CURVE SMOOTH",
"467 975 OFFCURVE",
"324 799 OFFCURVE",
"289 617 CURVE SMOOTH",
"285 596 OFFCURVE",
"283 575 OFFCURVE",
"283 555 CURVE SMOOTH",
"283 467 OFFCURVE",
"329 373 OFFCURVE",
"428 373 CURVE SMOOTH",
"604 373 OFFCURVE",
"783 618 OFFCURVE",
"823 773 CURVE SMOOTH",
"827 792 OFFCURVE",
"831 813 OFFCURVE",
"831 832 CURVE SMOOTH",
"831 866 OFFCURVE",
"819 895 OFFCURVE",
"782 895 CURVE SMOOTH",
"741 895 OFFCURVE",
"697 861 OFFCURVE",
"670 832 CURVE SMOOTH",
"667 830 OFFCURVE",
"665 826 OFFCURVE",
"665 822 CURVE SMOOTH",
"665 813 OFFCURVE",
"672 806 OFFCURVE",
"681 806 CURVE SMOOTH",
"695 806 OFFCURVE",
"730 858 OFFCURVE",
"766 858 CURVE SMOOTH",
"779 858 OFFCURVE",
"781 836 OFFCURVE",
"781 830 CURVE SMOOTH",
"781 809 OFFCURVE",
"775 790 OFFCURVE",
"770 770 CURVE SMOOTH",
"734 623 OFFCURVE",
"603 426 OFFCURVE",
"441 404 CURVE SMOOTH",
"437 404 OFFCURVE",
"434 404 OFFCURVE",
"430 404 CURVE SMOOTH",
"359 404 OFFCURVE",
"338 475 OFFCURVE",
"338 534 CURVE SMOOTH",
"338 735 OFFCURVE",
"507 946 OFFCURVE",
"655 1065 CURVE SMOOTH",
"725 1120 OFFCURVE",
"835 1195 OFFCURVE",
"929 1195 CURVE SMOOTH",
"1040 1195 OFFCURVE",
"1072 1088 OFFCURVE",
"1072 995 CURVE SMOOTH",
"1072 935 OFFCURVE",
"1061 875 OFFCURVE",
"1043 818 CURVE SMOOTH",
"945 516 OFFCURVE",
"748 106 OFFCURVE",
"459 -49 CURVE SMOOTH",
"412 -75 OFFCURVE",
"363 -92 OFFCURVE",
"310 -103 CURVE SMOOTH",
"297 -107 OFFCURVE",
"284 -107 OFFCURVE",
"271 -107 CURVE SMOOTH",
"186 -107 OFFCURVE",
"119 -46 OFFCURVE",
"119 40 CURVE SMOOTH",
"119 142 OFFCURVE",
"209 217 OFFCURVE",
"209 230 CURVE SMOOTH",
"209 237 OFFCURVE",
"201 245 OFFCURVE",
"194 245 CURVE SMOOTH",
"188 245 OFFCURVE",
"185 243 OFFCURVE",
"182 240 CURVE SMOOTH",
"120 177 OFFCURVE",
"61 79 OFFCURVE",
"61 -13 CURVE SMOOTH",
"61 -110 OFFCURVE",
"129 -154 OFFCURVE",
"219 -154 CURVE SMOOTH"
);
}
);
};
layerId = "95C423A7-595F-441F-915A-E5EF8B5EF971";
paths = (
{
closed = 1;
nodes = (
"246 -154 OFFCURVE",
"274 -151 OFFCURVE",
"299 -145 CURVE SMOOTH",
"370 -129 OFFCURVE",
"434 -105 OFFCURVE",
"495 -67 CURVE SMOOTH",
"774 98 OFFCURVE",
"1008 492 OFFCURVE",
"1106 795 CURVE SMOOTH",
"1123 845 OFFCURVE",
"1130 897 OFFCURVE",
"1130 948 CURVE SMOOTH",
"1130 1080 OFFCURVE",
"1074 1231 OFFCURVE",
"920 1231 CURVE SMOOTH",
"810 1231 OFFCURVE",
"692 1154 OFFCURVE",
"609 1088 CURVE SMOOTH",
"467 975 OFFCURVE",
"324 799 OFFCURVE",
"289 617 CURVE SMOOTH",
"285 596 OFFCURVE",
"283 575 OFFCURVE",
"283 555 CURVE SMOOTH",
"283 467 OFFCURVE",
"329 373 OFFCURVE",
"428 373 CURVE SMOOTH",
"604 373 OFFCURVE",
"783 618 OFFCURVE",
"823 773 CURVE SMOOTH",
"827 792 OFFCURVE",
"831 813 OFFCURVE",
"831 832 CURVE SMOOTH",
"831 866 OFFCURVE",
"819 895 OFFCURVE",
"782 895 CURVE SMOOTH",
"741 895 OFFCURVE",
"697 861 OFFCURVE",
"670 832 CURVE SMOOTH",
"667 830 OFFCURVE",
"665 826 OFFCURVE",
"665 822 CURVE SMOOTH",
"665 813 OFFCURVE",
"672 806 OFFCURVE",
"681 806 CURVE SMOOTH",
"695 806 OFFCURVE",
"730 858 OFFCURVE",
"766 858 CURVE SMOOTH",
"779 858 OFFCURVE",
"781 836 OFFCURVE",
"781 830 CURVE SMOOTH",
"781 809 OFFCURVE",
"775 790 OFFCURVE",
"770 770 CURVE SMOOTH",
"734 623 OFFCURVE",
"603 426 OFFCURVE",
"441 404 CURVE",
"430 404 LINE SMOOTH",
"359 404 OFFCURVE",
"338 475 OFFCURVE",
"338 534 CURVE SMOOTH",
"338 735 OFFCURVE",
"507 946 OFFCURVE",
"655 1065 CURVE SMOOTH",
"725 1120 OFFCURVE",
"835 1195 OFFCURVE",
"929 1195 CURVE SMOOTH",
"1040 1195 OFFCURVE",
"1072 1088 OFFCURVE",
"1072 995 CURVE SMOOTH",
"1072 935 OFFCURVE",
"1061 875 OFFCURVE",
"1043 818 CURVE SMOOTH",
"945 516 OFFCURVE",
"748 106 OFFCURVE",
"459 -49 CURVE SMOOTH",
"412 -75 OFFCURVE",
"363 -92 OFFCURVE",
"310 -103 CURVE SMOOTH",
"297 -107 OFFCURVE",
"284 -107 OFFCURVE",
"271 -107 CURVE SMOOTH",
"186 -107 OFFCURVE",
"119 -46 OFFCURVE",
"119 40 CURVE SMOOTH",
"119 142 OFFCURVE",
"209 217 OFFCURVE",
"209 230 CURVE SMOOTH",
"209 237 OFFCURVE",
"201 245 OFFCURVE",
"194 245 CURVE SMOOTH",
"188 245 OFFCURVE",
"185 243 OFFCURVE",
"182 240 CURVE SMOOTH",
"120 177 OFFCURVE",
"61 79 OFFCURVE",
"61 -13 CURVE SMOOTH",
"61 -110 OFFCURVE",
"129 -154 OFFCURVE",
"219 -154 CURVE SMOOTH"
);
},
{
closed = 1;
nodes = (
"1210 1253 LINE",
"1204 1266 LINE",
"1147 1308 OFFCURVE",
"1090 1352 OFFCURVE",
"1043 1405 CURVE",
"1035 1408 LINE",
"1014 1406 OFFCURVE",
"859 1279 OFFCURVE",
"859 1262 CURVE SMOOTH",
"859 1258 OFFCURVE",
"865 1249 OFFCURVE",
"870 1249 CURVE SMOOTH",
"883 1249 OFFCURVE",
"999 1342 OFFCURVE",
"1017 1357 CURVE",
"1043 1329 OFFCURVE",
"1169 1245 OFFCURVE",
"1205 1244 CURVE"
);
}
);
width = 1129;
}
);
note = Icircumflex;
unicode = 00CE;
},
{
color = 11;
glyphname = Idieresis;
lastChange = "2021-09-15 03:21:52 +0000";
layers = (
{
background = {
paths = (
{
closed = 1;
nodes = (
"982 1405 LINE SMOOTH",
"982 1408 OFFCURVE",
"979 1408 OFFCURVE",
"978 1408 CURVE SMOOTH",
"954 1408 OFFCURVE",
"880 1361 OFFCURVE",
"880 1333 CURVE SMOOTH",
"880 1321 OFFCURVE",
"894 1295 OFFCURVE",
"907 1295 CURVE SMOOTH",
"928 1295 OFFCURVE",
"941 1323 OFFCURVE",
"945 1338 CURVE SMOOTH",
"950 1354 OFFCURVE",
"955 1369 OFFCURVE",
"964 1382 CURVE SMOOTH",
"966 1386 OFFCURVE",
"982 1403 OFFCURVE",
"982 1404 CURVE SMOOTH",
"982 1406 LINE"
);
},
{
closed = 1;
nodes = (
"1138 1405 LINE SMOOTH",
"1138 1408 OFFCURVE",
"1135 1408 OFFCURVE",
"1134 1408 CURVE SMOOTH",
"1110 1408 OFFCURVE",
"1036 1361 OFFCURVE",
"1036 1333 CURVE SMOOTH",
"1036 1321 OFFCURVE",
"1050 1295 OFFCURVE",
"1063 1295 CURVE SMOOTH",
"1084 1295 OFFCURVE",
"1097 1323 OFFCURVE",
"1101 1338 CURVE SMOOTH",
"1106 1354 OFFCURVE",
"1111 1369 OFFCURVE",
"1120 1382 CURVE SMOOTH",
"1123 1386 OFFCURVE",
"1138 1403 OFFCURVE",
"1138 1404 CURVE SMOOTH",
"1138 1406 LINE"
);
},
{
closed = 1;
nodes = (
"250 -128 OFFCURVE",
"277 -125 OFFCURVE",
"303 -119 CURVE SMOOTH",
"374 -103 OFFCURVE",
"437 -79 OFFCURVE",
"499 -41 CURVE SMOOTH",
"778 124 OFFCURVE",
"1012 517 OFFCURVE",
"1110 821 CURVE SMOOTH",
"1126 871 OFFCURVE",
"1134 923 OFFCURVE",
"1134 974 CURVE SMOOTH",
"1134 1106 OFFCURVE",
"1077 1257 OFFCURVE",
"924 1257 CURVE SMOOTH",
"814 1257 OFFCURVE",
"695 1179 OFFCURVE",
"613 1114 CURVE SMOOTH",
"471 1001 OFFCURVE",
"328 825 OFFCURVE",
"293 643 CURVE SMOOTH",
"289 622 OFFCURVE",
"286 601 OFFCURVE",
"286 581 CURVE SMOOTH",
"286 493 OFFCURVE",
"333 399 OFFCURVE",
"432 399 CURVE SMOOTH",
"608 399 OFFCURVE",
"787 644 OFFCURVE",
"827 799 CURVE SMOOTH",
"831 818 OFFCURVE",
"835 839 OFFCURVE",
"835 858 CURVE SMOOTH",
"835 892 OFFCURVE",
"823 921 OFFCURVE",
"786 921 CURVE SMOOTH",
"745 921 OFFCURVE",
"701 886 OFFCURVE",
"674 858 CURVE SMOOTH",
"671 855 OFFCURVE",
"668 852 OFFCURVE",
"668 848 CURVE SMOOTH",
"668 839 OFFCURVE",
"676 832 OFFCURVE",
"685 832 CURVE SMOOTH",
"699 832 OFFCURVE",
"734 884 OFFCURVE",
"770 884 CURVE SMOOTH",
"783 884 OFFCURVE",
"785 862 OFFCURVE",
"785 855 CURVE SMOOTH",
"785 835 OFFCURVE",
"779 815 OFFCURVE",
"774 796 CURVE SMOOTH",
"738 649 OFFCURVE",
"606 452 OFFCURVE",
"445 430 CURVE SMOOTH",
"441 430 OFFCURVE",
"437 430 OFFCURVE",
"434 430 CURVE SMOOTH",
"363 430 OFFCURVE",
"342 501 OFFCURVE",
"342 560 CURVE SMOOTH",
"342 761 OFFCURVE",
"511 972 OFFCURVE",
"659 1090 CURVE SMOOTH",
"729 1146 OFFCURVE",
"839 1221 OFFCURVE",
"933 1221 CURVE SMOOTH",
"1044 1221 OFFCURVE",
"1076 1114 OFFCURVE",
"1076 1021 CURVE SMOOTH",
"1076 961 OFFCURVE",
"1065 901 OFFCURVE",
"1046 844 CURVE SMOOTH",
"948 542 OFFCURVE",
"752 132 OFFCURVE",
"463 -23 CURVE SMOOTH",
"415 -49 OFFCURVE",
"366 -66 OFFCURVE",
"314 -77 CURVE SMOOTH",
"301 -81 OFFCURVE",
"288 -81 OFFCURVE",
"275 -81 CURVE SMOOTH",
"190 -81 OFFCURVE",
"123 -21 OFFCURVE",
"123 66 CURVE SMOOTH",
"123 168 OFFCURVE",
"213 243 OFFCURVE",
"213 255 CURVE SMOOTH",
"213 263 OFFCURVE",
"205 271 OFFCURVE",
"197 271 CURVE SMOOTH",
"192 271 OFFCURVE",
"188 268 OFFCURVE",
"186 266 CURVE SMOOTH",
"124 203 OFFCURVE",
"65 105 OFFCURVE",
"65 13 CURVE SMOOTH",
"65 -84 OFFCURVE",
"133 -128 OFFCURVE",
"223 -128 CURVE SMOOTH"
);
}
);
};
layerId = "95C423A7-595F-441F-915A-E5EF8B5EF971";
paths = (
{
closed = 1;
nodes = (
"250 -128 OFFCURVE",
"277 -125 OFFCURVE",
"303 -119 CURVE SMOOTH",
"374 -103 OFFCURVE",
"437 -79 OFFCURVE",
"499 -41 CURVE SMOOTH",
"778 124 OFFCURVE",
"1012 517 OFFCURVE",
"1110 821 CURVE SMOOTH",
"1126 871 OFFCURVE",
"1134 923 OFFCURVE",
"1134 974 CURVE SMOOTH",
"1134 1106 OFFCURVE",
"1077 1257 OFFCURVE",
"924 1257 CURVE SMOOTH",
"814 1257 OFFCURVE",
"695 1179 OFFCURVE",
"613 1114 CURVE SMOOTH",
"471 1001 OFFCURVE",
"328 825 OFFCURVE",
"293 643 CURVE SMOOTH",
"289 622 OFFCURVE",
"286 601 OFFCURVE",
"286 581 CURVE SMOOTH",
"286 493 OFFCURVE",
"333 399 OFFCURVE",
"432 399 CURVE SMOOTH",
"608 399 OFFCURVE",
"787 644 OFFCURVE",
"827 799 CURVE SMOOTH",
"831 818 OFFCURVE",
"835 839 OFFCURVE",
"835 858 CURVE SMOOTH",
"835 892 OFFCURVE",
"823 921 OFFCURVE",
"786 921 CURVE SMOOTH",
"745 921 OFFCURVE",
"701 886 OFFCURVE",
"674 858 CURVE SMOOTH",
"671 855 OFFCURVE",
"668 852 OFFCURVE",
"668 848 CURVE SMOOTH",
"668 839 OFFCURVE",
"676 832 OFFCURVE",
"685 832 CURVE SMOOTH",
"699 832 OFFCURVE",
"734 884 OFFCURVE",
"770 884 CURVE SMOOTH",
"783 884 OFFCURVE",
"785 862 OFFCURVE",
"785 855 CURVE SMOOTH",
"785 835 OFFCURVE",
"779 815 OFFCURVE",
"774 796 CURVE SMOOTH",
"738 649 OFFCURVE",
"606 452 OFFCURVE",
"445 430 CURVE",
"434 430 LINE SMOOTH",
"363 430 OFFCURVE",
"342 501 OFFCURVE",
"342 560 CURVE SMOOTH",
"342 761 OFFCURVE",
"511 972 OFFCURVE",
"659 1090 CURVE SMOOTH",
"729 1146 OFFCURVE",
"839 1221 OFFCURVE",
"933 1221 CURVE SMOOTH",
"1044 1221 OFFCURVE",
"1076 1114 OFFCURVE",
"1076 1021 CURVE SMOOTH",
"1076 961 OFFCURVE",
"1065 901 OFFCURVE",
"1046 844 CURVE SMOOTH",
"948 542 OFFCURVE",
"752 132 OFFCURVE",
"463 -23 CURVE SMOOTH",
"415 -49 OFFCURVE",
"366 -66 OFFCURVE",
"314 -77 CURVE SMOOTH",
"301 -81 OFFCURVE",
"288 -81 OFFCURVE",
"275 -81 CURVE SMOOTH",
"190 -81 OFFCURVE",
"123 -21 OFFCURVE",
"123 66 CURVE SMOOTH",
"123 168 OFFCURVE",
"213 243 OFFCURVE",
"213 255 CURVE SMOOTH",
"213 263 OFFCURVE",
"205 271 OFFCURVE",
"197 271 CURVE SMOOTH",
"192 271 OFFCURVE",
"188 268 OFFCURVE",
"186 266 CURVE SMOOTH",
"124 203 OFFCURVE",
"65 105 OFFCURVE",
"65 13 CURVE SMOOTH",
"65 -84 OFFCURVE",
"133 -128 OFFCURVE",
"223 -128 CURVE SMOOTH"
);
},
{
closed = 1;
nodes = (
"928 1295 OFFCURVE",
"941 1323 OFFCURVE",
"945 1338 CURVE SMOOTH",
"950 1354 OFFCURVE",
"955 1369 OFFCURVE",
"964 1382 CURVE SMOOTH",
"966 1386 OFFCURVE",
"982 1403 OFFCURVE",
"982 1404 CURVE SMOOTH",
"982 1405 LINE SMOOTH",
"982 1408 OFFCURVE",
"979 1408 OFFCURVE",
"978 1408 CURVE SMOOTH",
"954 1408 OFFCURVE",
"880 1361 OFFCURVE",
"880 1333 CURVE SMOOTH",
"880 1321 OFFCURVE",
"894 1295 OFFCURVE",
"907 1295 CURVE SMOOTH"
);
},
{
closed = 1;
nodes = (
"1084 1295 OFFCURVE",
"1097 1323 OFFCURVE",
"1101 1338 CURVE SMOOTH",
"1106 1354 OFFCURVE",
"1111 1369 OFFCURVE",
"1120 1382 CURVE SMOOTH",
"1123 1386 OFFCURVE",
"1138 1403 OFFCURVE",
"1138 1404 CURVE SMOOTH",
"1138 1405 LINE SMOOTH",
"1138 1408 OFFCURVE",
"1135 1408 OFFCURVE",
"1134 1408 CURVE SMOOTH",
"1110 1408 OFFCURVE",
"1036 1361 OFFCURVE",
"1036 1333 CURVE SMOOTH",
"1036 1321 OFFCURVE",
"1050 1295 OFFCURVE",
"1063 1295 CURVE SMOOTH"
);
}
);
width = 1129;
}
);
note = Idieresis;
unicode = 00CF;
},
{
color = 11;
glyphname = Igrave;
lastChange = "2021-09-15 03:21:52 +0000";
layers = (
{
background = {
paths = (
{
closed = 1;
nodes = (
"1119 1231 OFFCURVE",
"1121 1235 OFFCURVE",
"1121 1240 CURVE SMOOTH",
"1121 1261 OFFCURVE",
"988 1352 OFFCURVE",
"966 1372 CURVE SMOOTH",
"951 1386 OFFCURVE",
"930 1399 OFFCURVE",
"907 1399 CURVE SMOOTH",
"895 1399 OFFCURVE",
"877 1392 OFFCURVE",
"877 1378 CURVE SMOOTH",
"877 1357 OFFCURVE",
"906 1341 OFFCURVE",
"921 1333 CURVE SMOOTH",
"982 1301 OFFCURVE",
"1043 1270 OFFCURVE",
"1102 1235 CURVE SMOOTH",
"1106 1232 OFFCURVE",
"1110 1231 OFFCURVE",
"1114 1231 CURVE SMOOTH"
);
},
{
closed = 1;
nodes = (
"246 -150 OFFCURVE",
"274 -147 OFFCURVE",
"299 -141 CURVE SMOOTH",
"370 -125 OFFCURVE",
"434 -101 OFFCURVE",
"495 -63 CURVE SMOOTH",
"774 102 OFFCURVE",
"1008 495 OFFCURVE",
"1106 799 CURVE SMOOTH",
"1123 849 OFFCURVE",
"1130 901 OFFCURVE",
"1130 952 CURVE SMOOTH",
"1130 1084 OFFCURVE",
"1074 1235 OFFCURVE",
"920 1235 CURVE SMOOTH",
"810 1235 OFFCURVE",
"692 1157 OFFCURVE",
"609 1092 CURVE SMOOTH",
"467 979 OFFCURVE",
"324 803 OFFCURVE",
"289 621 CURVE SMOOTH",
"285 600 OFFCURVE",
"283 579 OFFCURVE",
"283 559 CURVE SMOOTH",
"283 471 OFFCURVE",
"329 377 OFFCURVE",
"428 377 CURVE SMOOTH",
"604 377 OFFCURVE",
"783 622 OFFCURVE",
"823 777 CURVE SMOOTH",
"827 796 OFFCURVE",
"831 817 OFFCURVE",
"831 836 CURVE SMOOTH",
"831 870 OFFCURVE",
"819 899 OFFCURVE",
"782 899 CURVE SMOOTH",
"741 899 OFFCURVE",
"697 865 OFFCURVE",
"670 836 CURVE SMOOTH",
"667 834 OFFCURVE",
"665 830 OFFCURVE",
"665 826 CURVE SMOOTH",
"665 817 OFFCURVE",
"672 810 OFFCURVE",
"681 810 CURVE SMOOTH",
"695 810 OFFCURVE",
"730 862 OFFCURVE",
"766 862 CURVE SMOOTH",
"779 862 OFFCURVE",
"781 840 OFFCURVE",
"781 834 CURVE SMOOTH",
"781 813 OFFCURVE",
"775 794 OFFCURVE",
"770 774 CURVE SMOOTH",
"734 627 OFFCURVE",
"603 430 OFFCURVE",
"441 408 CURVE SMOOTH",
"437 408 OFFCURVE",
"434 408 OFFCURVE",
"430 408 CURVE SMOOTH",
"359 408 OFFCURVE",
"338 479 OFFCURVE",
"338 538 CURVE SMOOTH",
"338 739 OFFCURVE",
"507 950 OFFCURVE",
"655 1068 CURVE SMOOTH",
"725 1124 OFFCURVE",
"835 1199 OFFCURVE",
"929 1199 CURVE SMOOTH",
"1040 1199 OFFCURVE",
"1072 1092 OFFCURVE",
"1072 999 CURVE SMOOTH",
"1072 939 OFFCURVE",
"1061 879 OFFCURVE",
"1043 822 CURVE SMOOTH",
"945 520 OFFCURVE",
"748 110 OFFCURVE",
"459 -45 CURVE SMOOTH",
"412 -71 OFFCURVE",
"363 -88 OFFCURVE",
"310 -99 CURVE SMOOTH",
"297 -103 OFFCURVE",
"284 -103 OFFCURVE",
"271 -103 CURVE SMOOTH",
"186 -103 OFFCURVE",
"119 -43 OFFCURVE",
"119 44 CURVE SMOOTH",
"119 146 OFFCURVE",
"209 221 OFFCURVE",
"209 234 CURVE SMOOTH",
"209 241 OFFCURVE",
"201 249 OFFCURVE",
"194 249 CURVE SMOOTH",
"188 249 OFFCURVE",
"185 246 OFFCURVE",
"182 244 CURVE SMOOTH",
"120 181 OFFCURVE",
"61 83 OFFCURVE",
"61 -9 CURVE SMOOTH",
"61 -106 OFFCURVE",
"129 -150 OFFCURVE",
"219 -150 CURVE SMOOTH"
);
}
);
};
layerId = "95C423A7-595F-441F-915A-E5EF8B5EF971";
paths = (
{
closed = 1;
nodes = (
"246 -150 OFFCURVE",
"274 -147 OFFCURVE",
"299 -141 CURVE SMOOTH",
"370 -125 OFFCURVE",
"434 -101 OFFCURVE",
"495 -63 CURVE SMOOTH",
"774 102 OFFCURVE",
"1008 495 OFFCURVE",
"1106 799 CURVE SMOOTH",
"1123 849 OFFCURVE",
"1130 901 OFFCURVE",
"1130 952 CURVE SMOOTH",
"1130 1084 OFFCURVE",
"1074 1235 OFFCURVE",
"920 1235 CURVE SMOOTH",
"810 1235 OFFCURVE",
"692 1157 OFFCURVE",
"609 1092 CURVE SMOOTH",
"467 979 OFFCURVE",
"324 803 OFFCURVE",
"289 621 CURVE SMOOTH",
"285 600 OFFCURVE",
"283 579 OFFCURVE",
"283 559 CURVE SMOOTH",
"283 471 OFFCURVE",
"329 377 OFFCURVE",
"428 377 CURVE SMOOTH",
"604 377 OFFCURVE",
"783 622 OFFCURVE",
"823 777 CURVE SMOOTH",
"827 796 OFFCURVE",
"831 817 OFFCURVE",
"831 836 CURVE SMOOTH",
"831 870 OFFCURVE",
"819 899 OFFCURVE",
"782 899 CURVE SMOOTH",
"741 899 OFFCURVE",
"697 865 OFFCURVE",
"670 836 CURVE SMOOTH",
"667 834 OFFCURVE",
"665 830 OFFCURVE",
"665 826 CURVE SMOOTH",
"665 817 OFFCURVE",
"672 810 OFFCURVE",
"681 810 CURVE SMOOTH",
"695 810 OFFCURVE",
"730 862 OFFCURVE",
"766 862 CURVE SMOOTH",
"779 862 OFFCURVE",
"781 840 OFFCURVE",
"781 834 CURVE SMOOTH",
"781 813 OFFCURVE",
"775 794 OFFCURVE",
"770 774 CURVE SMOOTH",
"734 627 OFFCURVE",
"603 430 OFFCURVE",
"441 408 CURVE",
"430 408 LINE SMOOTH",
"359 408 OFFCURVE",
"338 479 OFFCURVE",
"338 538 CURVE SMOOTH",
"338 739 OFFCURVE",
"507 950 OFFCURVE",
"655 1068 CURVE SMOOTH",
"725 1124 OFFCURVE",
"835 1199 OFFCURVE",
"929 1199 CURVE SMOOTH",
"1040 1199 OFFCURVE",
"1072 1092 OFFCURVE",
"1072 999 CURVE SMOOTH",
"1072 939 OFFCURVE",
"1061 879 OFFCURVE",
"1043 822 CURVE SMOOTH",
"945 520 OFFCURVE",
"748 110 OFFCURVE",
"459 -45 CURVE SMOOTH",
"412 -71 OFFCURVE",
"363 -88 OFFCURVE",
"310 -99 CURVE SMOOTH",
"297 -103 OFFCURVE",
"284 -103 OFFCURVE",
"271 -103 CURVE SMOOTH",
"186 -103 OFFCURVE",
"119 -43 OFFCURVE",
"119 44 CURVE SMOOTH",
"119 146 OFFCURVE",
"209 221 OFFCURVE",
"209 234 CURVE SMOOTH",
"209 241 OFFCURVE",
"201 249 OFFCURVE",
"194 249 CURVE SMOOTH",
"188 249 OFFCURVE",
"185 246 OFFCURVE",
"182 244 CURVE SMOOTH",
"120 181 OFFCURVE",
"61 83 OFFCURVE",
"61 -9 CURVE SMOOTH",
"61 -106 OFFCURVE",
"129 -150 OFFCURVE",
"219 -150 CURVE SMOOTH"
);
},
{
closed = 1;
nodes = (
"1119 1231 OFFCURVE",
"1121 1235 OFFCURVE",
"1121 1240 CURVE SMOOTH",
"1121 1261 OFFCURVE",
"988 1352 OFFCURVE",
"966 1372 CURVE SMOOTH",
"951 1386 OFFCURVE",
"930 1399 OFFCURVE",
"907 1399 CURVE SMOOTH",
"895 1399 OFFCURVE",
"877 1392 OFFCURVE",
"877 1378 CURVE SMOOTH",
"877 1357 OFFCURVE",
"906 1341 OFFCURVE",
"921 1333 CURVE SMOOTH",
"982 1301 OFFCURVE",
"1043 1270 OFFCURVE",
"1102 1235 CURVE SMOOTH",
"1106 1232 OFFCURVE",
"1110 1231 OFFCURVE",
"1114 1231 CURVE SMOOTH"
);
}
);
width = 1129;
}
);
note = Igrave;
unicode = 00CC;
},
